solid CATIA STL
  facet normal  0.000000e+000  0.000000e+000 -1.000000e+000
    outer loop
      vertex -1.469295e+001 -3.019478e+000  0.000000e+000
      vertex -1.492304e+001 -1.517525e+000  0.000000e+000
      vertex -2.900000e+000 -3.038091e+000  0.000000e+000
    endloop
  endfacet
  facet normal  0.000000e+000  0.000000e+000 -1.000000e+000
    outer loop
      vertex  2.367117e+000  3.469403e+000  0.000000e+000
      vertex  1.652271e+000  3.861347e+000  0.000000e+000
      vertex  1.469295e+001  3.019478e+000  0.000000e+000
    endloop
  endfacet
  facet normal  0.000000e+000  0.000000e+000 -1.000000e+000
    outer loop
      vertex  1.469295e+001  3.019478e+000  0.000000e+000
      vertex  2.992776e+000  2.946742e+000  0.000000e+000
      vertex  2.367117e+000  3.469403e+000  0.000000e+000
    endloop
  endfacet
  facet normal  0.000000e+000  0.000000e+000 -9.999999e-001
    outer loop
      vertex -1.431209e+001 -4.490447e+000  0.000000e+000
      vertex -7.597376e-001 -1.498075e+001  0.000000e+000
      vertex -2.271417e+000 -1.482702e+001  0.000000e+000
    endloop
  endfacet
  facet normal  0.000000e+000  0.000000e+000 -1.000000e+000
    outer loop
      vertex -1.431209e+001 -4.490447e+000  0.000000e+000
      vertex -2.271417e+000 -1.482702e+001  0.000000e+000
      vertex -3.759788e+000 -1.452116e+001  0.000000e+000
    endloop
  endfacet
  facet normal  0.000000e+000  0.000000e+000 -1.000000e+000
    outer loop
      vertex -1.431209e+001 -4.490447e+000  0.000000e+000
      vertex -3.759788e+000 -1.452116e+001  0.000000e+000
      vertex -5.209579e+000 -1.406628e+001  0.000000e+000
    endloop
  endfacet
  facet normal  0.000000e+000  0.000000e+000 -1.000000e+000
    outer loop
      vertex -1.431209e+001 -4.490447e+000  0.000000e+000
      vertex -5.209579e+000 -1.406628e+001  0.000000e+000
      vertex -6.605912e+000 -1.346707e+001  0.000000e+000
    endloop
  endfacet
  facet normal  0.000000e+000  0.000000e+000 -1.000000e+000
    outer loop
      vertex -1.431209e+001 -4.490447e+000  0.000000e+000
      vertex -6.605912e+000 -1.346707e+001  0.000000e+000
      vertex -7.934460e+000 -1.272966e+001  0.000000e+000
    endloop
  endfacet
  facet normal  0.000000e+000  0.000000e+000 -1.000000e+000
    outer loop
      vertex -1.431209e+001 -4.490447e+000  0.000000e+000
      vertex -7.934460e+000 -1.272966e+001  0.000000e+000
      vertex -9.181590e+000 -1.186164e+001  0.000000e+000
    endloop
  endfacet
  facet normal  0.000000e+000  0.000000e+000 -1.000000e+000
    outer loop
      vertex -1.431209e+001 -4.490447e+000  0.000000e+000
      vertex -9.181590e+000 -1.186164e+001  0.000000e+000
      vertex -1.033450e+001 -1.087189e+001  0.000000e+000
    endloop
  endfacet
  facet normal  0.000000e+000  0.000000e+000 -1.000000e+000
    outer loop
      vertex -1.431209e+001 -4.490447e+000  0.000000e+000
      vertex -1.033450e+001 -1.087189e+001  0.000000e+000
      vertex -1.138137e+001 -9.770587e+000  0.000000e+000
    endloop
  endfacet
  facet normal  0.000000e+000  0.000000e+000 -9.999999e-001
    outer loop
      vertex -1.431209e+001 -4.490447e+000  0.000000e+000
      vertex -1.138137e+001 -9.770587e+000  0.000000e+000
      vertex -1.231145e+001 -8.569023e+000  0.000000e+000
    endloop
  endfacet
  facet normal  0.000000e+000  0.000000e+000 -1.000000e+000
    outer loop
      vertex -1.431209e+001 -4.490447e+000  0.000000e+000
      vertex -1.231145e+001 -8.569023e+000  0.000000e+000
      vertex -1.311520e+001 -7.279530e+000  0.000000e+000
    endloop
  endfacet
  facet normal  0.000000e+000  0.000000e+000 -9.999999e-001
    outer loop
      vertex -1.431209e+001 -4.490447e+000  0.000000e+000
      vertex -1.311520e+001 -7.279530e+000  0.000000e+000
      vertex -1.378437e+001 -5.915338e+000  0.000000e+000
    endloop
  endfacet
  facet normal  0.000000e+000  -0.000000e+000 -1.000000e+000
    outer loop
      vertex  8.751727e-001 -4.107806e+000  0.000000e+000
      vertex  1.652271e+000 -3.861347e+000  0.000000e+000
      vertex  1.431209e+001 -4.490447e+000  0.000000e+000
    endloop
  endfacet
  facet normal  -0.000000e+000  0.000000e+000 -9.999999e-001
    outer loop
      vertex  8.751727e-001 -4.107806e+000  0.000000e+000
      vertex  1.431209e+001 -4.490447e+000  0.000000e+000
      vertex  1.378437e+001 -5.915338e+000  0.000000e+000
    endloop
  endfacet
  facet normal  -0.000000e+000  0.000000e+000 -1.000000e+000
    outer loop
      vertex  8.751727e-001 -4.107806e+000  0.000000e+000
      vertex  1.378437e+001 -5.915338e+000  0.000000e+000
      vertex  1.311520e+001 -7.279530e+000  0.000000e+000
    endloop
  endfacet
  facet normal  -0.000000e+000  0.000000e+000 -1.000000e+000
    outer loop
      vertex  8.751727e-001 -4.107806e+000  0.000000e+000
      vertex  1.311520e+001 -7.279530e+000  0.000000e+000
      vertex  1.231145e+001 -8.569023e+000  0.000000e+000
    endloop
  endfacet
  facet normal  -0.000000e+000  0.000000e+000 -1.000000e+000
    outer loop
      vertex  8.751727e-001 -4.107806e+000  0.000000e+000
      vertex  1.231145e+001 -8.569023e+000  0.000000e+000
      vertex  1.138137e+001 -9.770587e+000  0.000000e+000
    endloop
  endfacet
  facet normal  -0.000000e+000  0.000000e+000 -1.000000e+000
    outer loop
      vertex  8.751727e-001 -4.107806e+000  0.000000e+000
      vertex  1.138137e+001 -9.770587e+000  0.000000e+000
      vertex  1.033450e+001 -1.087189e+001  0.000000e+000
    endloop
  endfacet
  facet normal  -0.000000e+000  0.000000e+000 -1.000000e+000
    outer loop
      vertex  8.751727e-001 -4.107806e+000  0.000000e+000
      vertex  1.033450e+001 -1.087189e+001  0.000000e+000
      vertex  9.181590e+000 -1.186164e+001  0.000000e+000
    endloop
  endfacet
  facet normal  -0.000000e+000  0.000000e+000 -1.000000e+000
    outer loop
      vertex  8.751727e-001 -4.107806e+000  0.000000e+000
      vertex  9.181590e+000 -1.186164e+001  0.000000e+000
      vertex  7.934460e+000 -1.272966e+001  0.000000e+000
    endloop
  endfacet
  facet normal  -0.000000e+000  0.000000e+000 -1.000000e+000
    outer loop
      vertex  8.751727e-001 -4.107806e+000  0.000000e+000
      vertex  7.934460e+000 -1.272966e+001  0.000000e+000
      vertex  6.605912e+000 -1.346707e+001  0.000000e+000
    endloop
  endfacet
  facet normal  -0.000000e+000  0.000000e+000 -1.000000e+000
    outer loop
      vertex  8.751727e-001 -4.107806e+000  0.000000e+000
      vertex  6.605912e+000 -1.346707e+001  0.000000e+000
      vertex  5.209579e+000 -1.406628e+001  0.000000e+000
    endloop
  endfacet
  facet normal  -0.000000e+000  0.000000e+000 -1.000000e+000
    outer loop
      vertex  8.751727e-001 -4.107806e+000  0.000000e+000
      vertex  5.209579e+000 -1.406628e+001  0.000000e+000
      vertex  3.759788e+000 -1.452116e+001  0.000000e+000
    endloop
  endfacet
  facet normal  -0.000000e+000  0.000000e+000 -1.000000e+000
    outer loop
      vertex  8.751727e-001 -4.107806e+000  0.000000e+000
      vertex  3.759788e+000 -1.452116e+001  0.000000e+000
      vertex  2.271417e+000 -1.482702e+001  0.000000e+000
    endloop
  endfacet
  facet normal  0.000000e+000  0.000000e+000 -1.000000e+000
    outer loop
      vertex  8.751727e-001  4.107806e+000  0.000000e+000
      vertex  6.510022e-002  4.199495e+000  0.000000e+000
      vertex  7.597376e-001  1.498075e+001  0.000000e+000
    endloop
  endfacet
  facet normal  0.000000e+000  0.000000e+000 -1.000000e+000
    outer loop
      vertex  8.751727e-001  4.107806e+000  0.000000e+000
      vertex  7.597376e-001  1.498075e+001  0.000000e+000
      vertex  2.271417e+000  1.482702e+001  0.000000e+000
    endloop
  endfacet
  facet normal  0.000000e+000  -0.000000e+000 -1.000000e+000
    outer loop
      vertex  8.751727e-001  4.107806e+000  0.000000e+000
      vertex  2.271417e+000  1.482702e+001  0.000000e+000
      vertex  3.759788e+000  1.452116e+001  0.000000e+000
    endloop
  endfacet
  facet normal  0.000000e+000  -0.000000e+000 -1.000000e+000
    outer loop
      vertex  8.751727e-001  4.107806e+000  0.000000e+000
      vertex  3.759788e+000  1.452116e+001  0.000000e+000
      vertex  5.209579e+000  1.406628e+001  0.000000e+000
    endloop
  endfacet
  facet normal  0.000000e+000  -0.000000e+000 -1.000000e+000
    outer loop
      vertex  8.751727e-001  4.107806e+000  0.000000e+000
      vertex  5.209579e+000  1.406628e+001  0.000000e+000
      vertex  6.605912e+000  1.346707e+001  0.000000e+000
    endloop
  endfacet
  facet normal  0.000000e+000  -0.000000e+000 -1.000000e+000
    outer loop
      vertex  8.751727e-001  4.107806e+000  0.000000e+000
      vertex  6.605912e+000  1.346707e+001  0.000000e+000
      vertex  7.934460e+000  1.272966e+001  0.000000e+000
    endloop
  endfacet
  facet normal  0.000000e+000  -0.000000e+000 -1.000000e+000
    outer loop
      vertex  8.751727e-001  4.107806e+000  0.000000e+000
      vertex  7.934460e+000  1.272966e+001  0.000000e+000
      vertex  9.181590e+000  1.186164e+001  0.000000e+000
    endloop
  endfacet
  facet normal  0.000000e+000  -0.000000e+000 -1.000000e+000
    outer loop
      vertex  8.751727e-001  4.107806e+000  0.000000e+000
      vertex  9.181590e+000  1.186164e+001  0.000000e+000
      vertex  1.033450e+001  1.087189e+001  0.000000e+000
    endloop
  endfacet
  facet normal  0.000000e+000  -0.000000e+000 -1.000000e+000
    outer loop
      vertex  8.751727e-001  4.107806e+000  0.000000e+000
      vertex  1.033450e+001  1.087189e+001  0.000000e+000
      vertex  1.138137e+001  9.770587e+000  0.000000e+000
    endloop
  endfacet
  facet normal  0.000000e+000  -0.000000e+000 -1.000000e+000
    outer loop
      vertex  8.751727e-001  4.107806e+000  0.000000e+000
      vertex  1.138137e+001  9.770587e+000  0.000000e+000
      vertex  1.231145e+001  8.569023e+000  0.000000e+000
    endloop
  endfacet
  facet normal  0.000000e+000  -0.000000e+000 -1.000000e+000
    outer loop
      vertex  8.751727e-001  4.107806e+000  0.000000e+000
      vertex  1.231145e+001  8.569023e+000  0.000000e+000
      vertex  1.311520e+001  7.279530e+000  0.000000e+000
    endloop
  endfacet
  facet normal  0.000000e+000  -0.000000e+000 -1.000000e+000
    outer loop
      vertex  8.751727e-001  4.107806e+000  0.000000e+000
      vertex  1.311520e+001  7.279530e+000  0.000000e+000
      vertex  1.378437e+001  5.915338e+000  0.000000e+000
    endloop
  endfacet
  facet normal  0.000000e+000  -0.000000e+000 -9.999999e-001
    outer loop
      vertex  8.751727e-001  4.107806e+000  0.000000e+000
      vertex  1.378437e+001  5.915338e+000  0.000000e+000
      vertex  1.431209e+001  4.490447e+000  0.000000e+000
    endloop
  endfacet
  facet normal  0.000000e+000  -0.000000e+000 -1.000000e+000
    outer loop
      vertex  8.751727e-001  4.107806e+000  0.000000e+000
      vertex  1.431209e+001  4.490447e+000  0.000000e+000
      vertex  1.469295e+001  3.019478e+000  0.000000e+000
    endloop
  endfacet
  facet normal  0.000000e+000  0.000000e+000 -1.000000e+000
    outer loop
      vertex  8.751727e-001  4.107806e+000  0.000000e+000
      vertex  1.469295e+001  3.019478e+000  0.000000e+000
      vertex  1.652271e+000  3.861347e+000  0.000000e+000
    endloop
  endfacet
  facet normal  0.000000e+000  0.000000e+000 -1.000000e+000
    outer loop
      vertex  6.510022e-002  4.199495e+000  0.000000e+000
      vertex -7.474250e-001  4.132960e+000  0.000000e+000
      vertex -1.431209e+001  4.490447e+000  0.000000e+000
    endloop
  endfacet
  facet normal  0.000000e+000  0.000000e+000 -1.000000e+000
    outer loop
      vertex  6.510022e-002  4.199495e+000  0.000000e+000
      vertex -1.431209e+001  4.490447e+000  0.000000e+000
      vertex -1.378437e+001  5.915338e+000  0.000000e+000
    endloop
  endfacet
  facet normal  0.000000e+000  0.000000e+000 -1.000000e+000
    outer loop
      vertex  6.510022e-002  4.199495e+000  0.000000e+000
      vertex -1.378437e+001  5.915338e+000  0.000000e+000
      vertex -1.311520e+001  7.279530e+000  0.000000e+000
    endloop
  endfacet
  facet normal  0.000000e+000  0.000000e+000 -1.000000e+000
    outer loop
      vertex  6.510022e-002  4.199495e+000  0.000000e+000
      vertex -1.311520e+001  7.279530e+000  0.000000e+000
      vertex -1.231145e+001  8.569023e+000  0.000000e+000
    endloop
  endfacet
  facet normal  0.000000e+000  0.000000e+000 -1.000000e+000
    outer loop
      vertex  6.510022e-002  4.199495e+000  0.000000e+000
      vertex -1.231145e+001  8.569023e+000  0.000000e+000
      vertex -1.138137e+001  9.770587e+000  0.000000e+000
    endloop
  endfacet
  facet normal  0.000000e+000  0.000000e+000 -1.000000e+000
    outer loop
      vertex  6.510022e-002  4.199495e+000  0.000000e+000
      vertex -1.138137e+001  9.770587e+000  0.000000e+000
      vertex -1.033450e+001  1.087189e+001  0.000000e+000
    endloop
  endfacet
  facet normal  0.000000e+000  0.000000e+000 -1.000000e+000
    outer loop
      vertex  6.510022e-002  4.199495e+000  0.000000e+000
      vertex -1.033450e+001  1.087189e+001  0.000000e+000
      vertex -9.181590e+000  1.186164e+001  0.000000e+000
    endloop
  endfacet
  facet normal  0.000000e+000  0.000000e+000 -1.000000e+000
    outer loop
      vertex  6.510022e-002  4.199495e+000  0.000000e+000
      vertex -9.181590e+000  1.186164e+001  0.000000e+000
      vertex -7.934460e+000  1.272966e+001  0.000000e+000
    endloop
  endfacet
  facet normal  0.000000e+000  0.000000e+000 -1.000000e+000
    outer loop
      vertex  6.510022e-002  4.199495e+000  0.000000e+000
      vertex -7.934460e+000  1.272966e+001  0.000000e+000
      vertex -6.605912e+000  1.346707e+001  0.000000e+000
    endloop
  endfacet
  facet normal  0.000000e+000  0.000000e+000 -1.000000e+000
    outer loop
      vertex  6.510022e-002  4.199495e+000  0.000000e+000
      vertex -6.605912e+000  1.346707e+001  0.000000e+000
      vertex -5.209579e+000  1.406628e+001  0.000000e+000
    endloop
  endfacet
  facet normal  0.000000e+000  0.000000e+000 -1.000000e+000
    outer loop
      vertex  6.510022e-002  4.199495e+000  0.000000e+000
      vertex -5.209579e+000  1.406628e+001  0.000000e+000
      vertex -3.759788e+000  1.452116e+001  0.000000e+000
    endloop
  endfacet
  facet normal  0.000000e+000  0.000000e+000 -1.000000e+000
    outer loop
      vertex  6.510022e-002  4.199495e+000  0.000000e+000
      vertex -3.759788e+000  1.452116e+001  0.000000e+000
      vertex -2.271417e+000  1.482702e+001  0.000000e+000
    endloop
  endfacet
  facet normal  0.000000e+000  0.000000e+000 -1.000000e+000
    outer loop
      vertex  6.510022e-002  4.199495e+000  0.000000e+000
      vertex -2.271417e+000  1.482702e+001  0.000000e+000
      vertex -7.597376e-001  1.498075e+001  0.000000e+000
    endloop
  endfacet
  facet normal  0.000000e+000  0.000000e+000 -1.000000e+000
    outer loop
      vertex  6.510022e-002  4.199495e+000  0.000000e+000
      vertex -7.597376e-001  1.498075e+001  0.000000e+000
      vertex  7.597376e-001  1.498075e+001  0.000000e+000
    endloop
  endfacet
  facet normal  0.000000e+000  -0.000000e+000 -1.000000e+000
    outer loop
      vertex -1.469295e+001  3.019478e+000  0.000000e+000
      vertex -1.431209e+001  4.490447e+000  0.000000e+000
      vertex -7.474250e-001  4.132960e+000  0.000000e+000
    endloop
  endfacet
  facet normal  0.000000e+000  0.000000e+000 -1.000000e+000
    outer loop
      vertex -1.469295e+001  3.019478e+000  0.000000e+000
      vertex -7.474250e-001  4.132960e+000  0.000000e+000
      vertex -1.531789e+000  3.910706e+000  0.000000e+000
    endloop
  endfacet
  facet normal  0.000000e+000  0.000000e+000 -1.000000e+000
    outer loop
      vertex -1.469295e+001  3.019478e+000  0.000000e+000
      vertex -1.531789e+000  3.910706e+000  0.000000e+000
      vertex -2.258440e+000  3.541108e+000  0.000000e+000
    endloop
  endfacet
  facet normal  0.000000e+000  0.000000e+000 -9.999999e-001
    outer loop
      vertex -1.469295e+001  3.019478e+000  0.000000e+000
      vertex -2.258440e+000  3.541108e+000  0.000000e+000
      vertex -2.900000e+000  3.038091e+000  0.000000e+000
    endloop
  endfacet
  facet normal  0.000000e+000  -0.000000e+000 -1.000000e+000
    outer loop
      vertex -1.469295e+001  3.019478e+000  0.000000e+000
      vertex -2.900000e+000  3.038091e+000  0.000000e+000
      vertex -2.900000e+000  0.000000e+000  0.000000e+000
    endloop
  endfacet
  facet normal  0.000000e+000  0.000000e+000 -1.000000e+000
    outer loop
      vertex -1.469295e+001  3.019478e+000  0.000000e+000
      vertex -2.900000e+000  0.000000e+000  0.000000e+000
      vertex -1.492304e+001  1.517525e+000  0.000000e+000
    endloop
  endfacet
  facet normal  0.000000e+000  0.000000e+000 -1.000000e+000
    outer loop
      vertex -1.431209e+001 -4.490447e+000  0.000000e+000
      vertex -1.469295e+001 -3.019478e+000  0.000000e+000
      vertex -2.900000e+000 -3.038091e+000  0.000000e+000
    endloop
  endfacet
  facet normal  0.000000e+000  -0.000000e+000 -1.000000e+000
    outer loop
      vertex -1.431209e+001 -4.490447e+000  0.000000e+000
      vertex -2.900000e+000 -3.038091e+000  0.000000e+000
      vertex -2.258440e+000 -3.541108e+000  0.000000e+000
    endloop
  endfacet
  facet normal  0.000000e+000  -0.000000e+000 -1.000000e+000
    outer loop
      vertex -1.431209e+001 -4.490447e+000  0.000000e+000
      vertex -2.258440e+000 -3.541108e+000  0.000000e+000
      vertex -1.531789e+000 -3.910706e+000  0.000000e+000
    endloop
  endfacet
  facet normal  0.000000e+000  -0.000000e+000 -1.000000e+000
    outer loop
      vertex -1.431209e+001 -4.490447e+000  0.000000e+000
      vertex -1.531789e+000 -3.910706e+000  0.000000e+000
      vertex -7.474250e-001 -4.132960e+000  0.000000e+000
    endloop
  endfacet
  facet normal  0.000000e+000  -0.000000e+000 -1.000000e+000
    outer loop
      vertex -1.431209e+001 -4.490447e+000  0.000000e+000
      vertex -7.474250e-001 -4.132960e+000  0.000000e+000
      vertex  6.510022e-002 -4.199495e+000  0.000000e+000
    endloop
  endfacet
  facet normal  0.000000e+000  0.000000e+000 -1.000000e+000
    outer loop
      vertex  2.271417e+000 -1.482702e+001  0.000000e+000
      vertex  7.597376e-001 -1.498075e+001  0.000000e+000
      vertex  8.751727e-001 -4.107806e+000  0.000000e+000
    endloop
  endfacet
  facet normal  0.000000e+000  0.000000e+000 -1.000000e+000
    outer loop
      vertex  8.751727e-001 -4.107806e+000  0.000000e+000
      vertex  7.597376e-001 -1.498075e+001  0.000000e+000
      vertex  6.510022e-002 -4.199495e+000  0.000000e+000
    endloop
  endfacet
  facet normal  0.000000e+000  0.000000e+000 -1.000000e+000
    outer loop
      vertex  7.597376e-001 -1.498075e+001  0.000000e+000
      vertex -7.597376e-001 -1.498075e+001  0.000000e+000
      vertex  6.510022e-002 -4.199495e+000  0.000000e+000
    endloop
  endfacet
  facet normal  0.000000e+000  0.000000e+000 -1.000000e+000
    outer loop
      vertex  6.510022e-002 -4.199495e+000  0.000000e+000
      vertex -7.597376e-001 -1.498075e+001  0.000000e+000
      vertex -1.431209e+001 -4.490447e+000  0.000000e+000
    endloop
  endfacet
  facet normal  0.000000e+000  0.000000e+000 -1.000000e+000
    outer loop
      vertex -1.492304e+001  1.517525e+000  0.000000e+000
      vertex -2.900000e+000  0.000000e+000  0.000000e+000
      vertex -1.500000e+001  8.498248e-015  0.000000e+000
    endloop
  endfacet
  facet normal  0.000000e+000  0.000000e+000 -1.000000e+000
    outer loop
      vertex -1.500000e+001  8.498248e-015  0.000000e+000
      vertex -2.900000e+000  0.000000e+000  0.000000e+000
      vertex -2.900000e+000 -3.038091e+000  0.000000e+000
    endloop
  endfacet
  facet normal  0.000000e+000  0.000000e+000 -1.000000e+000
    outer loop
      vertex -1.500000e+001  8.498248e-015  0.000000e+000
      vertex -2.900000e+000 -3.038091e+000  0.000000e+000
      vertex -1.492304e+001 -1.517525e+000  0.000000e+000
    endloop
  endfacet
  facet normal  0.000000e+000  0.000000e+000 -1.000000e+000
    outer loop
      vertex  3.886493e+000  1.592222e+000  0.000000e+000
      vertex  3.505677e+000  2.313056e+000  0.000000e+000
      vertex  1.492304e+001  1.517525e+000  0.000000e+000
    endloop
  endfacet
  facet normal  0.000000e+000  0.000000e+000 -1.000000e+000
    outer loop
      vertex  1.492304e+001  1.517525e+000  0.000000e+000
      vertex  3.505677e+000  2.313056e+000  0.000000e+000
      vertex  2.992776e+000  2.946742e+000  0.000000e+000
    endloop
  endfacet
  facet normal  0.000000e+000  0.000000e+000 -1.000000e+000
    outer loop
      vertex  1.492304e+001  1.517525e+000  0.000000e+000
      vertex  2.992776e+000  2.946742e+000  0.000000e+000
      vertex  1.469295e+001  3.019478e+000  0.000000e+000
    endloop
  endfacet
  facet normal  0.000000e+000  0.000000e+000 -1.000000e+000
    outer loop
      vertex  4.200000e+000 -1.028669e-015  0.000000e+000
      vertex  4.120878e+000  8.113964e-001  0.000000e+000
      vertex  1.500000e+001  0.000000e+000  0.000000e+000
    endloop
  endfacet
  facet normal  0.000000e+000  0.000000e+000 -1.000000e+000
    outer loop
      vertex  1.500000e+001  0.000000e+000  0.000000e+000
      vertex  4.120878e+000  8.113964e-001  0.000000e+000
      vertex  3.886493e+000  1.592222e+000  0.000000e+000
    endloop
  endfacet
  facet normal  0.000000e+000  0.000000e+000 -1.000000e+000
    outer loop
      vertex  1.500000e+001  0.000000e+000  0.000000e+000
      vertex  3.886493e+000  1.592222e+000  0.000000e+000
      vertex  1.492304e+001  1.517525e+000  0.000000e+000
    endloop
  endfacet
  facet normal  0.000000e+000  -0.000000e+000 -1.000000e+000
    outer loop
      vertex  3.886493e+000 -1.592222e+000  0.000000e+000
      vertex  4.120878e+000 -8.113964e-001  0.000000e+000
      vertex  1.492304e+001 -1.517525e+000  0.000000e+000
    endloop
  endfacet
  facet normal  0.000000e+000  0.000000e+000 -1.000000e+000
    outer loop
      vertex  1.492304e+001 -1.517525e+000  0.000000e+000
      vertex  4.120878e+000 -8.113964e-001  0.000000e+000
      vertex  4.200000e+000 -1.028669e-015  0.000000e+000
    endloop
  endfacet
  facet normal  0.000000e+000  0.000000e+000 -1.000000e+000
    outer loop
      vertex  1.492304e+001 -1.517525e+000  0.000000e+000
      vertex  4.200000e+000 -1.028669e-015  0.000000e+000
      vertex  1.500000e+001  0.000000e+000  0.000000e+000
    endloop
  endfacet
  facet normal  0.000000e+000  -0.000000e+000 -1.000000e+000
    outer loop
      vertex  2.992776e+000 -2.946742e+000  0.000000e+000
      vertex  3.505677e+000 -2.313056e+000  0.000000e+000
      vertex  1.469295e+001 -3.019478e+000  0.000000e+000
    endloop
  endfacet
  facet normal  0.000000e+000  0.000000e+000 -1.000000e+000
    outer loop
      vertex  1.469295e+001 -3.019478e+000  0.000000e+000
      vertex  3.505677e+000 -2.313056e+000  0.000000e+000
      vertex  3.886493e+000 -1.592222e+000  0.000000e+000
    endloop
  endfacet
  facet normal  0.000000e+000  0.000000e+000 -1.000000e+000
    outer loop
      vertex  1.469295e+001 -3.019478e+000  0.000000e+000
      vertex  3.886493e+000 -1.592222e+000  0.000000e+000
      vertex  1.492304e+001 -1.517525e+000  0.000000e+000
    endloop
  endfacet
  facet normal  0.000000e+000  -0.000000e+000 -1.000000e+000
    outer loop
      vertex  1.652271e+000 -3.861347e+000  0.000000e+000
      vertex  2.367117e+000 -3.469403e+000  0.000000e+000
      vertex  1.431209e+001 -4.490447e+000  0.000000e+000
    endloop
  endfacet
  facet normal  0.000000e+000  0.000000e+000 -1.000000e+000
    outer loop
      vertex  1.431209e+001 -4.490447e+000  0.000000e+000
      vertex  2.367117e+000 -3.469403e+000  0.000000e+000
      vertex  2.992776e+000 -2.946742e+000  0.000000e+000
    endloop
  endfacet
  facet normal  0.000000e+000  0.000000e+000 -9.999999e-001
    outer loop
      vertex  1.431209e+001 -4.490447e+000  0.000000e+000
      vertex  2.992776e+000 -2.946742e+000  0.000000e+000
      vertex  1.469295e+001 -3.019478e+000  0.000000e+000
    endloop
  endfacet
  facet normal  0.000000e+000  0.000000e+000  1.000000e+000
    outer loop
      vertex -2.900000e+000 -3.038091e+000  5.000000e+000
      vertex -1.492304e+001 -1.517525e+000  5.000000e+000
      vertex -1.469295e+001 -3.019478e+000  5.000000e+000
    endloop
  endfacet
  facet normal  0.000000e+000  0.000000e+000  1.000000e+000
    outer loop
      vertex  1.469295e+001  3.019478e+000  5.000000e+000
      vertex  1.652271e+000  3.861347e+000  5.000000e+000
      vertex  2.367117e+000  3.469403e+000  5.000000e+000
    endloop
  endfacet
  facet normal  0.000000e+000  -0.000000e+000  1.000000e+000
    outer loop
      vertex  2.367117e+000  3.469403e+000  5.000000e+000
      vertex  2.992776e+000  2.946742e+000  5.000000e+000
      vertex  1.469295e+001  3.019478e+000  5.000000e+000
    endloop
  endfacet
  facet normal  -0.000000e+000  -0.000000e+000  9.999999e-001
    outer loop
      vertex -1.431209e+001 -4.490447e+000  5.000000e+000
      vertex -1.378437e+001 -5.915338e+000  5.000000e+000
      vertex -1.311520e+001 -7.279530e+000  5.000000e+000
    endloop
  endfacet
  facet normal  -0.000000e+000  -0.000000e+000  1.000000e+000
    outer loop
      vertex -1.431209e+001 -4.490447e+000  5.000000e+000
      vertex -1.311520e+001 -7.279530e+000  5.000000e+000
      vertex -1.231145e+001 -8.569023e+000  5.000000e+000
    endloop
  endfacet
  facet normal  -0.000000e+000  -0.000000e+000  9.999999e-001
    outer loop
      vertex -1.431209e+001 -4.490447e+000  5.000000e+000
      vertex -1.231145e+001 -8.569023e+000  5.000000e+000
      vertex -1.138137e+001 -9.770587e+000  5.000000e+000
    endloop
  endfacet
  facet normal  -0.000000e+000  -0.000000e+000  1.000000e+000
    outer loop
      vertex -1.431209e+001 -4.490447e+000  5.000000e+000
      vertex -1.138137e+001 -9.770587e+000  5.000000e+000
      vertex -1.033450e+001 -1.087189e+001  5.000000e+000
    endloop
  endfacet
  facet normal  -0.000000e+000  -0.000000e+000  1.000000e+000
    outer loop
      vertex -1.431209e+001 -4.490447e+000  5.000000e+000
      vertex -1.033450e+001 -1.087189e+001  5.000000e+000
      vertex -9.181590e+000 -1.186164e+001  5.000000e+000
    endloop
  endfacet
  facet normal  -0.000000e+000  -0.000000e+000  1.000000e+000
    outer loop
      vertex -1.431209e+001 -4.490447e+000  5.000000e+000
      vertex -9.181590e+000 -1.186164e+001  5.000000e+000
      vertex -7.934460e+000 -1.272966e+001  5.000000e+000
    endloop
  endfacet
  facet normal  -0.000000e+000  -0.000000e+000  1.000000e+000
    outer loop
      vertex -1.431209e+001 -4.490447e+000  5.000000e+000
      vertex -7.934460e+000 -1.272966e+001  5.000000e+000
      vertex -6.605912e+000 -1.346707e+001  5.000000e+000
    endloop
  endfacet
  facet normal  -0.000000e+000  -0.000000e+000  1.000000e+000
    outer loop
      vertex -1.431209e+001 -4.490447e+000  5.000000e+000
      vertex -6.605912e+000 -1.346707e+001  5.000000e+000
      vertex -5.209579e+000 -1.406628e+001  5.000000e+000
    endloop
  endfacet
  facet normal  -0.000000e+000  -0.000000e+000  1.000000e+000
    outer loop
      vertex -1.431209e+001 -4.490447e+000  5.000000e+000
      vertex -5.209579e+000 -1.406628e+001  5.000000e+000
      vertex -3.759788e+000 -1.452116e+001  5.000000e+000
    endloop
  endfacet
  facet normal  -0.000000e+000  -0.000000e+000  1.000000e+000
    outer loop
      vertex -1.431209e+001 -4.490447e+000  5.000000e+000
      vertex -3.759788e+000 -1.452116e+001  5.000000e+000
      vertex -2.271417e+000 -1.482702e+001  5.000000e+000
    endloop
  endfacet
  facet normal  -0.000000e+000  -0.000000e+000  1.000000e+000
    outer loop
      vertex -1.431209e+001 -4.490447e+000  5.000000e+000
      vertex -2.271417e+000 -1.482702e+001  5.000000e+000
      vertex -7.597376e-001 -1.498075e+001  5.000000e+000
    endloop
  endfacet
  facet normal  0.000000e+000  -0.000000e+000  1.000000e+000
    outer loop
      vertex  8.751727e-001 -4.107806e+000  5.000000e+000
      vertex  2.271417e+000 -1.482702e+001  5.000000e+000
      vertex  3.759788e+000 -1.452116e+001  5.000000e+000
    endloop
  endfacet
  facet normal  0.000000e+000  -0.000000e+000  1.000000e+000
    outer loop
      vertex  8.751727e-001 -4.107806e+000  5.000000e+000
      vertex  3.759788e+000 -1.452116e+001  5.000000e+000
      vertex  5.209579e+000 -1.406628e+001  5.000000e+000
    endloop
  endfacet
  facet normal  0.000000e+000  -0.000000e+000  1.000000e+000
    outer loop
      vertex  8.751727e-001 -4.107806e+000  5.000000e+000
      vertex  5.209579e+000 -1.406628e+001  5.000000e+000
      vertex  6.605912e+000 -1.346707e+001  5.000000e+000
    endloop
  endfacet
  facet normal  0.000000e+000  -0.000000e+000  1.000000e+000
    outer loop
      vertex  8.751727e-001 -4.107806e+000  5.000000e+000
      vertex  6.605912e+000 -1.346707e+001  5.000000e+000
      vertex  7.934460e+000 -1.272966e+001  5.000000e+000
    endloop
  endfacet
  facet normal  0.000000e+000  -0.000000e+000  1.000000e+000
    outer loop
      vertex  8.751727e-001 -4.107806e+000  5.000000e+000
      vertex  7.934460e+000 -1.272966e+001  5.000000e+000
      vertex  9.181590e+000 -1.186164e+001  5.000000e+000
    endloop
  endfacet
  facet normal  0.000000e+000  -0.000000e+000  1.000000e+000
    outer loop
      vertex  8.751727e-001 -4.107806e+000  5.000000e+000
      vertex  9.181590e+000 -1.186164e+001  5.000000e+000
      vertex  1.033450e+001 -1.087189e+001  5.000000e+000
    endloop
  endfacet
  facet normal  0.000000e+000  -0.000000e+000  1.000000e+000
    outer loop
      vertex  8.751727e-001 -4.107806e+000  5.000000e+000
      vertex  1.033450e+001 -1.087189e+001  5.000000e+000
      vertex  1.138137e+001 -9.770587e+000  5.000000e+000
    endloop
  endfacet
  facet normal  0.000000e+000  -0.000000e+000  1.000000e+000
    outer loop
      vertex  8.751727e-001 -4.107806e+000  5.000000e+000
      vertex  1.138137e+001 -9.770587e+000  5.000000e+000
      vertex  1.231145e+001 -8.569023e+000  5.000000e+000
    endloop
  endfacet
  facet normal  0.000000e+000  -0.000000e+000  1.000000e+000
    outer loop
      vertex  8.751727e-001 -4.107806e+000  5.000000e+000
      vertex  1.231145e+001 -8.569023e+000  5.000000e+000
      vertex  1.311520e+001 -7.279530e+000  5.000000e+000
    endloop
  endfacet
  facet normal  0.000000e+000  -0.000000e+000  1.000000e+000
    outer loop
      vertex  8.751727e-001 -4.107806e+000  5.000000e+000
      vertex  1.311520e+001 -7.279530e+000  5.000000e+000
      vertex  1.378437e+001 -5.915338e+000  5.000000e+000
    endloop
  endfacet
  facet normal  0.000000e+000  -0.000000e+000  9.999999e-001
    outer loop
      vertex  8.751727e-001 -4.107806e+000  5.000000e+000
      vertex  1.378437e+001 -5.915338e+000  5.000000e+000
      vertex  1.431209e+001 -4.490447e+000  5.000000e+000
    endloop
  endfacet
  facet normal  0.000000e+000  0.000000e+000  1.000000e+000
    outer loop
      vertex  8.751727e-001 -4.107806e+000  5.000000e+000
      vertex  1.431209e+001 -4.490447e+000  5.000000e+000
      vertex  1.652271e+000 -3.861347e+000  5.000000e+000
    endloop
  endfacet
  facet normal  -0.000000e+000  -0.000000e+000  1.000000e+000
    outer loop
      vertex  8.751727e-001  4.107806e+000  5.000000e+000
      vertex  1.652271e+000  3.861347e+000  5.000000e+000
      vertex  1.469295e+001  3.019478e+000  5.000000e+000
    endloop
  endfacet
  facet normal  0.000000e+000  0.000000e+000  1.000000e+000
    outer loop
      vertex  8.751727e-001  4.107806e+000  5.000000e+000
      vertex  1.469295e+001  3.019478e+000  5.000000e+000
      vertex  1.431209e+001  4.490447e+000  5.000000e+000
    endloop
  endfacet
  facet normal  0.000000e+000  0.000000e+000  9.999999e-001
    outer loop
      vertex  8.751727e-001  4.107806e+000  5.000000e+000
      vertex  1.431209e+001  4.490447e+000  5.000000e+000
      vertex  1.378437e+001  5.915338e+000  5.000000e+000
    endloop
  endfacet
  facet normal  0.000000e+000  0.000000e+000  1.000000e+000
    outer loop
      vertex  8.751727e-001  4.107806e+000  5.000000e+000
      vertex  1.378437e+001  5.915338e+000  5.000000e+000
      vertex  1.311520e+001  7.279530e+000  5.000000e+000
    endloop
  endfacet
  facet normal  0.000000e+000  0.000000e+000  1.000000e+000
    outer loop
      vertex  8.751727e-001  4.107806e+000  5.000000e+000
      vertex  1.311520e+001  7.279530e+000  5.000000e+000
      vertex  1.231145e+001  8.569023e+000  5.000000e+000
    endloop
  endfacet
  facet normal  0.000000e+000  0.000000e+000  1.000000e+000
    outer loop
      vertex  8.751727e-001  4.107806e+000  5.000000e+000
      vertex  1.231145e+001  8.569023e+000  5.000000e+000
      vertex  1.138137e+001  9.770587e+000  5.000000e+000
    endloop
  endfacet
  facet normal  0.000000e+000  0.000000e+000  1.000000e+000
    outer loop
      vertex  8.751727e-001  4.107806e+000  5.000000e+000
      vertex  1.138137e+001  9.770587e+000  5.000000e+000
      vertex  1.033450e+001  1.087189e+001  5.000000e+000
    endloop
  endfacet
  facet normal  0.000000e+000  0.000000e+000  1.000000e+000
    outer loop
      vertex  8.751727e-001  4.107806e+000  5.000000e+000
      vertex  1.033450e+001  1.087189e+001  5.000000e+000
      vertex  9.181590e+000  1.186164e+001  5.000000e+000
    endloop
  endfacet
  facet normal  0.000000e+000  0.000000e+000  1.000000e+000
    outer loop
      vertex  8.751727e-001  4.107806e+000  5.000000e+000
      vertex  9.181590e+000  1.186164e+001  5.000000e+000
      vertex  7.934460e+000  1.272966e+001  5.000000e+000
    endloop
  endfacet
  facet normal  0.000000e+000  0.000000e+000  1.000000e+000
    outer loop
      vertex  8.751727e-001  4.107806e+000  5.000000e+000
      vertex  7.934460e+000  1.272966e+001  5.000000e+000
      vertex  6.605912e+000  1.346707e+001  5.000000e+000
    endloop
  endfacet
  facet normal  0.000000e+000  0.000000e+000  1.000000e+000
    outer loop
      vertex  8.751727e-001  4.107806e+000  5.000000e+000
      vertex  6.605912e+000  1.346707e+001  5.000000e+000
      vertex  5.209579e+000  1.406628e+001  5.000000e+000
    endloop
  endfacet
  facet normal  0.000000e+000  0.000000e+000  1.000000e+000
    outer loop
      vertex  8.751727e-001  4.107806e+000  5.000000e+000
      vertex  5.209579e+000  1.406628e+001  5.000000e+000
      vertex  3.759788e+000  1.452116e+001  5.000000e+000
    endloop
  endfacet
  facet normal  0.000000e+000  0.000000e+000  1.000000e+000
    outer loop
      vertex  8.751727e-001  4.107806e+000  5.000000e+000
      vertex  3.759788e+000  1.452116e+001  5.000000e+000
      vertex  2.271417e+000  1.482702e+001  5.000000e+000
    endloop
  endfacet
  facet normal  0.000000e+000  0.000000e+000  1.000000e+000
    outer loop
      vertex  8.751727e-001  4.107806e+000  5.000000e+000
      vertex  2.271417e+000  1.482702e+001  5.000000e+000
      vertex  7.597376e-001  1.498075e+001  5.000000e+000
    endloop
  endfacet
  facet normal  0.000000e+000  0.000000e+000  1.000000e+000
    outer loop
      vertex  8.751727e-001  4.107806e+000  5.000000e+000
      vertex  7.597376e-001  1.498075e+001  5.000000e+000
      vertex  6.510022e-002  4.199495e+000  5.000000e+000
    endloop
  endfacet
  facet normal  0.000000e+000  0.000000e+000  1.000000e+000
    outer loop
      vertex  6.510022e-002  4.199495e+000  5.000000e+000
      vertex  7.597376e-001  1.498075e+001  5.000000e+000
      vertex -7.597376e-001  1.498075e+001  5.000000e+000
    endloop
  endfacet
  facet normal  0.000000e+000  0.000000e+000  1.000000e+000
    outer loop
      vertex  6.510022e-002  4.199495e+000  5.000000e+000
      vertex -7.597376e-001  1.498075e+001  5.000000e+000
      vertex -2.271417e+000  1.482702e+001  5.000000e+000
    endloop
  endfacet
  facet normal  0.000000e+000  0.000000e+000  1.000000e+000
    outer loop
      vertex  6.510022e-002  4.199495e+000  5.000000e+000
      vertex -2.271417e+000  1.482702e+001  5.000000e+000
      vertex -3.759788e+000  1.452116e+001  5.000000e+000
    endloop
  endfacet
  facet normal  0.000000e+000  0.000000e+000  1.000000e+000
    outer loop
      vertex  6.510022e-002  4.199495e+000  5.000000e+000
      vertex -3.759788e+000  1.452116e+001  5.000000e+000
      vertex -5.209579e+000  1.406628e+001  5.000000e+000
    endloop
  endfacet
  facet normal  0.000000e+000  0.000000e+000  1.000000e+000
    outer loop
      vertex  6.510022e-002  4.199495e+000  5.000000e+000
      vertex -5.209579e+000  1.406628e+001  5.000000e+000
      vertex -6.605912e+000  1.346707e+001  5.000000e+000
    endloop
  endfacet
  facet normal  0.000000e+000  0.000000e+000  1.000000e+000
    outer loop
      vertex  6.510022e-002  4.199495e+000  5.000000e+000
      vertex -6.605912e+000  1.346707e+001  5.000000e+000
      vertex -7.934460e+000  1.272966e+001  5.000000e+000
    endloop
  endfacet
  facet normal  0.000000e+000  0.000000e+000  1.000000e+000
    outer loop
      vertex  6.510022e-002  4.199495e+000  5.000000e+000
      vertex -7.934460e+000  1.272966e+001  5.000000e+000
      vertex -9.181590e+000  1.186164e+001  5.000000e+000
    endloop
  endfacet
  facet normal  0.000000e+000  0.000000e+000  1.000000e+000
    outer loop
      vertex  6.510022e-002  4.199495e+000  5.000000e+000
      vertex -9.181590e+000  1.186164e+001  5.000000e+000
      vertex -1.033450e+001  1.087189e+001  5.000000e+000
    endloop
  endfacet
  facet normal  0.000000e+000  0.000000e+000  1.000000e+000
    outer loop
      vertex  6.510022e-002  4.199495e+000  5.000000e+000
      vertex -1.033450e+001  1.087189e+001  5.000000e+000
      vertex -1.138137e+001  9.770587e+000  5.000000e+000
    endloop
  endfacet
  facet normal  0.000000e+000  0.000000e+000  1.000000e+000
    outer loop
      vertex  6.510022e-002  4.199495e+000  5.000000e+000
      vertex -1.138137e+001  9.770587e+000  5.000000e+000
      vertex -1.231145e+001  8.569023e+000  5.000000e+000
    endloop
  endfacet
  facet normal  0.000000e+000  0.000000e+000  1.000000e+000
    outer loop
      vertex  6.510022e-002  4.199495e+000  5.000000e+000
      vertex -1.231145e+001  8.569023e+000  5.000000e+000
      vertex -1.311520e+001  7.279530e+000  5.000000e+000
    endloop
  endfacet
  facet normal  0.000000e+000  0.000000e+000  1.000000e+000
    outer loop
      vertex  6.510022e-002  4.199495e+000  5.000000e+000
      vertex -1.311520e+001  7.279530e+000  5.000000e+000
      vertex -1.378437e+001  5.915338e+000  5.000000e+000
    endloop
  endfacet
  facet normal  0.000000e+000  0.000000e+000  1.000000e+000
    outer loop
      vertex  6.510022e-002  4.199495e+000  5.000000e+000
      vertex -1.378437e+001  5.915338e+000  5.000000e+000
      vertex -1.431209e+001  4.490447e+000  5.000000e+000
    endloop
  endfacet
  facet normal  0.000000e+000  0.000000e+000  1.000000e+000
    outer loop
      vertex  6.510022e-002  4.199495e+000  5.000000e+000
      vertex -1.431209e+001  4.490447e+000  5.000000e+000
      vertex -7.474250e-001  4.132960e+000  5.000000e+000
    endloop
  endfacet
  facet normal  -0.000000e+000  0.000000e+000  1.000000e+000
    outer loop
      vertex -1.469295e+001  3.019478e+000  5.000000e+000
      vertex -1.492304e+001  1.517525e+000  5.000000e+000
      vertex -2.900000e+000  0.000000e+000  5.000000e+000
    endloop
  endfacet
  facet normal  0.000000e+000  -0.000000e+000  1.000000e+000
    outer loop
      vertex -1.469295e+001  3.019478e+000  5.000000e+000
      vertex -2.900000e+000  0.000000e+000  5.000000e+000
      vertex -2.900000e+000  3.038091e+000  5.000000e+000
    endloop
  endfacet
  facet normal  0.000000e+000  -0.000000e+000  9.999999e-001
    outer loop
      vertex -1.469295e+001  3.019478e+000  5.000000e+000
      vertex -2.900000e+000  3.038091e+000  5.000000e+000
      vertex -2.258440e+000  3.541108e+000  5.000000e+000
    endloop
  endfacet
  facet normal  0.000000e+000  -0.000000e+000  1.000000e+000
    outer loop
      vertex -1.469295e+001  3.019478e+000  5.000000e+000
      vertex -2.258440e+000  3.541108e+000  5.000000e+000
      vertex -1.531789e+000  3.910706e+000  5.000000e+000
    endloop
  endfacet
  facet normal  0.000000e+000  -0.000000e+000  1.000000e+000
    outer loop
      vertex -1.469295e+001  3.019478e+000  5.000000e+000
      vertex -1.531789e+000  3.910706e+000  5.000000e+000
      vertex -7.474250e-001  4.132960e+000  5.000000e+000
    endloop
  endfacet
  facet normal  0.000000e+000  0.000000e+000  1.000000e+000
    outer loop
      vertex -1.469295e+001  3.019478e+000  5.000000e+000
      vertex -7.474250e-001  4.132960e+000  5.000000e+000
      vertex -1.431209e+001  4.490447e+000  5.000000e+000
    endloop
  endfacet
  facet normal  0.000000e+000  0.000000e+000  1.000000e+000
    outer loop
      vertex -1.431209e+001 -4.490447e+000  5.000000e+000
      vertex  6.510022e-002 -4.199495e+000  5.000000e+000
      vertex -7.474250e-001 -4.132960e+000  5.000000e+000
    endloop
  endfacet
  facet normal  0.000000e+000  0.000000e+000  1.000000e+000
    outer loop
      vertex -1.431209e+001 -4.490447e+000  5.000000e+000
      vertex -7.474250e-001 -4.132960e+000  5.000000e+000
      vertex -1.531789e+000 -3.910706e+000  5.000000e+000
    endloop
  endfacet
  facet normal  0.000000e+000  0.000000e+000  1.000000e+000
    outer loop
      vertex -1.431209e+001 -4.490447e+000  5.000000e+000
      vertex -1.531789e+000 -3.910706e+000  5.000000e+000
      vertex -2.258440e+000 -3.541108e+000  5.000000e+000
    endloop
  endfacet
  facet normal  0.000000e+000  0.000000e+000  1.000000e+000
    outer loop
      vertex -1.431209e+001 -4.490447e+000  5.000000e+000
      vertex -2.258440e+000 -3.541108e+000  5.000000e+000
      vertex -2.900000e+000 -3.038091e+000  5.000000e+000
    endloop
  endfacet
  facet normal  0.000000e+000  0.000000e+000  1.000000e+000
    outer loop
      vertex -1.431209e+001 -4.490447e+000  5.000000e+000
      vertex -2.900000e+000 -3.038091e+000  5.000000e+000
      vertex -1.469295e+001 -3.019478e+000  5.000000e+000
    endloop
  endfacet
  facet normal  0.000000e+000  0.000000e+000  1.000000e+000
    outer loop
      vertex  2.271417e+000 -1.482702e+001  5.000000e+000
      vertex  8.751727e-001 -4.107806e+000  5.000000e+000
      vertex  7.597376e-001 -1.498075e+001  5.000000e+000
    endloop
  endfacet
  facet normal  0.000000e+000  -0.000000e+000  1.000000e+000
    outer loop
      vertex  7.597376e-001 -1.498075e+001  5.000000e+000
      vertex  8.751727e-001 -4.107806e+000  5.000000e+000
      vertex  6.510022e-002 -4.199495e+000  5.000000e+000
    endloop
  endfacet
  facet normal  0.000000e+000  0.000000e+000  1.000000e+000
    outer loop
      vertex  7.597376e-001 -1.498075e+001  5.000000e+000
      vertex  6.510022e-002 -4.199495e+000  5.000000e+000
      vertex -7.597376e-001 -1.498075e+001  5.000000e+000
    endloop
  endfacet
  facet normal  0.000000e+000  -0.000000e+000  9.999999e-001
    outer loop
      vertex -7.597376e-001 -1.498075e+001  5.000000e+000
      vertex  6.510022e-002 -4.199495e+000  5.000000e+000
      vertex -1.431209e+001 -4.490447e+000  5.000000e+000
    endloop
  endfacet
  facet normal  0.000000e+000  0.000000e+000  1.000000e+000
    outer loop
      vertex -1.492304e+001 -1.517525e+000  5.000000e+000
      vertex -2.900000e+000 -3.038091e+000  5.000000e+000
      vertex -1.500000e+001  8.498248e-015  5.000000e+000
    endloop
  endfacet
  facet normal  0.000000e+000  0.000000e+000  1.000000e+000
    outer loop
      vertex -1.500000e+001  8.498248e-015  5.000000e+000
      vertex -2.900000e+000 -3.038091e+000  5.000000e+000
      vertex -2.900000e+000  0.000000e+000  5.000000e+000
    endloop
  endfacet
  facet normal  0.000000e+000  0.000000e+000  1.000000e+000
    outer loop
      vertex -1.500000e+001  8.498248e-015  5.000000e+000
      vertex -2.900000e+000  0.000000e+000  5.000000e+000
      vertex -1.492304e+001  1.517525e+000  5.000000e+000
    endloop
  endfacet
  facet normal  -0.000000e+000  0.000000e+000  1.000000e+000
    outer loop
      vertex  1.469295e+001  3.019478e+000  5.000000e+000
      vertex  2.992776e+000  2.946742e+000  5.000000e+000
      vertex  1.492304e+001  1.517525e+000  5.000000e+000
    endloop
  endfacet
  facet normal  0.000000e+000  0.000000e+000  1.000000e+000
    outer loop
      vertex  1.492304e+001  1.517525e+000  5.000000e+000
      vertex  2.992776e+000  2.946742e+000  5.000000e+000
      vertex  3.505677e+000  2.313056e+000  5.000000e+000
    endloop
  endfacet
  facet normal  0.000000e+000  0.000000e+000  1.000000e+000
    outer loop
      vertex  1.492304e+001  1.517525e+000  5.000000e+000
      vertex  3.505677e+000  2.313056e+000  5.000000e+000
      vertex  3.886493e+000  1.592222e+000  5.000000e+000
    endloop
  endfacet
  facet normal  0.000000e+000  0.000000e+000  1.000000e+000
    outer loop
      vertex  1.492304e+001  1.517525e+000  5.000000e+000
      vertex  3.886493e+000  1.592222e+000  5.000000e+000
      vertex  1.500000e+001  0.000000e+000  5.000000e+000
    endloop
  endfacet
  facet normal  0.000000e+000  0.000000e+000  1.000000e+000
    outer loop
      vertex  1.500000e+001  0.000000e+000  5.000000e+000
      vertex  3.886493e+000  1.592222e+000  5.000000e+000
      vertex  4.120878e+000  8.113964e-001  5.000000e+000
    endloop
  endfacet
  facet normal  0.000000e+000  0.000000e+000  1.000000e+000
    outer loop
      vertex  1.500000e+001  0.000000e+000  5.000000e+000
      vertex  4.120878e+000  8.113964e-001  5.000000e+000
      vertex  4.200000e+000 -1.028669e-015  5.000000e+000
    endloop
  endfacet
  facet normal  -0.000000e+000  0.000000e+000  1.000000e+000
    outer loop
      vertex  1.500000e+001  0.000000e+000  5.000000e+000
      vertex  4.200000e+000 -1.028669e-015  5.000000e+000
      vertex  1.492304e+001 -1.517525e+000  5.000000e+000
    endloop
  endfacet
  facet normal  0.000000e+000  0.000000e+000  1.000000e+000
    outer loop
      vertex  1.492304e+001 -1.517525e+000  5.000000e+000
      vertex  4.200000e+000 -1.028669e-015  5.000000e+000
      vertex  4.120878e+000 -8.113964e-001  5.000000e+000
    endloop
  endfacet
  facet normal  0.000000e+000  0.000000e+000  1.000000e+000
    outer loop
      vertex  1.492304e+001 -1.517525e+000  5.000000e+000
      vertex  4.120878e+000 -8.113964e-001  5.000000e+000
      vertex  3.886493e+000 -1.592222e+000  5.000000e+000
    endloop
  endfacet
  facet normal  -0.000000e+000  0.000000e+000  1.000000e+000
    outer loop
      vertex  1.492304e+001 -1.517525e+000  5.000000e+000
      vertex  3.886493e+000 -1.592222e+000  5.000000e+000
      vertex  1.469295e+001 -3.019478e+000  5.000000e+000
    endloop
  endfacet
  facet normal  0.000000e+000  0.000000e+000  1.000000e+000
    outer loop
      vertex  1.469295e+001 -3.019478e+000  5.000000e+000
      vertex  3.886493e+000 -1.592222e+000  5.000000e+000
      vertex  3.505677e+000 -2.313056e+000  5.000000e+000
    endloop
  endfacet
  facet normal  0.000000e+000  0.000000e+000  1.000000e+000
    outer loop
      vertex  1.469295e+001 -3.019478e+000  5.000000e+000
      vertex  3.505677e+000 -2.313056e+000  5.000000e+000
      vertex  2.992776e+000 -2.946742e+000  5.000000e+000
    endloop
  endfacet
  facet normal  0.000000e+000  0.000000e+000  9.999999e-001
    outer loop
      vertex  1.469295e+001 -3.019478e+000  5.000000e+000
      vertex  2.992776e+000 -2.946742e+000  5.000000e+000
      vertex  1.431209e+001 -4.490447e+000  5.000000e+000
    endloop
  endfacet
  facet normal  0.000000e+000  0.000000e+000  1.000000e+000
    outer loop
      vertex  1.431209e+001 -4.490447e+000  5.000000e+000
      vertex  2.992776e+000 -2.946742e+000  5.000000e+000
      vertex  2.367117e+000 -3.469403e+000  5.000000e+000
    endloop
  endfacet
  facet normal  0.000000e+000  0.000000e+000  1.000000e+000
    outer loop
      vertex  1.431209e+001 -4.490447e+000  5.000000e+000
      vertex  2.367117e+000 -3.469403e+000  5.000000e+000
      vertex  1.652271e+000 -3.861347e+000  5.000000e+000
    endloop
  endfacet
  facet normal -9.952793e-001 -9.705254e-002  -0.000000e+000
    outer loop
      vertex  4.200000e+000 -1.028669e-015  0.000000e+000
      vertex  4.120878e+000  8.113964e-001  5.000000e+000
      vertex  4.120878e+000  8.113964e-001  0.000000e+000
    endloop
  endfacet
  facet normal -9.577800e-001 -2.875023e-001  0.000000e+000
    outer loop
      vertex  4.120878e+000  8.113964e-001  0.000000e+000
      vertex  4.120878e+000  8.113964e-001  5.000000e+000
      vertex  3.886493e+000  1.592222e+000  5.000000e+000
    endloop
  endfacet
  facet normal -9.577800e-001 -2.875023e-001  -0.000000e+000
    outer loop
      vertex  4.120878e+000  8.113964e-001  0.000000e+000
      vertex  3.886493e+000  1.592222e+000  5.000000e+000
      vertex  3.886493e+000  1.592222e+000  0.000000e+000
    endloop
  endfacet
  facet normal -8.841943e-001 -4.671194e-001  0.000000e+000
    outer loop
      vertex  3.886493e+000  1.592222e+000  0.000000e+000
      vertex  3.886493e+000  1.592222e+000  5.000000e+000
      vertex  3.505677e+000  2.313056e+000  5.000000e+000
    endloop
  endfacet
  facet normal -8.841943e-001 -4.671194e-001  -0.000000e+000
    outer loop
      vertex  3.886493e+000  1.592222e+000  0.000000e+000
      vertex  3.505677e+000  2.313056e+000  5.000000e+000
      vertex  3.505677e+000  2.313056e+000  0.000000e+000
    endloop
  endfacet
  facet normal -7.772949e-001 -6.291364e-001  0.000000e+000
    outer loop
      vertex  3.505677e+000  2.313056e+000  0.000000e+000
      vertex  3.505677e+000  2.313056e+000  5.000000e+000
      vertex  2.992776e+000  2.946742e+000  5.000000e+000
    endloop
  endfacet
  facet normal -7.772949e-001 -6.291364e-001  -0.000000e+000
    outer loop
      vertex  3.505677e+000  2.313056e+000  0.000000e+000
      vertex  2.992776e+000  2.946742e+000  5.000000e+000
      vertex  2.992776e+000  2.946742e+000  0.000000e+000
    endloop
  endfacet
  facet normal -6.411089e-001 -7.674498e-001  0.000000e+000
    outer loop
      vertex  2.992776e+000  2.946742e+000  0.000000e+000
      vertex  2.992776e+000  2.946742e+000  5.000000e+000
      vertex  2.367117e+000  3.469403e+000  5.000000e+000
    endloop
  endfacet
  facet normal -6.411089e-001 -7.674498e-001  -0.000000e+000
    outer loop
      vertex  2.992776e+000  2.946742e+000  0.000000e+000
      vertex  2.367117e+000  3.469403e+000  5.000000e+000
      vertex  2.367117e+000  3.469403e+000  0.000000e+000
    endloop
  endfacet
  facet normal -4.807683e-001 -8.768477e-001  0.000000e+000
    outer loop
      vertex  2.367117e+000  3.469403e+000  0.000000e+000
      vertex  2.367117e+000  3.469403e+000  5.000000e+000
      vertex  1.652271e+000  3.861347e+000  5.000000e+000
    endloop
  endfacet
  facet normal -4.807683e-001 -8.768477e-001  -0.000000e+000
    outer loop
      vertex  2.367117e+000  3.469403e+000  0.000000e+000
      vertex  1.652271e+000  3.861347e+000  5.000000e+000
      vertex  1.652271e+000  3.861347e+000  0.000000e+000
    endloop
  endfacet
  facet normal -3.023131e-001 -9.532086e-001  0.000000e+000
    outer loop
      vertex  1.652271e+000  3.861347e+000  0.000000e+000
      vertex  1.652271e+000  3.861347e+000  5.000000e+000
      vertex  8.751727e-001  4.107806e+000  5.000000e+000
    endloop
  endfacet
  facet normal -3.023131e-001 -9.532086e-001  -0.000000e+000
    outer loop
      vertex  1.652271e+000  3.861347e+000  0.000000e+000
      vertex  8.751727e-001  4.107806e+000  5.000000e+000
      vertex  8.751727e-001  4.107806e+000  0.000000e+000
    endloop
  endfacet
  facet normal -1.124682e-001 -9.936554e-001  0.000000e+000
    outer loop
      vertex  8.751727e-001  4.107806e+000  0.000000e+000
      vertex  8.751727e-001  4.107806e+000  5.000000e+000
      vertex  6.510022e-002  4.199495e+000  5.000000e+000
    endloop
  endfacet
  facet normal -1.124682e-001 -9.936554e-001  -0.000000e+000
    outer loop
      vertex  8.751727e-001  4.107806e+000  0.000000e+000
      vertex  6.510022e-002  4.199495e+000  5.000000e+000
      vertex  6.510022e-002  4.199495e+000  0.000000e+000
    endloop
  endfacet
  facet normal  8.161411e-002 -9.966640e-001  0.000000e+000
    outer loop
      vertex  6.510022e-002  4.199495e+000  0.000000e+000
      vertex  6.510022e-002  4.199495e+000  5.000000e+000
      vertex -7.474250e-001  4.132960e+000  5.000000e+000
    endloop
  endfacet
  facet normal  8.161411e-002 -9.966640e-001  0.000000e+000
    outer loop
      vertex  6.510022e-002  4.199495e+000  0.000000e+000
      vertex -7.474250e-001  4.132960e+000  5.000000e+000
      vertex -7.474250e-001  4.132960e+000  0.000000e+000
    endloop
  endfacet
  facet normal  2.726221e-001 -9.621212e-001  0.000000e+000
    outer loop
      vertex -7.474250e-001  4.132960e+000  0.000000e+000
      vertex -7.474250e-001  4.132960e+000  5.000000e+000
      vertex -1.531789e+000  3.910706e+000  5.000000e+000
    endloop
  endfacet
  facet normal  2.726221e-001 -9.621212e-001  0.000000e+000
    outer loop
      vertex -7.474250e-001  4.132960e+000  0.000000e+000
      vertex -1.531789e+000  3.910706e+000  5.000000e+000
      vertex -1.531789e+000  3.910706e+000  0.000000e+000
    endloop
  endfacet
  facet normal  4.533581e-001 -8.913286e-001  0.000000e+000
    outer loop
      vertex -1.531789e+000  3.910706e+000  0.000000e+000
      vertex -1.531789e+000  3.910706e+000  5.000000e+000
      vertex -2.258440e+000  3.541108e+000  5.000000e+000
    endloop
  endfacet
  facet normal  4.533581e-001 -8.913286e-001  0.000000e+000
    outer loop
      vertex -1.531789e+000  3.910706e+000  0.000000e+000
      vertex -2.258440e+000  3.541108e+000  5.000000e+000
      vertex -2.258440e+000  3.541108e+000  0.000000e+000
    endloop
  endfacet
  facet normal  6.170129e-001 -7.869531e-001  0.000000e+000
    outer loop
      vertex -2.258440e+000  3.541108e+000  0.000000e+000
      vertex -2.258440e+000  3.541108e+000  5.000000e+000
      vertex -2.900000e+000  3.038091e+000  5.000000e+000
    endloop
  endfacet
  facet normal  6.170129e-001 -7.869531e-001  0.000000e+000
    outer loop
      vertex -2.258440e+000  3.541108e+000  0.000000e+000
      vertex -2.900000e+000  3.038091e+000  5.000000e+000
      vertex -2.900000e+000  3.038091e+000  0.000000e+000
    endloop
  endfacet
  facet normal -9.952793e-001 -9.705254e-002  0.000000e+000
    outer loop
      vertex  4.120878e+000  8.113964e-001  5.000000e+000
      vertex  4.200000e+000 -1.028669e-015  0.000000e+000
      vertex  4.200000e+000 -1.028669e-015  5.000000e+000
    endloop
  endfacet
  facet normal -9.952793e-001  9.705254e-002  0.000000e+000
    outer loop
      vertex  4.200000e+000 -1.028669e-015  5.000000e+000
      vertex  4.200000e+000 -1.028669e-015  0.000000e+000
      vertex  4.120878e+000 -8.113964e-001  0.000000e+000
    endloop
  endfacet
  facet normal -9.952793e-001  9.705254e-002  0.000000e+000
    outer loop
      vertex  4.200000e+000 -1.028669e-015  5.000000e+000
      vertex  4.120878e+000 -8.113964e-001  0.000000e+000
      vertex  4.120878e+000 -8.113964e-001  5.000000e+000
    endloop
  endfacet
  facet normal -9.577800e-001  2.875023e-001  0.000000e+000
    outer loop
      vertex  4.120878e+000 -8.113964e-001  5.000000e+000
      vertex  4.120878e+000 -8.113964e-001  0.000000e+000
      vertex  3.886493e+000 -1.592222e+000  0.000000e+000
    endloop
  endfacet
  facet normal -9.577800e-001  2.875023e-001  0.000000e+000
    outer loop
      vertex  4.120878e+000 -8.113964e-001  5.000000e+000
      vertex  3.886493e+000 -1.592222e+000  0.000000e+000
      vertex  3.886493e+000 -1.592222e+000  5.000000e+000
    endloop
  endfacet
  facet normal -8.841943e-001  4.671194e-001  0.000000e+000
    outer loop
      vertex  3.886493e+000 -1.592222e+000  5.000000e+000
      vertex  3.886493e+000 -1.592222e+000  0.000000e+000
      vertex  3.505677e+000 -2.313056e+000  0.000000e+000
    endloop
  endfacet
  facet normal -8.841943e-001  4.671194e-001  0.000000e+000
    outer loop
      vertex  3.886493e+000 -1.592222e+000  5.000000e+000
      vertex  3.505677e+000 -2.313056e+000  0.000000e+000
      vertex  3.505677e+000 -2.313056e+000  5.000000e+000
    endloop
  endfacet
  facet normal -7.772949e-001  6.291364e-001  0.000000e+000
    outer loop
      vertex  3.505677e+000 -2.313056e+000  5.000000e+000
      vertex  3.505677e+000 -2.313056e+000  0.000000e+000
      vertex  2.992776e+000 -2.946742e+000  0.000000e+000
    endloop
  endfacet
  facet normal -7.772949e-001  6.291364e-001  0.000000e+000
    outer loop
      vertex  3.505677e+000 -2.313056e+000  5.000000e+000
      vertex  2.992776e+000 -2.946742e+000  0.000000e+000
      vertex  2.992776e+000 -2.946742e+000  5.000000e+000
    endloop
  endfacet
  facet normal -6.411089e-001  7.674498e-001  0.000000e+000
    outer loop
      vertex  2.992776e+000 -2.946742e+000  5.000000e+000
      vertex  2.992776e+000 -2.946742e+000  0.000000e+000
      vertex  2.367117e+000 -3.469403e+000  0.000000e+000
    endloop
  endfacet
  facet normal -6.411089e-001  7.674498e-001  0.000000e+000
    outer loop
      vertex  2.992776e+000 -2.946742e+000  5.000000e+000
      vertex  2.367117e+000 -3.469403e+000  0.000000e+000
      vertex  2.367117e+000 -3.469403e+000  5.000000e+000
    endloop
  endfacet
  facet normal -4.807683e-001  8.768477e-001  0.000000e+000
    outer loop
      vertex  2.367117e+000 -3.469403e+000  5.000000e+000
      vertex  2.367117e+000 -3.469403e+000  0.000000e+000
      vertex  1.652271e+000 -3.861347e+000  0.000000e+000
    endloop
  endfacet
  facet normal -4.807683e-001  8.768477e-001  0.000000e+000
    outer loop
      vertex  2.367117e+000 -3.469403e+000  5.000000e+000
      vertex  1.652271e+000 -3.861347e+000  0.000000e+000
      vertex  1.652271e+000 -3.861347e+000  5.000000e+000
    endloop
  endfacet
  facet normal -3.023131e-001  9.532086e-001  0.000000e+000
    outer loop
      vertex  1.652271e+000 -3.861347e+000  5.000000e+000
      vertex  1.652271e+000 -3.861347e+000  0.000000e+000
      vertex  8.751727e-001 -4.107806e+000  0.000000e+000
    endloop
  endfacet
  facet normal -3.023131e-001  9.532086e-001  0.000000e+000
    outer loop
      vertex  1.652271e+000 -3.861347e+000  5.000000e+000
      vertex  8.751727e-001 -4.107806e+000  0.000000e+000
      vertex  8.751727e-001 -4.107806e+000  5.000000e+000
    endloop
  endfacet
  facet normal -1.124682e-001  9.936554e-001  0.000000e+000
    outer loop
      vertex  8.751727e-001 -4.107806e+000  5.000000e+000
      vertex  8.751727e-001 -4.107806e+000  0.000000e+000
      vertex  6.510022e-002 -4.199495e+000  0.000000e+000
    endloop
  endfacet
  facet normal -1.124682e-001  9.936554e-001  0.000000e+000
    outer loop
      vertex  8.751727e-001 -4.107806e+000  5.000000e+000
      vertex  6.510022e-002 -4.199495e+000  0.000000e+000
      vertex  6.510022e-002 -4.199495e+000  5.000000e+000
    endloop
  endfacet
  facet normal  8.161411e-002  9.966640e-001  0.000000e+000
    outer loop
      vertex  6.510022e-002 -4.199495e+000  5.000000e+000
      vertex  6.510022e-002 -4.199495e+000  0.000000e+000
      vertex -7.474250e-001 -4.132960e+000  0.000000e+000
    endloop
  endfacet
  facet normal  8.161411e-002  9.966640e-001  -0.000000e+000
    outer loop
      vertex  6.510022e-002 -4.199495e+000  5.000000e+000
      vertex -7.474250e-001 -4.132960e+000  0.000000e+000
      vertex -7.474250e-001 -4.132960e+000  5.000000e+000
    endloop
  endfacet
  facet normal  2.726221e-001  9.621212e-001  0.000000e+000
    outer loop
      vertex -7.474250e-001 -4.132960e+000  5.000000e+000
      vertex -7.474250e-001 -4.132960e+000  0.000000e+000
      vertex -1.531789e+000 -3.910706e+000  0.000000e+000
    endloop
  endfacet
  facet normal  2.726221e-001  9.621212e-001  -0.000000e+000
    outer loop
      vertex -7.474250e-001 -4.132960e+000  5.000000e+000
      vertex -1.531789e+000 -3.910706e+000  0.000000e+000
      vertex -1.531789e+000 -3.910706e+000  5.000000e+000
    endloop
  endfacet
  facet normal  4.533581e-001  8.913286e-001  0.000000e+000
    outer loop
      vertex -1.531789e+000 -3.910706e+000  5.000000e+000
      vertex -1.531789e+000 -3.910706e+000  0.000000e+000
      vertex -2.258440e+000 -3.541108e+000  0.000000e+000
    endloop
  endfacet
  facet normal  4.533581e-001  8.913286e-001  -0.000000e+000
    outer loop
      vertex -1.531789e+000 -3.910706e+000  5.000000e+000
      vertex -2.258440e+000 -3.541108e+000  0.000000e+000
      vertex -2.258440e+000 -3.541108e+000  5.000000e+000
    endloop
  endfacet
  facet normal  6.170129e-001  7.869531e-001  0.000000e+000
    outer loop
      vertex -2.258440e+000 -3.541108e+000  5.000000e+000
      vertex -2.258440e+000 -3.541108e+000  0.000000e+000
      vertex -2.900000e+000 -3.038091e+000  0.000000e+000
    endloop
  endfacet
  facet normal  6.170129e-001  7.869531e-001  -0.000000e+000
    outer loop
      vertex -2.258440e+000 -3.541108e+000  5.000000e+000
      vertex -2.900000e+000 -3.038091e+000  0.000000e+000
      vertex -2.900000e+000 -3.038091e+000  5.000000e+000
    endloop
  endfacet
  facet normal  1.000000e+000  0.000000e+000  0.000000e+000
    outer loop
      vertex -2.900000e+000  3.038091e+000  0.000000e+000
      vertex -2.900000e+000  3.038091e+000  5.000000e+000
      vertex -2.900000e+000  0.000000e+000  0.000000e+000
    endloop
  endfacet
  facet normal  1.000000e+000  0.000000e+000  0.000000e+000
    outer loop
      vertex -2.900000e+000  0.000000e+000  0.000000e+000
      vertex -2.900000e+000  3.038091e+000  5.000000e+000
      vertex -2.900000e+000  0.000000e+000  5.000000e+000
    endloop
  endfacet
  facet normal  1.000000e+000  0.000000e+000  0.000000e+000
    outer loop
      vertex -2.900000e+000  0.000000e+000  0.000000e+000
      vertex -2.900000e+000  0.000000e+000  5.000000e+000
      vertex -2.900000e+000 -3.038091e+000  0.000000e+000
    endloop
  endfacet
  facet normal  1.000000e+000  0.000000e+000  0.000000e+000
    outer loop
      vertex -2.900000e+000 -3.038091e+000  0.000000e+000
      vertex -2.900000e+000  0.000000e+000  5.000000e+000
      vertex -2.900000e+000 -3.038091e+000  5.000000e+000
    endloop
  endfacet
  facet normal  9.987165e-001 -5.064944e-002  0.000000e+000
    outer loop
      vertex  1.500000e+001  0.000000e+000  0.000000e+000
      vertex  1.500000e+001  0.000000e+000  5.000000e+000
      vertex  1.492304e+001 -1.517525e+000  0.000000e+000
    endloop
  endfacet
  facet normal  9.987165e-001 -5.064944e-002  0.000000e+000
    outer loop
      vertex  1.492304e+001 -1.517525e+000  0.000000e+000
      vertex  1.500000e+001  0.000000e+000  5.000000e+000
      vertex  1.492304e+001 -1.517525e+000  5.000000e+000
    endloop
  endfacet
  facet normal  9.884685e-001 -1.514274e-001  0.000000e+000
    outer loop
      vertex  1.492304e+001 -1.517525e+000  0.000000e+000
      vertex  1.492304e+001 -1.517525e+000  5.000000e+000
      vertex  1.469295e+001 -3.019478e+000  0.000000e+000
    endloop
  endfacet
  facet normal  9.884685e-001 -1.514274e-001  0.000000e+000
    outer loop
      vertex  1.469295e+001 -3.019478e+000  0.000000e+000
      vertex  1.492304e+001 -1.517525e+000  5.000000e+000
      vertex  1.469295e+001 -3.019478e+000  5.000000e+000
    endloop
  endfacet
  facet normal  9.680772e-001 -2.506526e-001  0.000000e+000
    outer loop
      vertex  1.469295e+001 -3.019478e+000  0.000000e+000
      vertex  1.469295e+001 -3.019478e+000  5.000000e+000
      vertex  1.431209e+001 -4.490447e+000  0.000000e+000
    endloop
  endfacet
  facet normal  9.680772e-001 -2.506526e-001  0.000000e+000
    outer loop
      vertex  1.431209e+001 -4.490447e+000  0.000000e+000
      vertex  1.469295e+001 -3.019478e+000  5.000000e+000
      vertex  1.431209e+001 -4.490447e+000  5.000000e+000
    endloop
  endfacet
  facet normal  9.377522e-001 -3.473051e-001  0.000000e+000
    outer loop
      vertex  1.431209e+001 -4.490447e+000  0.000000e+000
      vertex  1.431209e+001 -4.490447e+000  5.000000e+000
      vertex  1.378437e+001 -5.915338e+000  0.000000e+000
    endloop
  endfacet
  facet normal  9.377522e-001 -3.473051e-001  0.000000e+000
    outer loop
      vertex  1.378437e+001 -5.915338e+000  0.000000e+000
      vertex  1.431209e+001 -4.490447e+000  5.000000e+000
      vertex  1.378437e+001 -5.915338e+000  5.000000e+000
    endloop
  endfacet
  facet normal  8.978044e-001 -4.403945e-001  0.000000e+000
    outer loop
      vertex  1.378437e+001 -5.915338e+000  0.000000e+000
      vertex  1.378437e+001 -5.915338e+000  5.000000e+000
      vertex  1.311520e+001 -7.279530e+000  0.000000e+000
    endloop
  endfacet
  facet normal  8.978044e-001 -4.403945e-001  0.000000e+000
    outer loop
      vertex  1.311520e+001 -7.279530e+000  0.000000e+000
      vertex  1.378437e+001 -5.915338e+000  5.000000e+000
      vertex  1.311520e+001 -7.279530e+000  5.000000e+000
    endloop
  endfacet
  facet normal  8.486444e-001 -5.289639e-001  0.000000e+000
    outer loop
      vertex  1.311520e+001 -7.279530e+000  0.000000e+000
      vertex  1.311520e+001 -7.279530e+000  5.000000e+000
      vertex  1.231145e+001 -8.569023e+000  0.000000e+000
    endloop
  endfacet
  facet normal  8.486444e-001 -5.289639e-001  0.000000e+000
    outer loop
      vertex  1.231145e+001 -8.569023e+000  0.000000e+000
      vertex  1.311520e+001 -7.279530e+000  5.000000e+000
      vertex  1.231145e+001 -8.569023e+000  5.000000e+000
    endloop
  endfacet
  facet normal  7.907755e-001 -6.121063e-001  0.000000e+000
    outer loop
      vertex  1.231145e+001 -8.569023e+000  0.000000e+000
      vertex  1.231145e+001 -8.569023e+000  5.000000e+000
      vertex  1.138137e+001 -9.770587e+000  0.000000e+000
    endloop
  endfacet
  facet normal  7.907755e-001 -6.121063e-001  0.000000e+000
    outer loop
      vertex  1.138137e+001 -9.770587e+000  0.000000e+000
      vertex  1.231145e+001 -8.569023e+000  5.000000e+000
      vertex  1.138137e+001 -9.770587e+000  5.000000e+000
    endloop
  endfacet
  facet normal  7.247931e-001 -6.889665e-001  0.000000e+000
    outer loop
      vertex  1.138137e+001 -9.770587e+000  0.000000e+000
      vertex  1.138137e+001 -9.770587e+000  5.000000e+000
      vertex  1.033450e+001 -1.087189e+001  0.000000e+000
    endloop
  endfacet
  facet normal  7.247931e-001 -6.889665e-001  0.000000e+000
    outer loop
      vertex  1.033450e+001 -1.087189e+001  0.000000e+000
      vertex  1.138137e+001 -9.770587e+000  5.000000e+000
      vertex  1.033450e+001 -1.087189e+001  5.000000e+000
    endloop
  endfacet
  facet normal  6.513725e-001 -7.587582e-001  0.000000e+000
    outer loop
      vertex  1.033450e+001 -1.087189e+001  0.000000e+000
      vertex  1.033450e+001 -1.087189e+001  5.000000e+000
      vertex  9.181590e+000 -1.186164e+001  0.000000e+000
    endloop
  endfacet
  facet normal  6.513725e-001 -7.587582e-001  0.000000e+000
    outer loop
      vertex  9.181590e+000 -1.186164e+001  0.000000e+000
      vertex  1.033450e+001 -1.087189e+001  5.000000e+000
      vertex  9.181590e+000 -1.186164e+001  5.000000e+000
    endloop
  endfacet
  facet normal  5.712681e-001 -8.207635e-001  0.000000e+000
    outer loop
      vertex  9.181590e+000 -1.186164e+001  0.000000e+000
      vertex  9.181590e+000 -1.186164e+001  5.000000e+000
      vertex  7.934460e+000 -1.272966e+001  0.000000e+000
    endloop
  endfacet
  facet normal  5.712681e-001 -8.207635e-001  0.000000e+000
    outer loop
      vertex  7.934460e+000 -1.272966e+001  0.000000e+000
      vertex  9.181590e+000 -1.186164e+001  5.000000e+000
      vertex  7.934460e+000 -1.272966e+001  5.000000e+000
    endloop
  endfacet
  facet normal  4.853018e-001 -8.743467e-001  0.000000e+000
    outer loop
      vertex  7.934460e+000 -1.272966e+001  0.000000e+000
      vertex  7.934460e+000 -1.272966e+001  5.000000e+000
      vertex  6.605912e+000 -1.346707e+001  0.000000e+000
    endloop
  endfacet
  facet normal  4.853018e-001 -8.743467e-001  0.000000e+000
    outer loop
      vertex  6.605912e+000 -1.346707e+001  0.000000e+000
      vertex  7.934460e+000 -1.272966e+001  5.000000e+000
      vertex  6.605912e+000 -1.346707e+001  5.000000e+000
    endloop
  endfacet
  facet normal  3.943563e-001 -9.189576e-001  0.000000e+000
    outer loop
      vertex  6.605912e+000 -1.346707e+001  0.000000e+000
      vertex  6.605912e+000 -1.346707e+001  5.000000e+000
      vertex  5.209579e+000 -1.406628e+001  0.000000e+000
    endloop
  endfacet
  facet normal  3.943563e-001 -9.189576e-001  0.000000e+000
    outer loop
      vertex  5.209579e+000 -1.406628e+001  0.000000e+000
      vertex  6.605912e+000 -1.346707e+001  5.000000e+000
      vertex  5.209579e+000 -1.406628e+001  5.000000e+000
    endloop
  endfacet
  facet normal  2.993627e-001 -9.541394e-001  0.000000e+000
    outer loop
      vertex  5.209579e+000 -1.406628e+001  0.000000e+000
      vertex  5.209579e+000 -1.406628e+001  5.000000e+000
      vertex  3.759788e+000 -1.452116e+001  0.000000e+000
    endloop
  endfacet
  facet normal  2.993627e-001 -9.541394e-001  0.000000e+000
    outer loop
      vertex  3.759788e+000 -1.452116e+001  0.000000e+000
      vertex  5.209579e+000 -1.406628e+001  5.000000e+000
      vertex  3.759788e+000 -1.452116e+001  5.000000e+000
    endloop
  endfacet
  facet normal  2.012986e-001 -9.795300e-001  0.000000e+000
    outer loop
      vertex  3.759788e+000 -1.452116e+001  0.000000e+000
      vertex  3.759788e+000 -1.452116e+001  5.000000e+000
      vertex  2.271417e+000 -1.482702e+001  0.000000e+000
    endloop
  endfacet
  facet normal  2.012986e-001 -9.795300e-001  0.000000e+000
    outer loop
      vertex  2.271417e+000 -1.482702e+001  0.000000e+000
      vertex  3.759788e+000 -1.452116e+001  5.000000e+000
      vertex  2.271417e+000 -1.482702e+001  5.000000e+000
    endloop
  endfacet
  facet normal  1.011683e-001 -9.948694e-001  0.000000e+000
    outer loop
      vertex  2.271417e+000 -1.482702e+001  0.000000e+000
      vertex  2.271417e+000 -1.482702e+001  5.000000e+000
      vertex  7.597376e-001 -1.498075e+001  0.000000e+000
    endloop
  endfacet
  facet normal  1.011683e-001 -9.948694e-001  0.000000e+000
    outer loop
      vertex  7.597376e-001 -1.498075e+001  0.000000e+000
      vertex  2.271417e+000 -1.482702e+001  5.000000e+000
      vertex  7.597376e-001 -1.498075e+001  5.000000e+000
    endloop
  endfacet
  facet normal  0.000000e+000 -1.000000e+000  -0.000000e+000
    outer loop
      vertex  7.597376e-001 -1.498075e+001  0.000000e+000
      vertex  7.597376e-001 -1.498075e+001  5.000000e+000
      vertex -7.597376e-001 -1.498075e+001  0.000000e+000
    endloop
  endfacet
  facet normal  0.000000e+000 -1.000000e+000  0.000000e+000
    outer loop
      vertex -7.597376e-001 -1.498075e+001  0.000000e+000
      vertex  7.597376e-001 -1.498075e+001  5.000000e+000
      vertex -7.597376e-001 -1.498075e+001  5.000000e+000
    endloop
  endfacet
  facet normal -1.011683e-001 -9.948694e-001  -0.000000e+000
    outer loop
      vertex -7.597376e-001 -1.498075e+001  0.000000e+000
      vertex -7.597376e-001 -1.498075e+001  5.000000e+000
      vertex -2.271417e+000 -1.482702e+001  0.000000e+000
    endloop
  endfacet
  facet normal -1.011683e-001 -9.948694e-001  0.000000e+000
    outer loop
      vertex -2.271417e+000 -1.482702e+001  0.000000e+000
      vertex -7.597376e-001 -1.498075e+001  5.000000e+000
      vertex -2.271417e+000 -1.482702e+001  5.000000e+000
    endloop
  endfacet
  facet normal -2.012986e-001 -9.795300e-001  -0.000000e+000
    outer loop
      vertex -2.271417e+000 -1.482702e+001  0.000000e+000
      vertex -2.271417e+000 -1.482702e+001  5.000000e+000
      vertex -3.759788e+000 -1.452116e+001  0.000000e+000
    endloop
  endfacet
  facet normal -2.012986e-001 -9.795300e-001  0.000000e+000
    outer loop
      vertex -3.759788e+000 -1.452116e+001  0.000000e+000
      vertex -2.271417e+000 -1.482702e+001  5.000000e+000
      vertex -3.759788e+000 -1.452116e+001  5.000000e+000
    endloop
  endfacet
  facet normal -2.993627e-001 -9.541394e-001  -0.000000e+000
    outer loop
      vertex -3.759788e+000 -1.452116e+001  0.000000e+000
      vertex -3.759788e+000 -1.452116e+001  5.000000e+000
      vertex -5.209579e+000 -1.406628e+001  0.000000e+000
    endloop
  endfacet
  facet normal -2.993627e-001 -9.541394e-001  0.000000e+000
    outer loop
      vertex -5.209579e+000 -1.406628e+001  0.000000e+000
      vertex -3.759788e+000 -1.452116e+001  5.000000e+000
      vertex -5.209579e+000 -1.406628e+001  5.000000e+000
    endloop
  endfacet
  facet normal -3.943563e-001 -9.189576e-001  -0.000000e+000
    outer loop
      vertex -5.209579e+000 -1.406628e+001  0.000000e+000
      vertex -5.209579e+000 -1.406628e+001  5.000000e+000
      vertex -6.605912e+000 -1.346707e+001  0.000000e+000
    endloop
  endfacet
  facet normal -3.943563e-001 -9.189576e-001  0.000000e+000
    outer loop
      vertex -6.605912e+000 -1.346707e+001  0.000000e+000
      vertex -5.209579e+000 -1.406628e+001  5.000000e+000
      vertex -6.605912e+000 -1.346707e+001  5.000000e+000
    endloop
  endfacet
  facet normal -4.853018e-001 -8.743467e-001  -0.000000e+000
    outer loop
      vertex -6.605912e+000 -1.346707e+001  0.000000e+000
      vertex -6.605912e+000 -1.346707e+001  5.000000e+000
      vertex -7.934460e+000 -1.272966e+001  0.000000e+000
    endloop
  endfacet
  facet normal -4.853018e-001 -8.743467e-001  0.000000e+000
    outer loop
      vertex -7.934460e+000 -1.272966e+001  0.000000e+000
      vertex -6.605912e+000 -1.346707e+001  5.000000e+000
      vertex -7.934460e+000 -1.272966e+001  5.000000e+000
    endloop
  endfacet
  facet normal -5.712681e-001 -8.207635e-001  -0.000000e+000
    outer loop
      vertex -7.934460e+000 -1.272966e+001  0.000000e+000
      vertex -7.934460e+000 -1.272966e+001  5.000000e+000
      vertex -9.181590e+000 -1.186164e+001  0.000000e+000
    endloop
  endfacet
  facet normal -5.712681e-001 -8.207635e-001  0.000000e+000
    outer loop
      vertex -9.181590e+000 -1.186164e+001  0.000000e+000
      vertex -7.934460e+000 -1.272966e+001  5.000000e+000
      vertex -9.181590e+000 -1.186164e+001  5.000000e+000
    endloop
  endfacet
  facet normal -6.513725e-001 -7.587582e-001  -0.000000e+000
    outer loop
      vertex -9.181590e+000 -1.186164e+001  0.000000e+000
      vertex -9.181590e+000 -1.186164e+001  5.000000e+000
      vertex -1.033450e+001 -1.087189e+001  0.000000e+000
    endloop
  endfacet
  facet normal -6.513725e-001 -7.587582e-001  0.000000e+000
    outer loop
      vertex -1.033450e+001 -1.087189e+001  0.000000e+000
      vertex -9.181590e+000 -1.186164e+001  5.000000e+000
      vertex -1.033450e+001 -1.087189e+001  5.000000e+000
    endloop
  endfacet
  facet normal -7.247931e-001 -6.889665e-001  -0.000000e+000
    outer loop
      vertex -1.033450e+001 -1.087189e+001  0.000000e+000
      vertex -1.033450e+001 -1.087189e+001  5.000000e+000
      vertex -1.138137e+001 -9.770587e+000  0.000000e+000
    endloop
  endfacet
  facet normal -7.247931e-001 -6.889665e-001  0.000000e+000
    outer loop
      vertex -1.138137e+001 -9.770587e+000  0.000000e+000
      vertex -1.033450e+001 -1.087189e+001  5.000000e+000
      vertex -1.138137e+001 -9.770587e+000  5.000000e+000
    endloop
  endfacet
  facet normal -7.907755e-001 -6.121063e-001  -0.000000e+000
    outer loop
      vertex -1.138137e+001 -9.770587e+000  0.000000e+000
      vertex -1.138137e+001 -9.770587e+000  5.000000e+000
      vertex -1.231145e+001 -8.569023e+000  0.000000e+000
    endloop
  endfacet
  facet normal -7.907755e-001 -6.121063e-001  0.000000e+000
    outer loop
      vertex -1.231145e+001 -8.569023e+000  0.000000e+000
      vertex -1.138137e+001 -9.770587e+000  5.000000e+000
      vertex -1.231145e+001 -8.569023e+000  5.000000e+000
    endloop
  endfacet
  facet normal -8.486444e-001 -5.289639e-001  -0.000000e+000
    outer loop
      vertex -1.231145e+001 -8.569023e+000  0.000000e+000
      vertex -1.231145e+001 -8.569023e+000  5.000000e+000
      vertex -1.311520e+001 -7.279530e+000  0.000000e+000
    endloop
  endfacet
  facet normal -8.486444e-001 -5.289639e-001  0.000000e+000
    outer loop
      vertex -1.311520e+001 -7.279530e+000  0.000000e+000
      vertex -1.231145e+001 -8.569023e+000  5.000000e+000
      vertex -1.311520e+001 -7.279530e+000  5.000000e+000
    endloop
  endfacet
  facet normal -8.978044e-001 -4.403945e-001  -0.000000e+000
    outer loop
      vertex -1.311520e+001 -7.279530e+000  0.000000e+000
      vertex -1.311520e+001 -7.279530e+000  5.000000e+000
      vertex -1.378437e+001 -5.915338e+000  0.000000e+000
    endloop
  endfacet
  facet normal -8.978044e-001 -4.403945e-001  0.000000e+000
    outer loop
      vertex -1.378437e+001 -5.915338e+000  0.000000e+000
      vertex -1.311520e+001 -7.279530e+000  5.000000e+000
      vertex -1.378437e+001 -5.915338e+000  5.000000e+000
    endloop
  endfacet
  facet normal -9.377522e-001 -3.473051e-001  -0.000000e+000
    outer loop
      vertex -1.378437e+001 -5.915338e+000  0.000000e+000
      vertex -1.378437e+001 -5.915338e+000  5.000000e+000
      vertex -1.431209e+001 -4.490447e+000  0.000000e+000
    endloop
  endfacet
  facet normal -9.377522e-001 -3.473051e-001  0.000000e+000
    outer loop
      vertex -1.431209e+001 -4.490447e+000  0.000000e+000
      vertex -1.378437e+001 -5.915338e+000  5.000000e+000
      vertex -1.431209e+001 -4.490447e+000  5.000000e+000
    endloop
  endfacet
  facet normal -9.680772e-001 -2.506526e-001  -0.000000e+000
    outer loop
      vertex -1.431209e+001 -4.490447e+000  0.000000e+000
      vertex -1.431209e+001 -4.490447e+000  5.000000e+000
      vertex -1.469295e+001 -3.019478e+000  0.000000e+000
    endloop
  endfacet
  facet normal -9.680772e-001 -2.506526e-001  0.000000e+000
    outer loop
      vertex -1.469295e+001 -3.019478e+000  0.000000e+000
      vertex -1.431209e+001 -4.490447e+000  5.000000e+000
      vertex -1.469295e+001 -3.019478e+000  5.000000e+000
    endloop
  endfacet
  facet normal -9.884685e-001 -1.514274e-001  -0.000000e+000
    outer loop
      vertex -1.469295e+001 -3.019478e+000  0.000000e+000
      vertex -1.469295e+001 -3.019478e+000  5.000000e+000
      vertex -1.492304e+001 -1.517525e+000  0.000000e+000
    endloop
  endfacet
  facet normal -9.884685e-001 -1.514274e-001  0.000000e+000
    outer loop
      vertex -1.492304e+001 -1.517525e+000  0.000000e+000
      vertex -1.469295e+001 -3.019478e+000  5.000000e+000
      vertex -1.492304e+001 -1.517525e+000  5.000000e+000
    endloop
  endfacet
  facet normal -9.987165e-001 -5.064944e-002  -0.000000e+000
    outer loop
      vertex -1.492304e+001 -1.517525e+000  0.000000e+000
      vertex -1.492304e+001 -1.517525e+000  5.000000e+000
      vertex -1.500000e+001  8.498248e-015  0.000000e+000
    endloop
  endfacet
  facet normal -9.987165e-001 -5.064944e-002  0.000000e+000
    outer loop
      vertex -1.500000e+001  8.498248e-015  0.000000e+000
      vertex -1.492304e+001 -1.517525e+000  5.000000e+000
      vertex -1.500000e+001  8.498248e-015  5.000000e+000
    endloop
  endfacet
  facet normal -9.987165e-001  5.064944e-002  0.000000e+000
    outer loop
      vertex -1.500000e+001  8.498248e-015  0.000000e+000
      vertex -1.500000e+001  8.498248e-015  5.000000e+000
      vertex -1.492304e+001  1.517525e+000  0.000000e+000
    endloop
  endfacet
  facet normal -9.987165e-001  5.064944e-002  0.000000e+000
    outer loop
      vertex -1.492304e+001  1.517525e+000  0.000000e+000
      vertex -1.500000e+001  8.498248e-015  5.000000e+000
      vertex -1.492304e+001  1.517525e+000  5.000000e+000
    endloop
  endfacet
  facet normal -9.884685e-001  1.514274e-001  0.000000e+000
    outer loop
      vertex -1.492304e+001  1.517525e+000  0.000000e+000
      vertex -1.492304e+001  1.517525e+000  5.000000e+000
      vertex -1.469295e+001  3.019478e+000  0.000000e+000
    endloop
  endfacet
  facet normal -9.884685e-001  1.514274e-001  0.000000e+000
    outer loop
      vertex -1.469295e+001  3.019478e+000  0.000000e+000
      vertex -1.492304e+001  1.517525e+000  5.000000e+000
      vertex -1.469295e+001  3.019478e+000  5.000000e+000
    endloop
  endfacet
  facet normal -9.680772e-001  2.506526e-001  0.000000e+000
    outer loop
      vertex -1.469295e+001  3.019478e+000  0.000000e+000
      vertex -1.469295e+001  3.019478e+000  5.000000e+000
      vertex -1.431209e+001  4.490447e+000  0.000000e+000
    endloop
  endfacet
  facet normal -9.680772e-001  2.506526e-001  0.000000e+000
    outer loop
      vertex -1.431209e+001  4.490447e+000  0.000000e+000
      vertex -1.469295e+001  3.019478e+000  5.000000e+000
      vertex -1.431209e+001  4.490447e+000  5.000000e+000
    endloop
  endfacet
  facet normal -9.377522e-001  3.473051e-001  0.000000e+000
    outer loop
      vertex -1.431209e+001  4.490447e+000  0.000000e+000
      vertex -1.431209e+001  4.490447e+000  5.000000e+000
      vertex -1.378437e+001  5.915338e+000  0.000000e+000
    endloop
  endfacet
  facet normal -9.377522e-001  3.473051e-001  0.000000e+000
    outer loop
      vertex -1.378437e+001  5.915338e+000  0.000000e+000
      vertex -1.431209e+001  4.490447e+000  5.000000e+000
      vertex -1.378437e+001  5.915338e+000  5.000000e+000
    endloop
  endfacet
  facet normal -8.978044e-001  4.403945e-001  0.000000e+000
    outer loop
      vertex -1.378437e+001  5.915338e+000  0.000000e+000
      vertex -1.378437e+001  5.915338e+000  5.000000e+000
      vertex -1.311520e+001  7.279530e+000  0.000000e+000
    endloop
  endfacet
  facet normal -8.978044e-001  4.403945e-001  0.000000e+000
    outer loop
      vertex -1.311520e+001  7.279530e+000  0.000000e+000
      vertex -1.378437e+001  5.915338e+000  5.000000e+000
      vertex -1.311520e+001  7.279530e+000  5.000000e+000
    endloop
  endfacet
  facet normal -8.486444e-001  5.289639e-001  0.000000e+000
    outer loop
      vertex -1.311520e+001  7.279530e+000  0.000000e+000
      vertex -1.311520e+001  7.279530e+000  5.000000e+000
      vertex -1.231145e+001  8.569023e+000  0.000000e+000
    endloop
  endfacet
  facet normal -8.486444e-001  5.289639e-001  0.000000e+000
    outer loop
      vertex -1.231145e+001  8.569023e+000  0.000000e+000
      vertex -1.311520e+001  7.279530e+000  5.000000e+000
      vertex -1.231145e+001  8.569023e+000  5.000000e+000
    endloop
  endfacet
  facet normal -7.907755e-001  6.121063e-001  0.000000e+000
    outer loop
      vertex -1.231145e+001  8.569023e+000  0.000000e+000
      vertex -1.231145e+001  8.569023e+000  5.000000e+000
      vertex -1.138137e+001  9.770587e+000  0.000000e+000
    endloop
  endfacet
  facet normal -7.907755e-001  6.121063e-001  0.000000e+000
    outer loop
      vertex -1.138137e+001  9.770587e+000  0.000000e+000
      vertex -1.231145e+001  8.569023e+000  5.000000e+000
      vertex -1.138137e+001  9.770587e+000  5.000000e+000
    endloop
  endfacet
  facet normal -7.247931e-001  6.889665e-001  0.000000e+000
    outer loop
      vertex -1.138137e+001  9.770587e+000  0.000000e+000
      vertex -1.138137e+001  9.770587e+000  5.000000e+000
      vertex -1.033450e+001  1.087189e+001  0.000000e+000
    endloop
  endfacet
  facet normal -7.247931e-001  6.889665e-001  0.000000e+000
    outer loop
      vertex -1.033450e+001  1.087189e+001  0.000000e+000
      vertex -1.138137e+001  9.770587e+000  5.000000e+000
      vertex -1.033450e+001  1.087189e+001  5.000000e+000
    endloop
  endfacet
  facet normal -6.513725e-001  7.587582e-001  0.000000e+000
    outer loop
      vertex -1.033450e+001  1.087189e+001  0.000000e+000
      vertex -1.033450e+001  1.087189e+001  5.000000e+000
      vertex -9.181590e+000  1.186164e+001  0.000000e+000
    endloop
  endfacet
  facet normal -6.513725e-001  7.587582e-001  0.000000e+000
    outer loop
      vertex -9.181590e+000  1.186164e+001  0.000000e+000
      vertex -1.033450e+001  1.087189e+001  5.000000e+000
      vertex -9.181590e+000  1.186164e+001  5.000000e+000
    endloop
  endfacet
  facet normal -5.712681e-001  8.207635e-001  0.000000e+000
    outer loop
      vertex -9.181590e+000  1.186164e+001  0.000000e+000
      vertex -9.181590e+000  1.186164e+001  5.000000e+000
      vertex -7.934460e+000  1.272966e+001  0.000000e+000
    endloop
  endfacet
  facet normal -5.712681e-001  8.207635e-001  0.000000e+000
    outer loop
      vertex -7.934460e+000  1.272966e+001  0.000000e+000
      vertex -9.181590e+000  1.186164e+001  5.000000e+000
      vertex -7.934460e+000  1.272966e+001  5.000000e+000
    endloop
  endfacet
  facet normal -4.853018e-001  8.743467e-001  0.000000e+000
    outer loop
      vertex -7.934460e+000  1.272966e+001  0.000000e+000
      vertex -7.934460e+000  1.272966e+001  5.000000e+000
      vertex -6.605912e+000  1.346707e+001  0.000000e+000
    endloop
  endfacet
  facet normal -4.853018e-001  8.743467e-001  0.000000e+000
    outer loop
      vertex -6.605912e+000  1.346707e+001  0.000000e+000
      vertex -7.934460e+000  1.272966e+001  5.000000e+000
      vertex -6.605912e+000  1.346707e+001  5.000000e+000
    endloop
  endfacet
  facet normal -3.943563e-001  9.189576e-001  0.000000e+000
    outer loop
      vertex -6.605912e+000  1.346707e+001  0.000000e+000
      vertex -6.605912e+000  1.346707e+001  5.000000e+000
      vertex -5.209579e+000  1.406628e+001  0.000000e+000
    endloop
  endfacet
  facet normal -3.943563e-001  9.189576e-001  0.000000e+000
    outer loop
      vertex -5.209579e+000  1.406628e+001  0.000000e+000
      vertex -6.605912e+000  1.346707e+001  5.000000e+000
      vertex -5.209579e+000  1.406628e+001  5.000000e+000
    endloop
  endfacet
  facet normal -2.993627e-001  9.541394e-001  0.000000e+000
    outer loop
      vertex -5.209579e+000  1.406628e+001  0.000000e+000
      vertex -5.209579e+000  1.406628e+001  5.000000e+000
      vertex -3.759788e+000  1.452116e+001  0.000000e+000
    endloop
  endfacet
  facet normal -2.993627e-001  9.541394e-001  0.000000e+000
    outer loop
      vertex -3.759788e+000  1.452116e+001  0.000000e+000
      vertex -5.209579e+000  1.406628e+001  5.000000e+000
      vertex -3.759788e+000  1.452116e+001  5.000000e+000
    endloop
  endfacet
  facet normal -2.012986e-001  9.795300e-001  0.000000e+000
    outer loop
      vertex -3.759788e+000  1.452116e+001  0.000000e+000
      vertex -3.759788e+000  1.452116e+001  5.000000e+000
      vertex -2.271417e+000  1.482702e+001  0.000000e+000
    endloop
  endfacet
  facet normal -2.012986e-001  9.795300e-001  0.000000e+000
    outer loop
      vertex -2.271417e+000  1.482702e+001  0.000000e+000
      vertex -3.759788e+000  1.452116e+001  5.000000e+000
      vertex -2.271417e+000  1.482702e+001  5.000000e+000
    endloop
  endfacet
  facet normal -1.011683e-001  9.948694e-001  0.000000e+000
    outer loop
      vertex -2.271417e+000  1.482702e+001  0.000000e+000
      vertex -2.271417e+000  1.482702e+001  5.000000e+000
      vertex -7.597376e-001  1.498075e+001  0.000000e+000
    endloop
  endfacet
  facet normal -1.011683e-001  9.948694e-001  0.000000e+000
    outer loop
      vertex -7.597376e-001  1.498075e+001  0.000000e+000
      vertex -2.271417e+000  1.482702e+001  5.000000e+000
      vertex -7.597376e-001  1.498075e+001  5.000000e+000
    endloop
  endfacet
  facet normal  0.000000e+000  1.000000e+000  0.000000e+000
    outer loop
      vertex -7.597376e-001  1.498075e+001  0.000000e+000
      vertex -7.597376e-001  1.498075e+001  5.000000e+000
      vertex  7.597376e-001  1.498075e+001  0.000000e+000
    endloop
  endfacet
  facet normal  0.000000e+000  1.000000e+000  -0.000000e+000
    outer loop
      vertex  7.597376e-001  1.498075e+001  0.000000e+000
      vertex -7.597376e-001  1.498075e+001  5.000000e+000
      vertex  7.597376e-001  1.498075e+001  5.000000e+000
    endloop
  endfacet
  facet normal  1.011683e-001  9.948694e-001  0.000000e+000
    outer loop
      vertex  7.597376e-001  1.498075e+001  0.000000e+000
      vertex  7.597376e-001  1.498075e+001  5.000000e+000
      vertex  2.271417e+000  1.482702e+001  0.000000e+000
    endloop
  endfacet
  facet normal  1.011683e-001  9.948694e-001  -0.000000e+000
    outer loop
      vertex  2.271417e+000  1.482702e+001  0.000000e+000
      vertex  7.597376e-001  1.498075e+001  5.000000e+000
      vertex  2.271417e+000  1.482702e+001  5.000000e+000
    endloop
  endfacet
  facet normal  2.012986e-001  9.795300e-001  0.000000e+000
    outer loop
      vertex  2.271417e+000  1.482702e+001  0.000000e+000
      vertex  2.271417e+000  1.482702e+001  5.000000e+000
      vertex  3.759788e+000  1.452116e+001  0.000000e+000
    endloop
  endfacet
  facet normal  2.012986e-001  9.795300e-001  -0.000000e+000
    outer loop
      vertex  3.759788e+000  1.452116e+001  0.000000e+000
      vertex  2.271417e+000  1.482702e+001  5.000000e+000
      vertex  3.759788e+000  1.452116e+001  5.000000e+000
    endloop
  endfacet
  facet normal  2.993627e-001  9.541394e-001  0.000000e+000
    outer loop
      vertex  3.759788e+000  1.452116e+001  0.000000e+000
      vertex  3.759788e+000  1.452116e+001  5.000000e+000
      vertex  5.209579e+000  1.406628e+001  0.000000e+000
    endloop
  endfacet
  facet normal  2.993627e-001  9.541394e-001  -0.000000e+000
    outer loop
      vertex  5.209579e+000  1.406628e+001  0.000000e+000
      vertex  3.759788e+000  1.452116e+001  5.000000e+000
      vertex  5.209579e+000  1.406628e+001  5.000000e+000
    endloop
  endfacet
  facet normal  3.943563e-001  9.189576e-001  0.000000e+000
    outer loop
      vertex  5.209579e+000  1.406628e+001  0.000000e+000
      vertex  5.209579e+000  1.406628e+001  5.000000e+000
      vertex  6.605912e+000  1.346707e+001  0.000000e+000
    endloop
  endfacet
  facet normal  3.943563e-001  9.189576e-001  -0.000000e+000
    outer loop
      vertex  6.605912e+000  1.346707e+001  0.000000e+000
      vertex  5.209579e+000  1.406628e+001  5.000000e+000
      vertex  6.605912e+000  1.346707e+001  5.000000e+000
    endloop
  endfacet
  facet normal  4.853018e-001  8.743467e-001  0.000000e+000
    outer loop
      vertex  6.605912e+000  1.346707e+001  0.000000e+000
      vertex  6.605912e+000  1.346707e+001  5.000000e+000
      vertex  7.934460e+000  1.272966e+001  0.000000e+000
    endloop
  endfacet
  facet normal  4.853018e-001  8.743467e-001  -0.000000e+000
    outer loop
      vertex  7.934460e+000  1.272966e+001  0.000000e+000
      vertex  6.605912e+000  1.346707e+001  5.000000e+000
      vertex  7.934460e+000  1.272966e+001  5.000000e+000
    endloop
  endfacet
  facet normal  5.712681e-001  8.207635e-001  0.000000e+000
    outer loop
      vertex  7.934460e+000  1.272966e+001  0.000000e+000
      vertex  7.934460e+000  1.272966e+001  5.000000e+000
      vertex  9.181590e+000  1.186164e+001  0.000000e+000
    endloop
  endfacet
  facet normal  5.712681e-001  8.207635e-001  -0.000000e+000
    outer loop
      vertex  9.181590e+000  1.186164e+001  0.000000e+000
      vertex  7.934460e+000  1.272966e+001  5.000000e+000
      vertex  9.181590e+000  1.186164e+001  5.000000e+000
    endloop
  endfacet
  facet normal  6.513725e-001  7.587582e-001  0.000000e+000
    outer loop
      vertex  9.181590e+000  1.186164e+001  0.000000e+000
      vertex  9.181590e+000  1.186164e+001  5.000000e+000
      vertex  1.033450e+001  1.087189e+001  0.000000e+000
    endloop
  endfacet
  facet normal  6.513725e-001  7.587582e-001  -0.000000e+000
    outer loop
      vertex  1.033450e+001  1.087189e+001  0.000000e+000
      vertex  9.181590e+000  1.186164e+001  5.000000e+000
      vertex  1.033450e+001  1.087189e+001  5.000000e+000
    endloop
  endfacet
  facet normal  7.247931e-001  6.889665e-001  0.000000e+000
    outer loop
      vertex  1.033450e+001  1.087189e+001  0.000000e+000
      vertex  1.033450e+001  1.087189e+001  5.000000e+000
      vertex  1.138137e+001  9.770587e+000  0.000000e+000
    endloop
  endfacet
  facet normal  7.247931e-001  6.889665e-001  -0.000000e+000
    outer loop
      vertex  1.138137e+001  9.770587e+000  0.000000e+000
      vertex  1.033450e+001  1.087189e+001  5.000000e+000
      vertex  1.138137e+001  9.770587e+000  5.000000e+000
    endloop
  endfacet
  facet normal  7.907755e-001  6.121063e-001  0.000000e+000
    outer loop
      vertex  1.138137e+001  9.770587e+000  0.000000e+000
      vertex  1.138137e+001  9.770587e+000  5.000000e+000
      vertex  1.231145e+001  8.569023e+000  0.000000e+000
    endloop
  endfacet
  facet normal  7.907755e-001  6.121063e-001  -0.000000e+000
    outer loop
      vertex  1.231145e+001  8.569023e+000  0.000000e+000
      vertex  1.138137e+001  9.770587e+000  5.000000e+000
      vertex  1.231145e+001  8.569023e+000  5.000000e+000
    endloop
  endfacet
  facet normal  8.486444e-001  5.289639e-001  0.000000e+000
    outer loop
      vertex  1.231145e+001  8.569023e+000  0.000000e+000
      vertex  1.231145e+001  8.569023e+000  5.000000e+000
      vertex  1.311520e+001  7.279530e+000  0.000000e+000
    endloop
  endfacet
  facet normal  8.486444e-001  5.289639e-001  -0.000000e+000
    outer loop
      vertex  1.311520e+001  7.279530e+000  0.000000e+000
      vertex  1.231145e+001  8.569023e+000  5.000000e+000
      vertex  1.311520e+001  7.279530e+000  5.000000e+000
    endloop
  endfacet
  facet normal  8.978044e-001  4.403945e-001  0.000000e+000
    outer loop
      vertex  1.311520e+001  7.279530e+000  0.000000e+000
      vertex  1.311520e+001  7.279530e+000  5.000000e+000
      vertex  1.378437e+001  5.915338e+000  0.000000e+000
    endloop
  endfacet
  facet normal  8.978044e-001  4.403945e-001  -0.000000e+000
    outer loop
      vertex  1.378437e+001  5.915338e+000  0.000000e+000
      vertex  1.311520e+001  7.279530e+000  5.000000e+000
      vertex  1.378437e+001  5.915338e+000  5.000000e+000
    endloop
  endfacet
  facet normal  9.377522e-001  3.473051e-001  0.000000e+000
    outer loop
      vertex  1.378437e+001  5.915338e+000  0.000000e+000
      vertex  1.378437e+001  5.915338e+000  5.000000e+000
      vertex  1.431209e+001  4.490447e+000  0.000000e+000
    endloop
  endfacet
  facet normal  9.377522e-001  3.473051e-001  -0.000000e+000
    outer loop
      vertex  1.431209e+001  4.490447e+000  0.000000e+000
      vertex  1.378437e+001  5.915338e+000  5.000000e+000
      vertex  1.431209e+001  4.490447e+000  5.000000e+000
    endloop
  endfacet
  facet normal  9.680772e-001  2.506526e-001  0.000000e+000
    outer loop
      vertex  1.431209e+001  4.490447e+000  0.000000e+000
      vertex  1.431209e+001  4.490447e+000  5.000000e+000
      vertex  1.469295e+001  3.019478e+000  0.000000e+000
    endloop
  endfacet
  facet normal  9.680772e-001  2.506526e-001  -0.000000e+000
    outer loop
      vertex  1.469295e+001  3.019478e+000  0.000000e+000
      vertex  1.431209e+001  4.490447e+000  5.000000e+000
      vertex  1.469295e+001  3.019478e+000  5.000000e+000
    endloop
  endfacet
  facet normal  9.884685e-001  1.514274e-001  0.000000e+000
    outer loop
      vertex  1.469295e+001  3.019478e+000  0.000000e+000
      vertex  1.469295e+001  3.019478e+000  5.000000e+000
      vertex  1.492304e+001  1.517525e+000  0.000000e+000
    endloop
  endfacet
  facet normal  9.884685e-001  1.514274e-001  -0.000000e+000
    outer loop
      vertex  1.492304e+001  1.517525e+000  0.000000e+000
      vertex  1.469295e+001  3.019478e+000  5.000000e+000
      vertex  1.492304e+001  1.517525e+000  5.000000e+000
    endloop
  endfacet
  facet normal  9.987165e-001  5.064944e-002  0.000000e+000
    outer loop
      vertex  1.492304e+001  1.517525e+000  0.000000e+000
      vertex  1.492304e+001  1.517525e+000  5.000000e+000
      vertex  1.500000e+001  0.000000e+000  0.000000e+000
    endloop
  endfacet
  facet normal  9.987165e-001  5.064944e-002  -0.000000e+000
    outer loop
      vertex  1.500000e+001  0.000000e+000  0.000000e+000
      vertex  1.492304e+001  1.517525e+000  5.000000e+000
      vertex  1.500000e+001  0.000000e+000  5.000000e+000
    endloop
  endfacet
endsolid CATIA STL
