solid CATIA STL
  facet normal  0.000000e+000  0.000000e+000 -1.000000e+000
    outer loop
      vertex -1.270470e+000  2.936989e+000  0.000000e+000
      vertex -1.469295e+001  3.019478e+000  0.000000e+000
      vertex -5.992363e-001  3.143392e+000  0.000000e+000
    endloop
  endfacet
  facet normal  -0.000000e+000  0.000000e+000 -1.000000e+000
    outer loop
      vertex -5.992363e-001 -3.143392e+000  0.000000e+000
      vertex  1.008562e-001 -3.198410e+000  0.000000e+000
      vertex -1.431209e+001 -4.490447e+000  0.000000e+000
    endloop
  endfacet
  facet normal  0.000000e+000  0.000000e+000 -1.000000e+000
    outer loop
      vertex  2.039907e+000  2.465518e+000  0.000000e+000
      vertex  1.452987e+000  2.851110e+000  0.000000e+000
      vertex  1.492304e+001  1.517525e+000  0.000000e+000
    endloop
  endfacet
  facet normal  0.000000e+000  0.000000e+000 -9.999999e-001
    outer loop
      vertex  2.528586e+000  1.961187e+000  0.000000e+000
      vertex  2.039907e+000  2.465518e+000  0.000000e+000
      vertex  1.492304e+001  1.517525e+000  0.000000e+000
    endloop
  endfacet
  facet normal  0.000000e+000  0.000000e+000 -1.000000e+000
    outer loop
      vertex  1.492304e+001  1.517525e+000  0.000000e+000
      vertex  2.895488e+000  1.362405e+000  0.000000e+000
      vertex  2.528586e+000  1.961187e+000  0.000000e+000
    endloop
  endfacet
  facet normal  0.000000e+000  -0.000000e+000 -1.000000e+000
    outer loop
      vertex  1.452987e+000 -2.851110e+000  0.000000e+000
      vertex  2.039907e+000 -2.465518e+000  0.000000e+000
      vertex  1.469295e+001 -3.019478e+000  0.000000e+000
    endloop
  endfacet
  facet normal  0.000000e+000  0.000000e+000 -9.999999e-001
    outer loop
      vertex -1.431209e+001 -4.490447e+000  0.000000e+000
      vertex -7.597376e-001 -1.498075e+001  0.000000e+000
      vertex -2.271417e+000 -1.482702e+001  0.000000e+000
    endloop
  endfacet
  facet normal  0.000000e+000  0.000000e+000 -1.000000e+000
    outer loop
      vertex -1.431209e+001 -4.490447e+000  0.000000e+000
      vertex -2.271417e+000 -1.482702e+001  0.000000e+000
      vertex -3.759788e+000 -1.452116e+001  0.000000e+000
    endloop
  endfacet
  facet normal  0.000000e+000  0.000000e+000 -1.000000e+000
    outer loop
      vertex -1.431209e+001 -4.490447e+000  0.000000e+000
      vertex -3.759788e+000 -1.452116e+001  0.000000e+000
      vertex -5.209579e+000 -1.406628e+001  0.000000e+000
    endloop
  endfacet
  facet normal  0.000000e+000  0.000000e+000 -1.000000e+000
    outer loop
      vertex -1.431209e+001 -4.490447e+000  0.000000e+000
      vertex -5.209579e+000 -1.406628e+001  0.000000e+000
      vertex -6.605912e+000 -1.346707e+001  0.000000e+000
    endloop
  endfacet
  facet normal  0.000000e+000  0.000000e+000 -1.000000e+000
    outer loop
      vertex -1.431209e+001 -4.490447e+000  0.000000e+000
      vertex -6.605912e+000 -1.346707e+001  0.000000e+000
      vertex -7.934460e+000 -1.272966e+001  0.000000e+000
    endloop
  endfacet
  facet normal  0.000000e+000  0.000000e+000 -1.000000e+000
    outer loop
      vertex -1.431209e+001 -4.490447e+000  0.000000e+000
      vertex -7.934460e+000 -1.272966e+001  0.000000e+000
      vertex -9.181590e+000 -1.186164e+001  0.000000e+000
    endloop
  endfacet
  facet normal  0.000000e+000  0.000000e+000 -1.000000e+000
    outer loop
      vertex -1.431209e+001 -4.490447e+000  0.000000e+000
      vertex -9.181590e+000 -1.186164e+001  0.000000e+000
      vertex -1.033450e+001 -1.087189e+001  0.000000e+000
    endloop
  endfacet
  facet normal  0.000000e+000  0.000000e+000 -1.000000e+000
    outer loop
      vertex -1.431209e+001 -4.490447e+000  0.000000e+000
      vertex -1.033450e+001 -1.087189e+001  0.000000e+000
      vertex -1.138137e+001 -9.770587e+000  0.000000e+000
    endloop
  endfacet
  facet normal  0.000000e+000  0.000000e+000 -9.999999e-001
    outer loop
      vertex -1.431209e+001 -4.490447e+000  0.000000e+000
      vertex -1.138137e+001 -9.770587e+000  0.000000e+000
      vertex -1.231145e+001 -8.569023e+000  0.000000e+000
    endloop
  endfacet
  facet normal  0.000000e+000  0.000000e+000 -1.000000e+000
    outer loop
      vertex -1.431209e+001 -4.490447e+000  0.000000e+000
      vertex -1.231145e+001 -8.569023e+000  0.000000e+000
      vertex -1.311520e+001 -7.279530e+000  0.000000e+000
    endloop
  endfacet
  facet normal  0.000000e+000  0.000000e+000 -9.999999e-001
    outer loop
      vertex -1.431209e+001 -4.490447e+000  0.000000e+000
      vertex -1.311520e+001 -7.279530e+000  0.000000e+000
      vertex -1.378437e+001 -5.915338e+000  0.000000e+000
    endloop
  endfacet
  facet normal  0.000000e+000  -0.000000e+000 -9.999999e-001
    outer loop
      vertex  7.960916e-001 -3.099393e+000  0.000000e+000
      vertex  1.452987e+000 -2.851110e+000  0.000000e+000
      vertex  1.469295e+001 -3.019478e+000  0.000000e+000
    endloop
  endfacet
  facet normal  0.000000e+000  0.000000e+000 -1.000000e+000
    outer loop
      vertex  7.960916e-001 -3.099393e+000  0.000000e+000
      vertex  1.469295e+001 -3.019478e+000  0.000000e+000
      vertex  1.431209e+001 -4.490447e+000  0.000000e+000
    endloop
  endfacet
  facet normal  -0.000000e+000  0.000000e+000 -1.000000e+000
    outer loop
      vertex  7.960916e-001 -3.099393e+000  0.000000e+000
      vertex  1.431209e+001 -4.490447e+000  0.000000e+000
      vertex  1.378437e+001 -5.915338e+000  0.000000e+000
    endloop
  endfacet
  facet normal  -0.000000e+000  0.000000e+000 -1.000000e+000
    outer loop
      vertex  7.960916e-001 -3.099393e+000  0.000000e+000
      vertex  1.378437e+001 -5.915338e+000  0.000000e+000
      vertex  1.311520e+001 -7.279530e+000  0.000000e+000
    endloop
  endfacet
  facet normal  -0.000000e+000  0.000000e+000 -1.000000e+000
    outer loop
      vertex  7.960916e-001 -3.099393e+000  0.000000e+000
      vertex  1.311520e+001 -7.279530e+000  0.000000e+000
      vertex  1.231145e+001 -8.569023e+000  0.000000e+000
    endloop
  endfacet
  facet normal  -0.000000e+000  0.000000e+000 -1.000000e+000
    outer loop
      vertex  7.960916e-001 -3.099393e+000  0.000000e+000
      vertex  1.231145e+001 -8.569023e+000  0.000000e+000
      vertex  1.138137e+001 -9.770587e+000  0.000000e+000
    endloop
  endfacet
  facet normal  -0.000000e+000  0.000000e+000 -1.000000e+000
    outer loop
      vertex  7.960916e-001 -3.099393e+000  0.000000e+000
      vertex  1.138137e+001 -9.770587e+000  0.000000e+000
      vertex  1.033450e+001 -1.087189e+001  0.000000e+000
    endloop
  endfacet
  facet normal  -0.000000e+000  0.000000e+000 -1.000000e+000
    outer loop
      vertex  7.960916e-001 -3.099393e+000  0.000000e+000
      vertex  1.033450e+001 -1.087189e+001  0.000000e+000
      vertex  9.181590e+000 -1.186164e+001  0.000000e+000
    endloop
  endfacet
  facet normal  -0.000000e+000  0.000000e+000 -1.000000e+000
    outer loop
      vertex  7.960916e-001 -3.099393e+000  0.000000e+000
      vertex  9.181590e+000 -1.186164e+001  0.000000e+000
      vertex  7.934460e+000 -1.272966e+001  0.000000e+000
    endloop
  endfacet
  facet normal  -0.000000e+000  0.000000e+000 -9.999999e-001
    outer loop
      vertex  7.960916e-001 -3.099393e+000  0.000000e+000
      vertex  7.934460e+000 -1.272966e+001  0.000000e+000
      vertex  6.605912e+000 -1.346707e+001  0.000000e+000
    endloop
  endfacet
  facet normal  -0.000000e+000  0.000000e+000 -1.000000e+000
    outer loop
      vertex  7.960916e-001 -3.099393e+000  0.000000e+000
      vertex  6.605912e+000 -1.346707e+001  0.000000e+000
      vertex  5.209579e+000 -1.406628e+001  0.000000e+000
    endloop
  endfacet
  facet normal  -0.000000e+000  0.000000e+000 -1.000000e+000
    outer loop
      vertex  7.960916e-001 -3.099393e+000  0.000000e+000
      vertex  5.209579e+000 -1.406628e+001  0.000000e+000
      vertex  3.759788e+000 -1.452116e+001  0.000000e+000
    endloop
  endfacet
  facet normal  -0.000000e+000  0.000000e+000 -1.000000e+000
    outer loop
      vertex  7.960916e-001 -3.099393e+000  0.000000e+000
      vertex  3.759788e+000 -1.452116e+001  0.000000e+000
      vertex  2.271417e+000 -1.482702e+001  0.000000e+000
    endloop
  endfacet
  facet normal  0.000000e+000  0.000000e+000 -1.000000e+000
    outer loop
      vertex  7.960916e-001  3.099393e+000  0.000000e+000
      vertex  1.008562e-001  3.198410e+000  0.000000e+000
      vertex  7.597376e-001  1.498075e+001  0.000000e+000
    endloop
  endfacet
  facet normal  0.000000e+000  0.000000e+000 -1.000000e+000
    outer loop
      vertex  7.960916e-001  3.099393e+000  0.000000e+000
      vertex  7.597376e-001  1.498075e+001  0.000000e+000
      vertex  2.271417e+000  1.482702e+001  0.000000e+000
    endloop
  endfacet
  facet normal  0.000000e+000  -0.000000e+000 -1.000000e+000
    outer loop
      vertex  7.960916e-001  3.099393e+000  0.000000e+000
      vertex  2.271417e+000  1.482702e+001  0.000000e+000
      vertex  3.759788e+000  1.452116e+001  0.000000e+000
    endloop
  endfacet
  facet normal  0.000000e+000  -0.000000e+000 -1.000000e+000
    outer loop
      vertex  7.960916e-001  3.099393e+000  0.000000e+000
      vertex  3.759788e+000  1.452116e+001  0.000000e+000
      vertex  5.209579e+000  1.406628e+001  0.000000e+000
    endloop
  endfacet
  facet normal  0.000000e+000  -0.000000e+000 -1.000000e+000
    outer loop
      vertex  7.960916e-001  3.099393e+000  0.000000e+000
      vertex  5.209579e+000  1.406628e+001  0.000000e+000
      vertex  6.605912e+000  1.346707e+001  0.000000e+000
    endloop
  endfacet
  facet normal  0.000000e+000  -0.000000e+000 -9.999999e-001
    outer loop
      vertex  7.960916e-001  3.099393e+000  0.000000e+000
      vertex  6.605912e+000  1.346707e+001  0.000000e+000
      vertex  7.934460e+000  1.272966e+001  0.000000e+000
    endloop
  endfacet
  facet normal  0.000000e+000  -0.000000e+000 -1.000000e+000
    outer loop
      vertex  7.960916e-001  3.099393e+000  0.000000e+000
      vertex  7.934460e+000  1.272966e+001  0.000000e+000
      vertex  9.181590e+000  1.186164e+001  0.000000e+000
    endloop
  endfacet
  facet normal  0.000000e+000  -0.000000e+000 -1.000000e+000
    outer loop
      vertex  7.960916e-001  3.099393e+000  0.000000e+000
      vertex  9.181590e+000  1.186164e+001  0.000000e+000
      vertex  1.033450e+001  1.087189e+001  0.000000e+000
    endloop
  endfacet
  facet normal  0.000000e+000  -0.000000e+000 -1.000000e+000
    outer loop
      vertex  7.960916e-001  3.099393e+000  0.000000e+000
      vertex  1.033450e+001  1.087189e+001  0.000000e+000
      vertex  1.138137e+001  9.770587e+000  0.000000e+000
    endloop
  endfacet
  facet normal  0.000000e+000  -0.000000e+000 -1.000000e+000
    outer loop
      vertex  7.960916e-001  3.099393e+000  0.000000e+000
      vertex  1.138137e+001  9.770587e+000  0.000000e+000
      vertex  1.231145e+001  8.569023e+000  0.000000e+000
    endloop
  endfacet
  facet normal  0.000000e+000  -0.000000e+000 -1.000000e+000
    outer loop
      vertex  7.960916e-001  3.099393e+000  0.000000e+000
      vertex  1.231145e+001  8.569023e+000  0.000000e+000
      vertex  1.311520e+001  7.279530e+000  0.000000e+000
    endloop
  endfacet
  facet normal  0.000000e+000  -0.000000e+000 -1.000000e+000
    outer loop
      vertex  7.960916e-001  3.099393e+000  0.000000e+000
      vertex  1.311520e+001  7.279530e+000  0.000000e+000
      vertex  1.378437e+001  5.915338e+000  0.000000e+000
    endloop
  endfacet
  facet normal  0.000000e+000  -0.000000e+000 -1.000000e+000
    outer loop
      vertex  7.960916e-001  3.099393e+000  0.000000e+000
      vertex  1.378437e+001  5.915338e+000  0.000000e+000
      vertex  1.431209e+001  4.490447e+000  0.000000e+000
    endloop
  endfacet
  facet normal  0.000000e+000  -0.000000e+000 -1.000000e+000
    outer loop
      vertex  7.960916e-001  3.099393e+000  0.000000e+000
      vertex  1.431209e+001  4.490447e+000  0.000000e+000
      vertex  1.469295e+001  3.019478e+000  0.000000e+000
    endloop
  endfacet
  facet normal  -0.000000e+000  -0.000000e+000 -1.000000e+000
    outer loop
      vertex  7.960916e-001  3.099393e+000  0.000000e+000
      vertex  1.469295e+001  3.019478e+000  0.000000e+000
      vertex  1.492304e+001  1.517525e+000  0.000000e+000
    endloop
  endfacet
  facet normal  0.000000e+000  0.000000e+000 -1.000000e+000
    outer loop
      vertex  7.960916e-001  3.099393e+000  0.000000e+000
      vertex  1.492304e+001  1.517525e+000  0.000000e+000
      vertex  1.452987e+000  2.851110e+000  0.000000e+000
    endloop
  endfacet
  facet normal  -0.000000e+000  0.000000e+000 -9.999999e-001
    outer loop
      vertex  1.008562e-001  3.198410e+000  0.000000e+000
      vertex -5.992363e-001  3.143392e+000  0.000000e+000
      vertex -1.469295e+001  3.019478e+000  0.000000e+000
    endloop
  endfacet
  facet normal  0.000000e+000  0.000000e+000 -1.000000e+000
    outer loop
      vertex  1.008562e-001  3.198410e+000  0.000000e+000
      vertex -1.469295e+001  3.019478e+000  0.000000e+000
      vertex -1.431209e+001  4.490447e+000  0.000000e+000
    endloop
  endfacet
  facet normal  0.000000e+000  0.000000e+000 -1.000000e+000
    outer loop
      vertex  1.008562e-001  3.198410e+000  0.000000e+000
      vertex -1.431209e+001  4.490447e+000  0.000000e+000
      vertex -1.378437e+001  5.915338e+000  0.000000e+000
    endloop
  endfacet
  facet normal  0.000000e+000  0.000000e+000 -9.999999e-001
    outer loop
      vertex  1.008562e-001  3.198410e+000  0.000000e+000
      vertex -1.378437e+001  5.915338e+000  0.000000e+000
      vertex -1.311520e+001  7.279530e+000  0.000000e+000
    endloop
  endfacet
  facet normal  0.000000e+000  0.000000e+000 -1.000000e+000
    outer loop
      vertex  1.008562e-001  3.198410e+000  0.000000e+000
      vertex -1.311520e+001  7.279530e+000  0.000000e+000
      vertex -1.231145e+001  8.569023e+000  0.000000e+000
    endloop
  endfacet
  facet normal  0.000000e+000  0.000000e+000 -1.000000e+000
    outer loop
      vertex  1.008562e-001  3.198410e+000  0.000000e+000
      vertex -1.231145e+001  8.569023e+000  0.000000e+000
      vertex -1.138137e+001  9.770587e+000  0.000000e+000
    endloop
  endfacet
  facet normal  0.000000e+000  0.000000e+000 -1.000000e+000
    outer loop
      vertex  1.008562e-001  3.198410e+000  0.000000e+000
      vertex -1.138137e+001  9.770587e+000  0.000000e+000
      vertex -1.033450e+001  1.087189e+001  0.000000e+000
    endloop
  endfacet
  facet normal  0.000000e+000  0.000000e+000 -9.999999e-001
    outer loop
      vertex  1.008562e-001  3.198410e+000  0.000000e+000
      vertex -1.033450e+001  1.087189e+001  0.000000e+000
      vertex -9.181590e+000  1.186164e+001  0.000000e+000
    endloop
  endfacet
  facet normal  0.000000e+000  0.000000e+000 -1.000000e+000
    outer loop
      vertex  1.008562e-001  3.198410e+000  0.000000e+000
      vertex -9.181590e+000  1.186164e+001  0.000000e+000
      vertex -7.934460e+000  1.272966e+001  0.000000e+000
    endloop
  endfacet
  facet normal  0.000000e+000  0.000000e+000 -1.000000e+000
    outer loop
      vertex  1.008562e-001  3.198410e+000  0.000000e+000
      vertex -7.934460e+000  1.272966e+001  0.000000e+000
      vertex -6.605912e+000  1.346707e+001  0.000000e+000
    endloop
  endfacet
  facet normal  0.000000e+000  0.000000e+000 -9.999999e-001
    outer loop
      vertex  1.008562e-001  3.198410e+000  0.000000e+000
      vertex -6.605912e+000  1.346707e+001  0.000000e+000
      vertex -5.209579e+000  1.406628e+001  0.000000e+000
    endloop
  endfacet
  facet normal  0.000000e+000  0.000000e+000 -1.000000e+000
    outer loop
      vertex  1.008562e-001  3.198410e+000  0.000000e+000
      vertex -5.209579e+000  1.406628e+001  0.000000e+000
      vertex -3.759788e+000  1.452116e+001  0.000000e+000
    endloop
  endfacet
  facet normal  0.000000e+000  0.000000e+000 -1.000000e+000
    outer loop
      vertex  1.008562e-001  3.198410e+000  0.000000e+000
      vertex -3.759788e+000  1.452116e+001  0.000000e+000
      vertex -2.271417e+000  1.482702e+001  0.000000e+000
    endloop
  endfacet
  facet normal  0.000000e+000  0.000000e+000 -1.000000e+000
    outer loop
      vertex  1.008562e-001  3.198410e+000  0.000000e+000
      vertex -2.271417e+000  1.482702e+001  0.000000e+000
      vertex -7.597376e-001  1.498075e+001  0.000000e+000
    endloop
  endfacet
  facet normal  0.000000e+000  0.000000e+000 -1.000000e+000
    outer loop
      vertex  1.008562e-001  3.198410e+000  0.000000e+000
      vertex -7.597376e-001  1.498075e+001  0.000000e+000
      vertex  7.597376e-001  1.498075e+001  0.000000e+000
    endloop
  endfacet
  facet normal  0.000000e+000  -0.000000e+000 -1.000000e+000
    outer loop
      vertex -1.492304e+001  1.517525e+000  0.000000e+000
      vertex -1.469295e+001  3.019478e+000  0.000000e+000
      vertex -1.270470e+000  2.936989e+000  0.000000e+000
    endloop
  endfacet
  facet normal  0.000000e+000  0.000000e+000 -9.999999e-001
    outer loop
      vertex -1.492304e+001  1.517525e+000  0.000000e+000
      vertex -1.270470e+000  2.936989e+000  0.000000e+000
      vertex -1.880518e+000  2.589142e+000  0.000000e+000
    endloop
  endfacet
  facet normal  0.000000e+000  0.000000e+000 -1.000000e+000
    outer loop
      vertex -1.492304e+001  1.517525e+000  0.000000e+000
      vertex -1.880518e+000  2.589142e+000  0.000000e+000
      vertex -2.400000e+000  2.116601e+000  0.000000e+000
    endloop
  endfacet
  facet normal  0.000000e+000  -0.000000e+000 -1.000000e+000
    outer loop
      vertex -1.492304e+001  1.517525e+000  0.000000e+000
      vertex -2.400000e+000  2.116601e+000  0.000000e+000
      vertex -2.400000e+000  0.000000e+000  0.000000e+000
    endloop
  endfacet
  facet normal  0.000000e+000  0.000000e+000 -1.000000e+000
    outer loop
      vertex -1.492304e+001  1.517525e+000  0.000000e+000
      vertex -2.400000e+000  0.000000e+000  0.000000e+000
      vertex -1.500000e+001  8.498248e-015  0.000000e+000
    endloop
  endfacet
  facet normal  0.000000e+000  0.000000e+000 -1.000000e+000
    outer loop
      vertex -1.469295e+001 -3.019478e+000  0.000000e+000
      vertex -1.492304e+001 -1.517525e+000  0.000000e+000
      vertex -2.400000e+000 -2.116601e+000  0.000000e+000
    endloop
  endfacet
  facet normal  0.000000e+000  -0.000000e+000 -9.999999e-001
    outer loop
      vertex -1.469295e+001 -3.019478e+000  0.000000e+000
      vertex -2.400000e+000 -2.116601e+000  0.000000e+000
      vertex -1.880518e+000 -2.589142e+000  0.000000e+000
    endloop
  endfacet
  facet normal  0.000000e+000  -0.000000e+000 -1.000000e+000
    outer loop
      vertex -1.469295e+001 -3.019478e+000  0.000000e+000
      vertex -1.880518e+000 -2.589142e+000  0.000000e+000
      vertex -1.270470e+000 -2.936989e+000  0.000000e+000
    endloop
  endfacet
  facet normal  0.000000e+000  -0.000000e+000 -1.000000e+000
    outer loop
      vertex -1.469295e+001 -3.019478e+000  0.000000e+000
      vertex -1.270470e+000 -2.936989e+000  0.000000e+000
      vertex -5.992363e-001 -3.143392e+000  0.000000e+000
    endloop
  endfacet
  facet normal  -0.000000e+000  0.000000e+000 -1.000000e+000
    outer loop
      vertex -1.469295e+001 -3.019478e+000  0.000000e+000
      vertex -5.992363e-001 -3.143392e+000  0.000000e+000
      vertex -1.431209e+001 -4.490447e+000  0.000000e+000
    endloop
  endfacet
  facet normal  0.000000e+000  0.000000e+000 -1.000000e+000
    outer loop
      vertex  2.271417e+000 -1.482702e+001  0.000000e+000
      vertex  7.597376e-001 -1.498075e+001  0.000000e+000
      vertex  7.960916e-001 -3.099393e+000  0.000000e+000
    endloop
  endfacet
  facet normal  0.000000e+000  0.000000e+000 -1.000000e+000
    outer loop
      vertex  7.960916e-001 -3.099393e+000  0.000000e+000
      vertex  7.597376e-001 -1.498075e+001  0.000000e+000
      vertex  1.008562e-001 -3.198410e+000  0.000000e+000
    endloop
  endfacet
  facet normal  0.000000e+000  0.000000e+000 -1.000000e+000
    outer loop
      vertex  7.597376e-001 -1.498075e+001  0.000000e+000
      vertex -7.597376e-001 -1.498075e+001  0.000000e+000
      vertex  1.008562e-001 -3.198410e+000  0.000000e+000
    endloop
  endfacet
  facet normal  0.000000e+000  0.000000e+000 -1.000000e+000
    outer loop
      vertex  1.008562e-001 -3.198410e+000  0.000000e+000
      vertex -7.597376e-001 -1.498075e+001  0.000000e+000
      vertex -1.431209e+001 -4.490447e+000  0.000000e+000
    endloop
  endfacet
  facet normal  0.000000e+000  0.000000e+000 -1.000000e+000
    outer loop
      vertex -1.492304e+001 -1.517525e+000  0.000000e+000
      vertex -1.500000e+001  8.498248e-015  0.000000e+000
      vertex -2.400000e+000 -2.116601e+000  0.000000e+000
    endloop
  endfacet
  facet normal  0.000000e+000  0.000000e+000 -1.000000e+000
    outer loop
      vertex -2.400000e+000 -2.116601e+000  0.000000e+000
      vertex -1.500000e+001  8.498248e-015  0.000000e+000
      vertex -2.400000e+000  0.000000e+000  0.000000e+000
    endloop
  endfacet
  facet normal  0.000000e+000  0.000000e+000 -1.000000e+000
    outer loop
      vertex  3.200000e+000 -7.837480e-016  0.000000e+000
      vertex  3.122944e+000  6.980107e-001  0.000000e+000
      vertex  1.500000e+001  0.000000e+000  0.000000e+000
    endloop
  endfacet
  facet normal  0.000000e+000  0.000000e+000 -1.000000e+000
    outer loop
      vertex  1.500000e+001  0.000000e+000  0.000000e+000
      vertex  3.122944e+000  6.980107e-001  0.000000e+000
      vertex  2.895488e+000  1.362405e+000  0.000000e+000
    endloop
  endfacet
  facet normal  0.000000e+000  0.000000e+000 -1.000000e+000
    outer loop
      vertex  1.500000e+001  0.000000e+000  0.000000e+000
      vertex  2.895488e+000  1.362405e+000  0.000000e+000
      vertex  1.492304e+001  1.517525e+000  0.000000e+000
    endloop
  endfacet
  facet normal  0.000000e+000  -0.000000e+000 -1.000000e+000
    outer loop
      vertex  2.895488e+000 -1.362405e+000  0.000000e+000
      vertex  3.122944e+000 -6.980107e-001  0.000000e+000
      vertex  1.492304e+001 -1.517525e+000  0.000000e+000
    endloop
  endfacet
  facet normal  0.000000e+000  0.000000e+000 -9.999999e-001
    outer loop
      vertex  1.492304e+001 -1.517525e+000  0.000000e+000
      vertex  3.122944e+000 -6.980107e-001  0.000000e+000
      vertex  3.200000e+000 -7.837480e-016  0.000000e+000
    endloop
  endfacet
  facet normal  0.000000e+000  0.000000e+000 -1.000000e+000
    outer loop
      vertex  1.492304e+001 -1.517525e+000  0.000000e+000
      vertex  3.200000e+000 -7.837480e-016  0.000000e+000
      vertex  1.500000e+001  0.000000e+000  0.000000e+000
    endloop
  endfacet
  facet normal  0.000000e+000  -0.000000e+000 -1.000000e+000
    outer loop
      vertex  2.039907e+000 -2.465518e+000  0.000000e+000
      vertex  2.528586e+000 -1.961187e+000  0.000000e+000
      vertex  1.469295e+001 -3.019478e+000  0.000000e+000
    endloop
  endfacet
  facet normal  0.000000e+000  0.000000e+000 -1.000000e+000
    outer loop
      vertex  1.469295e+001 -3.019478e+000  0.000000e+000
      vertex  2.528586e+000 -1.961187e+000  0.000000e+000
      vertex  2.895488e+000 -1.362405e+000  0.000000e+000
    endloop
  endfacet
  facet normal  0.000000e+000  0.000000e+000 -1.000000e+000
    outer loop
      vertex  1.469295e+001 -3.019478e+000  0.000000e+000
      vertex  2.895488e+000 -1.362405e+000  0.000000e+000
      vertex  1.492304e+001 -1.517525e+000  0.000000e+000
    endloop
  endfacet
  facet normal  -0.000000e+000  0.000000e+000  1.000000e+000
    outer loop
      vertex -5.992363e-001  3.143392e+000  5.000000e+000
      vertex -1.469295e+001  3.019478e+000  5.000000e+000
      vertex -1.270470e+000  2.936989e+000  5.000000e+000
    endloop
  endfacet
  facet normal  0.000000e+000  0.000000e+000  1.000000e+000
    outer loop
      vertex -1.431209e+001 -4.490447e+000  5.000000e+000
      vertex  1.008562e-001 -3.198410e+000  5.000000e+000
      vertex -5.992363e-001 -3.143392e+000  5.000000e+000
    endloop
  endfacet
  facet normal  0.000000e+000  0.000000e+000  1.000000e+000
    outer loop
      vertex  1.492304e+001  1.517525e+000  5.000000e+000
      vertex  1.452987e+000  2.851110e+000  5.000000e+000
      vertex  2.039907e+000  2.465518e+000  5.000000e+000
    endloop
  endfacet
  facet normal  0.000000e+000  0.000000e+000  9.999999e-001
    outer loop
      vertex  1.492304e+001  1.517525e+000  5.000000e+000
      vertex  2.039907e+000  2.465518e+000  5.000000e+000
      vertex  2.528586e+000  1.961187e+000  5.000000e+000
    endloop
  endfacet
  facet normal  0.000000e+000  -0.000000e+000  1.000000e+000
    outer loop
      vertex  2.528586e+000  1.961187e+000  5.000000e+000
      vertex  2.895488e+000  1.362405e+000  5.000000e+000
      vertex  1.492304e+001  1.517525e+000  5.000000e+000
    endloop
  endfacet
  facet normal  0.000000e+000  0.000000e+000  1.000000e+000
    outer loop
      vertex  1.469295e+001 -3.019478e+000  5.000000e+000
      vertex  2.039907e+000 -2.465518e+000  5.000000e+000
      vertex  1.452987e+000 -2.851110e+000  5.000000e+000
    endloop
  endfacet
  facet normal  -0.000000e+000  -0.000000e+000  9.999999e-001
    outer loop
      vertex -1.431209e+001 -4.490447e+000  5.000000e+000
      vertex -1.378437e+001 -5.915338e+000  5.000000e+000
      vertex -1.311520e+001 -7.279530e+000  5.000000e+000
    endloop
  endfacet
  facet normal  -0.000000e+000  -0.000000e+000  1.000000e+000
    outer loop
      vertex -1.431209e+001 -4.490447e+000  5.000000e+000
      vertex -1.311520e+001 -7.279530e+000  5.000000e+000
      vertex -1.231145e+001 -8.569023e+000  5.000000e+000
    endloop
  endfacet
  facet normal  -0.000000e+000  -0.000000e+000  9.999999e-001
    outer loop
      vertex -1.431209e+001 -4.490447e+000  5.000000e+000
      vertex -1.231145e+001 -8.569023e+000  5.000000e+000
      vertex -1.138137e+001 -9.770587e+000  5.000000e+000
    endloop
  endfacet
  facet normal  -0.000000e+000  -0.000000e+000  1.000000e+000
    outer loop
      vertex -1.431209e+001 -4.490447e+000  5.000000e+000
      vertex -1.138137e+001 -9.770587e+000  5.000000e+000
      vertex -1.033450e+001 -1.087189e+001  5.000000e+000
    endloop
  endfacet
  facet normal  -0.000000e+000  -0.000000e+000  1.000000e+000
    outer loop
      vertex -1.431209e+001 -4.490447e+000  5.000000e+000
      vertex -1.033450e+001 -1.087189e+001  5.000000e+000
      vertex -9.181590e+000 -1.186164e+001  5.000000e+000
    endloop
  endfacet
  facet normal  -0.000000e+000  -0.000000e+000  1.000000e+000
    outer loop
      vertex -1.431209e+001 -4.490447e+000  5.000000e+000
      vertex -9.181590e+000 -1.186164e+001  5.000000e+000
      vertex -7.934460e+000 -1.272966e+001  5.000000e+000
    endloop
  endfacet
  facet normal  -0.000000e+000  -0.000000e+000  1.000000e+000
    outer loop
      vertex -1.431209e+001 -4.490447e+000  5.000000e+000
      vertex -7.934460e+000 -1.272966e+001  5.000000e+000
      vertex -6.605912e+000 -1.346707e+001  5.000000e+000
    endloop
  endfacet
  facet normal  -0.000000e+000  -0.000000e+000  1.000000e+000
    outer loop
      vertex -1.431209e+001 -4.490447e+000  5.000000e+000
      vertex -6.605912e+000 -1.346707e+001  5.000000e+000
      vertex -5.209579e+000 -1.406628e+001  5.000000e+000
    endloop
  endfacet
  facet normal  -0.000000e+000  -0.000000e+000  1.000000e+000
    outer loop
      vertex -1.431209e+001 -4.490447e+000  5.000000e+000
      vertex -5.209579e+000 -1.406628e+001  5.000000e+000
      vertex -3.759788e+000 -1.452116e+001  5.000000e+000
    endloop
  endfacet
  facet normal  -0.000000e+000  -0.000000e+000  1.000000e+000
    outer loop
      vertex -1.431209e+001 -4.490447e+000  5.000000e+000
      vertex -3.759788e+000 -1.452116e+001  5.000000e+000
      vertex -2.271417e+000 -1.482702e+001  5.000000e+000
    endloop
  endfacet
  facet normal  -0.000000e+000  -0.000000e+000  1.000000e+000
    outer loop
      vertex -1.431209e+001 -4.490447e+000  5.000000e+000
      vertex -2.271417e+000 -1.482702e+001  5.000000e+000
      vertex -7.597376e-001 -1.498075e+001  5.000000e+000
    endloop
  endfacet
  facet normal  0.000000e+000  -0.000000e+000  1.000000e+000
    outer loop
      vertex  7.960916e-001 -3.099393e+000  5.000000e+000
      vertex  2.271417e+000 -1.482702e+001  5.000000e+000
      vertex  3.759788e+000 -1.452116e+001  5.000000e+000
    endloop
  endfacet
  facet normal  0.000000e+000  -0.000000e+000  1.000000e+000
    outer loop
      vertex  7.960916e-001 -3.099393e+000  5.000000e+000
      vertex  3.759788e+000 -1.452116e+001  5.000000e+000
      vertex  5.209579e+000 -1.406628e+001  5.000000e+000
    endloop
  endfacet
  facet normal  0.000000e+000  -0.000000e+000  1.000000e+000
    outer loop
      vertex  7.960916e-001 -3.099393e+000  5.000000e+000
      vertex  5.209579e+000 -1.406628e+001  5.000000e+000
      vertex  6.605912e+000 -1.346707e+001  5.000000e+000
    endloop
  endfacet
  facet normal  0.000000e+000  -0.000000e+000  9.999999e-001
    outer loop
      vertex  7.960916e-001 -3.099393e+000  5.000000e+000
      vertex  6.605912e+000 -1.346707e+001  5.000000e+000
      vertex  7.934460e+000 -1.272966e+001  5.000000e+000
    endloop
  endfacet
  facet normal  0.000000e+000  -0.000000e+000  1.000000e+000
    outer loop
      vertex  7.960916e-001 -3.099393e+000  5.000000e+000
      vertex  7.934460e+000 -1.272966e+001  5.000000e+000
      vertex  9.181590e+000 -1.186164e+001  5.000000e+000
    endloop
  endfacet
  facet normal  0.000000e+000  -0.000000e+000  1.000000e+000
    outer loop
      vertex  7.960916e-001 -3.099393e+000  5.000000e+000
      vertex  9.181590e+000 -1.186164e+001  5.000000e+000
      vertex  1.033450e+001 -1.087189e+001  5.000000e+000
    endloop
  endfacet
  facet normal  0.000000e+000  -0.000000e+000  1.000000e+000
    outer loop
      vertex  7.960916e-001 -3.099393e+000  5.000000e+000
      vertex  1.033450e+001 -1.087189e+001  5.000000e+000
      vertex  1.138137e+001 -9.770587e+000  5.000000e+000
    endloop
  endfacet
  facet normal  0.000000e+000  -0.000000e+000  1.000000e+000
    outer loop
      vertex  7.960916e-001 -3.099393e+000  5.000000e+000
      vertex  1.138137e+001 -9.770587e+000  5.000000e+000
      vertex  1.231145e+001 -8.569023e+000  5.000000e+000
    endloop
  endfacet
  facet normal  0.000000e+000  -0.000000e+000  1.000000e+000
    outer loop
      vertex  7.960916e-001 -3.099393e+000  5.000000e+000
      vertex  1.231145e+001 -8.569023e+000  5.000000e+000
      vertex  1.311520e+001 -7.279530e+000  5.000000e+000
    endloop
  endfacet
  facet normal  0.000000e+000  -0.000000e+000  1.000000e+000
    outer loop
      vertex  7.960916e-001 -3.099393e+000  5.000000e+000
      vertex  1.311520e+001 -7.279530e+000  5.000000e+000
      vertex  1.378437e+001 -5.915338e+000  5.000000e+000
    endloop
  endfacet
  facet normal  0.000000e+000  -0.000000e+000  1.000000e+000
    outer loop
      vertex  7.960916e-001 -3.099393e+000  5.000000e+000
      vertex  1.378437e+001 -5.915338e+000  5.000000e+000
      vertex  1.431209e+001 -4.490447e+000  5.000000e+000
    endloop
  endfacet
  facet normal  0.000000e+000  -0.000000e+000  1.000000e+000
    outer loop
      vertex  7.960916e-001 -3.099393e+000  5.000000e+000
      vertex  1.431209e+001 -4.490447e+000  5.000000e+000
      vertex  1.469295e+001 -3.019478e+000  5.000000e+000
    endloop
  endfacet
  facet normal  0.000000e+000  0.000000e+000  9.999999e-001
    outer loop
      vertex  7.960916e-001 -3.099393e+000  5.000000e+000
      vertex  1.469295e+001 -3.019478e+000  5.000000e+000
      vertex  1.452987e+000 -2.851110e+000  5.000000e+000
    endloop
  endfacet
  facet normal  -0.000000e+000  -0.000000e+000  1.000000e+000
    outer loop
      vertex  7.960916e-001  3.099393e+000  5.000000e+000
      vertex  1.452987e+000  2.851110e+000  5.000000e+000
      vertex  1.492304e+001  1.517525e+000  5.000000e+000
    endloop
  endfacet
  facet normal  0.000000e+000  0.000000e+000  1.000000e+000
    outer loop
      vertex  7.960916e-001  3.099393e+000  5.000000e+000
      vertex  1.492304e+001  1.517525e+000  5.000000e+000
      vertex  1.469295e+001  3.019478e+000  5.000000e+000
    endloop
  endfacet
  facet normal  0.000000e+000  0.000000e+000  1.000000e+000
    outer loop
      vertex  7.960916e-001  3.099393e+000  5.000000e+000
      vertex  1.469295e+001  3.019478e+000  5.000000e+000
      vertex  1.431209e+001  4.490447e+000  5.000000e+000
    endloop
  endfacet
  facet normal  0.000000e+000  0.000000e+000  1.000000e+000
    outer loop
      vertex  7.960916e-001  3.099393e+000  5.000000e+000
      vertex  1.431209e+001  4.490447e+000  5.000000e+000
      vertex  1.378437e+001  5.915338e+000  5.000000e+000
    endloop
  endfacet
  facet normal  0.000000e+000  0.000000e+000  1.000000e+000
    outer loop
      vertex  7.960916e-001  3.099393e+000  5.000000e+000
      vertex  1.378437e+001  5.915338e+000  5.000000e+000
      vertex  1.311520e+001  7.279530e+000  5.000000e+000
    endloop
  endfacet
  facet normal  0.000000e+000  0.000000e+000  1.000000e+000
    outer loop
      vertex  7.960916e-001  3.099393e+000  5.000000e+000
      vertex  1.311520e+001  7.279530e+000  5.000000e+000
      vertex  1.231145e+001  8.569023e+000  5.000000e+000
    endloop
  endfacet
  facet normal  0.000000e+000  0.000000e+000  1.000000e+000
    outer loop
      vertex  7.960916e-001  3.099393e+000  5.000000e+000
      vertex  1.231145e+001  8.569023e+000  5.000000e+000
      vertex  1.138137e+001  9.770587e+000  5.000000e+000
    endloop
  endfacet
  facet normal  0.000000e+000  0.000000e+000  1.000000e+000
    outer loop
      vertex  7.960916e-001  3.099393e+000  5.000000e+000
      vertex  1.138137e+001  9.770587e+000  5.000000e+000
      vertex  1.033450e+001  1.087189e+001  5.000000e+000
    endloop
  endfacet
  facet normal  0.000000e+000  0.000000e+000  1.000000e+000
    outer loop
      vertex  7.960916e-001  3.099393e+000  5.000000e+000
      vertex  1.033450e+001  1.087189e+001  5.000000e+000
      vertex  9.181590e+000  1.186164e+001  5.000000e+000
    endloop
  endfacet
  facet normal  0.000000e+000  0.000000e+000  1.000000e+000
    outer loop
      vertex  7.960916e-001  3.099393e+000  5.000000e+000
      vertex  9.181590e+000  1.186164e+001  5.000000e+000
      vertex  7.934460e+000  1.272966e+001  5.000000e+000
    endloop
  endfacet
  facet normal  0.000000e+000  0.000000e+000  9.999999e-001
    outer loop
      vertex  7.960916e-001  3.099393e+000  5.000000e+000
      vertex  7.934460e+000  1.272966e+001  5.000000e+000
      vertex  6.605912e+000  1.346707e+001  5.000000e+000
    endloop
  endfacet
  facet normal  0.000000e+000  0.000000e+000  1.000000e+000
    outer loop
      vertex  7.960916e-001  3.099393e+000  5.000000e+000
      vertex  6.605912e+000  1.346707e+001  5.000000e+000
      vertex  5.209579e+000  1.406628e+001  5.000000e+000
    endloop
  endfacet
  facet normal  0.000000e+000  0.000000e+000  1.000000e+000
    outer loop
      vertex  7.960916e-001  3.099393e+000  5.000000e+000
      vertex  5.209579e+000  1.406628e+001  5.000000e+000
      vertex  3.759788e+000  1.452116e+001  5.000000e+000
    endloop
  endfacet
  facet normal  0.000000e+000  0.000000e+000  1.000000e+000
    outer loop
      vertex  7.960916e-001  3.099393e+000  5.000000e+000
      vertex  3.759788e+000  1.452116e+001  5.000000e+000
      vertex  2.271417e+000  1.482702e+001  5.000000e+000
    endloop
  endfacet
  facet normal  0.000000e+000  0.000000e+000  1.000000e+000
    outer loop
      vertex  7.960916e-001  3.099393e+000  5.000000e+000
      vertex  2.271417e+000  1.482702e+001  5.000000e+000
      vertex  7.597376e-001  1.498075e+001  5.000000e+000
    endloop
  endfacet
  facet normal  0.000000e+000  0.000000e+000  1.000000e+000
    outer loop
      vertex  7.960916e-001  3.099393e+000  5.000000e+000
      vertex  7.597376e-001  1.498075e+001  5.000000e+000
      vertex  1.008562e-001  3.198410e+000  5.000000e+000
    endloop
  endfacet
  facet normal  0.000000e+000  0.000000e+000  1.000000e+000
    outer loop
      vertex  1.008562e-001  3.198410e+000  5.000000e+000
      vertex  7.597376e-001  1.498075e+001  5.000000e+000
      vertex -7.597376e-001  1.498075e+001  5.000000e+000
    endloop
  endfacet
  facet normal  0.000000e+000  0.000000e+000  1.000000e+000
    outer loop
      vertex  1.008562e-001  3.198410e+000  5.000000e+000
      vertex -7.597376e-001  1.498075e+001  5.000000e+000
      vertex -2.271417e+000  1.482702e+001  5.000000e+000
    endloop
  endfacet
  facet normal  0.000000e+000  0.000000e+000  1.000000e+000
    outer loop
      vertex  1.008562e-001  3.198410e+000  5.000000e+000
      vertex -2.271417e+000  1.482702e+001  5.000000e+000
      vertex -3.759788e+000  1.452116e+001  5.000000e+000
    endloop
  endfacet
  facet normal  0.000000e+000  0.000000e+000  1.000000e+000
    outer loop
      vertex  1.008562e-001  3.198410e+000  5.000000e+000
      vertex -3.759788e+000  1.452116e+001  5.000000e+000
      vertex -5.209579e+000  1.406628e+001  5.000000e+000
    endloop
  endfacet
  facet normal  0.000000e+000  0.000000e+000  9.999999e-001
    outer loop
      vertex  1.008562e-001  3.198410e+000  5.000000e+000
      vertex -5.209579e+000  1.406628e+001  5.000000e+000
      vertex -6.605912e+000  1.346707e+001  5.000000e+000
    endloop
  endfacet
  facet normal  0.000000e+000  0.000000e+000  1.000000e+000
    outer loop
      vertex  1.008562e-001  3.198410e+000  5.000000e+000
      vertex -6.605912e+000  1.346707e+001  5.000000e+000
      vertex -7.934460e+000  1.272966e+001  5.000000e+000
    endloop
  endfacet
  facet normal  0.000000e+000  0.000000e+000  1.000000e+000
    outer loop
      vertex  1.008562e-001  3.198410e+000  5.000000e+000
      vertex -7.934460e+000  1.272966e+001  5.000000e+000
      vertex -9.181590e+000  1.186164e+001  5.000000e+000
    endloop
  endfacet
  facet normal  0.000000e+000  0.000000e+000  9.999999e-001
    outer loop
      vertex  1.008562e-001  3.198410e+000  5.000000e+000
      vertex -9.181590e+000  1.186164e+001  5.000000e+000
      vertex -1.033450e+001  1.087189e+001  5.000000e+000
    endloop
  endfacet
  facet normal  0.000000e+000  0.000000e+000  1.000000e+000
    outer loop
      vertex  1.008562e-001  3.198410e+000  5.000000e+000
      vertex -1.033450e+001  1.087189e+001  5.000000e+000
      vertex -1.138137e+001  9.770587e+000  5.000000e+000
    endloop
  endfacet
  facet normal  0.000000e+000  0.000000e+000  1.000000e+000
    outer loop
      vertex  1.008562e-001  3.198410e+000  5.000000e+000
      vertex -1.138137e+001  9.770587e+000  5.000000e+000
      vertex -1.231145e+001  8.569023e+000  5.000000e+000
    endloop
  endfacet
  facet normal  0.000000e+000  0.000000e+000  1.000000e+000
    outer loop
      vertex  1.008562e-001  3.198410e+000  5.000000e+000
      vertex -1.231145e+001  8.569023e+000  5.000000e+000
      vertex -1.311520e+001  7.279530e+000  5.000000e+000
    endloop
  endfacet
  facet normal  0.000000e+000  0.000000e+000  9.999999e-001
    outer loop
      vertex  1.008562e-001  3.198410e+000  5.000000e+000
      vertex -1.311520e+001  7.279530e+000  5.000000e+000
      vertex -1.378437e+001  5.915338e+000  5.000000e+000
    endloop
  endfacet
  facet normal  0.000000e+000  0.000000e+000  1.000000e+000
    outer loop
      vertex  1.008562e-001  3.198410e+000  5.000000e+000
      vertex -1.378437e+001  5.915338e+000  5.000000e+000
      vertex -1.431209e+001  4.490447e+000  5.000000e+000
    endloop
  endfacet
  facet normal  0.000000e+000  0.000000e+000  1.000000e+000
    outer loop
      vertex  1.008562e-001  3.198410e+000  5.000000e+000
      vertex -1.431209e+001  4.490447e+000  5.000000e+000
      vertex -1.469295e+001  3.019478e+000  5.000000e+000
    endloop
  endfacet
  facet normal  0.000000e+000  0.000000e+000  9.999999e-001
    outer loop
      vertex  1.008562e-001  3.198410e+000  5.000000e+000
      vertex -1.469295e+001  3.019478e+000  5.000000e+000
      vertex -5.992363e-001  3.143392e+000  5.000000e+000
    endloop
  endfacet
  facet normal  -0.000000e+000  0.000000e+000  1.000000e+000
    outer loop
      vertex -1.492304e+001  1.517525e+000  5.000000e+000
      vertex -1.500000e+001  8.498248e-015  5.000000e+000
      vertex -2.400000e+000  0.000000e+000  5.000000e+000
    endloop
  endfacet
  facet normal  0.000000e+000  -0.000000e+000  1.000000e+000
    outer loop
      vertex -1.492304e+001  1.517525e+000  5.000000e+000
      vertex -2.400000e+000  0.000000e+000  5.000000e+000
      vertex -2.400000e+000  2.116601e+000  5.000000e+000
    endloop
  endfacet
  facet normal  0.000000e+000  -0.000000e+000  1.000000e+000
    outer loop
      vertex -1.492304e+001  1.517525e+000  5.000000e+000
      vertex -2.400000e+000  2.116601e+000  5.000000e+000
      vertex -1.880518e+000  2.589142e+000  5.000000e+000
    endloop
  endfacet
  facet normal  0.000000e+000  -0.000000e+000  9.999999e-001
    outer loop
      vertex -1.492304e+001  1.517525e+000  5.000000e+000
      vertex -1.880518e+000  2.589142e+000  5.000000e+000
      vertex -1.270470e+000  2.936989e+000  5.000000e+000
    endloop
  endfacet
  facet normal  0.000000e+000  0.000000e+000  1.000000e+000
    outer loop
      vertex -1.492304e+001  1.517525e+000  5.000000e+000
      vertex -1.270470e+000  2.936989e+000  5.000000e+000
      vertex -1.469295e+001  3.019478e+000  5.000000e+000
    endloop
  endfacet
  facet normal  0.000000e+000  -0.000000e+000  1.000000e+000
    outer loop
      vertex -1.469295e+001 -3.019478e+000  5.000000e+000
      vertex -1.431209e+001 -4.490447e+000  5.000000e+000
      vertex -5.992363e-001 -3.143392e+000  5.000000e+000
    endloop
  endfacet
  facet normal  0.000000e+000  0.000000e+000  1.000000e+000
    outer loop
      vertex -1.469295e+001 -3.019478e+000  5.000000e+000
      vertex -5.992363e-001 -3.143392e+000  5.000000e+000
      vertex -1.270470e+000 -2.936989e+000  5.000000e+000
    endloop
  endfacet
  facet normal  0.000000e+000  0.000000e+000  1.000000e+000
    outer loop
      vertex -1.469295e+001 -3.019478e+000  5.000000e+000
      vertex -1.270470e+000 -2.936989e+000  5.000000e+000
      vertex -1.880518e+000 -2.589142e+000  5.000000e+000
    endloop
  endfacet
  facet normal  0.000000e+000  0.000000e+000  1.000000e+000
    outer loop
      vertex -1.469295e+001 -3.019478e+000  5.000000e+000
      vertex -1.880518e+000 -2.589142e+000  5.000000e+000
      vertex -2.400000e+000 -2.116601e+000  5.000000e+000
    endloop
  endfacet
  facet normal  0.000000e+000  0.000000e+000  1.000000e+000
    outer loop
      vertex -1.469295e+001 -3.019478e+000  5.000000e+000
      vertex -2.400000e+000 -2.116601e+000  5.000000e+000
      vertex -1.492304e+001 -1.517525e+000  5.000000e+000
    endloop
  endfacet
  facet normal  0.000000e+000  0.000000e+000  1.000000e+000
    outer loop
      vertex  2.271417e+000 -1.482702e+001  5.000000e+000
      vertex  7.960916e-001 -3.099393e+000  5.000000e+000
      vertex  7.597376e-001 -1.498075e+001  5.000000e+000
    endloop
  endfacet
  facet normal  0.000000e+000  -0.000000e+000  1.000000e+000
    outer loop
      vertex  7.597376e-001 -1.498075e+001  5.000000e+000
      vertex  7.960916e-001 -3.099393e+000  5.000000e+000
      vertex  1.008562e-001 -3.198410e+000  5.000000e+000
    endloop
  endfacet
  facet normal  0.000000e+000  0.000000e+000  1.000000e+000
    outer loop
      vertex  7.597376e-001 -1.498075e+001  5.000000e+000
      vertex  1.008562e-001 -3.198410e+000  5.000000e+000
      vertex -7.597376e-001 -1.498075e+001  5.000000e+000
    endloop
  endfacet
  facet normal  0.000000e+000  -0.000000e+000  1.000000e+000
    outer loop
      vertex -7.597376e-001 -1.498075e+001  5.000000e+000
      vertex  1.008562e-001 -3.198410e+000  5.000000e+000
      vertex -1.431209e+001 -4.490447e+000  5.000000e+000
    endloop
  endfacet
  facet normal  0.000000e+000  0.000000e+000  1.000000e+000
    outer loop
      vertex -1.492304e+001 -1.517525e+000  5.000000e+000
      vertex -2.400000e+000 -2.116601e+000  5.000000e+000
      vertex -1.500000e+001  8.498248e-015  5.000000e+000
    endloop
  endfacet
  facet normal  0.000000e+000  0.000000e+000  1.000000e+000
    outer loop
      vertex -1.500000e+001  8.498248e-015  5.000000e+000
      vertex -2.400000e+000 -2.116601e+000  5.000000e+000
      vertex -2.400000e+000  0.000000e+000  5.000000e+000
    endloop
  endfacet
  facet normal  -0.000000e+000  0.000000e+000  1.000000e+000
    outer loop
      vertex  1.492304e+001  1.517525e+000  5.000000e+000
      vertex  2.895488e+000  1.362405e+000  5.000000e+000
      vertex  1.500000e+001  0.000000e+000  5.000000e+000
    endloop
  endfacet
  facet normal  0.000000e+000  0.000000e+000  1.000000e+000
    outer loop
      vertex  1.500000e+001  0.000000e+000  5.000000e+000
      vertex  2.895488e+000  1.362405e+000  5.000000e+000
      vertex  3.122944e+000  6.980107e-001  5.000000e+000
    endloop
  endfacet
  facet normal  0.000000e+000  0.000000e+000  1.000000e+000
    outer loop
      vertex  1.500000e+001  0.000000e+000  5.000000e+000
      vertex  3.122944e+000  6.980107e-001  5.000000e+000
      vertex  3.200000e+000 -7.837480e-016  5.000000e+000
    endloop
  endfacet
  facet normal  -0.000000e+000  0.000000e+000  1.000000e+000
    outer loop
      vertex  1.500000e+001  0.000000e+000  5.000000e+000
      vertex  3.200000e+000 -7.837480e-016  5.000000e+000
      vertex  1.492304e+001 -1.517525e+000  5.000000e+000
    endloop
  endfacet
  facet normal  0.000000e+000  0.000000e+000  9.999999e-001
    outer loop
      vertex  1.492304e+001 -1.517525e+000  5.000000e+000
      vertex  3.200000e+000 -7.837480e-016  5.000000e+000
      vertex  3.122944e+000 -6.980107e-001  5.000000e+000
    endloop
  endfacet
  facet normal  0.000000e+000  0.000000e+000  1.000000e+000
    outer loop
      vertex  1.492304e+001 -1.517525e+000  5.000000e+000
      vertex  3.122944e+000 -6.980107e-001  5.000000e+000
      vertex  2.895488e+000 -1.362405e+000  5.000000e+000
    endloop
  endfacet
  facet normal  0.000000e+000  0.000000e+000  1.000000e+000
    outer loop
      vertex  1.492304e+001 -1.517525e+000  5.000000e+000
      vertex  2.895488e+000 -1.362405e+000  5.000000e+000
      vertex  1.469295e+001 -3.019478e+000  5.000000e+000
    endloop
  endfacet
  facet normal  0.000000e+000  0.000000e+000  1.000000e+000
    outer loop
      vertex  1.469295e+001 -3.019478e+000  5.000000e+000
      vertex  2.895488e+000 -1.362405e+000  5.000000e+000
      vertex  2.528586e+000 -1.961187e+000  5.000000e+000
    endloop
  endfacet
  facet normal  0.000000e+000  0.000000e+000  1.000000e+000
    outer loop
      vertex  1.469295e+001 -3.019478e+000  5.000000e+000
      vertex  2.528586e+000 -1.961187e+000  5.000000e+000
      vertex  2.039907e+000 -2.465518e+000  5.000000e+000
    endloop
  endfacet
  facet normal -9.939618e-001 -1.097267e-001  -0.000000e+000
    outer loop
      vertex  3.200000e+000 -7.837480e-016  0.000000e+000
      vertex  3.122944e+000  6.980107e-001  5.000000e+000
      vertex  3.122944e+000  6.980107e-001  0.000000e+000
    endloop
  endfacet
  facet normal -9.460928e-001 -3.238957e-001  0.000000e+000
    outer loop
      vertex  3.122944e+000  6.980107e-001  0.000000e+000
      vertex  3.122944e+000  6.980107e-001  5.000000e+000
      vertex  2.895488e+000  1.362405e+000  5.000000e+000
    endloop
  endfacet
  facet normal -9.460928e-001 -3.238957e-001  -0.000000e+000
    outer loop
      vertex  3.122944e+000  6.980107e-001  0.000000e+000
      vertex  2.895488e+000  1.362405e+000  5.000000e+000
      vertex  2.895488e+000  1.362405e+000  0.000000e+000
    endloop
  endfacet
  facet normal -8.526601e-001 -5.224661e-001  0.000000e+000
    outer loop
      vertex  2.895488e+000  1.362405e+000  0.000000e+000
      vertex  2.895488e+000  1.362405e+000  5.000000e+000
      vertex  2.528586e+000  1.961187e+000  5.000000e+000
    endloop
  endfacet
  facet normal -8.526601e-001 -5.224661e-001  -0.000000e+000
    outer loop
      vertex  2.895488e+000  1.362405e+000  0.000000e+000
      vertex  2.528586e+000  1.961187e+000  5.000000e+000
      vertex  2.528586e+000  1.961187e+000  0.000000e+000
    endloop
  endfacet
  facet normal -7.181634e-001 -6.958746e-001  0.000000e+000
    outer loop
      vertex  2.528586e+000  1.961187e+000  0.000000e+000
      vertex  2.528586e+000  1.961187e+000  5.000000e+000
      vertex  2.039907e+000  2.465518e+000  5.000000e+000
    endloop
  endfacet
  facet normal -7.181634e-001 -6.958746e-001  -0.000000e+000
    outer loop
      vertex  2.528586e+000  1.961187e+000  0.000000e+000
      vertex  2.039907e+000  2.465518e+000  5.000000e+000
      vertex  2.039907e+000  2.465518e+000  0.000000e+000
    endloop
  endfacet
  facet normal -5.490803e-001 -8.357695e-001  0.000000e+000
    outer loop
      vertex  2.039907e+000  2.465518e+000  0.000000e+000
      vertex  2.039907e+000  2.465518e+000  5.000000e+000
      vertex  1.452987e+000  2.851110e+000  5.000000e+000
    endloop
  endfacet
  facet normal -5.490803e-001 -8.357695e-001  -0.000000e+000
    outer loop
      vertex  2.039907e+000  2.465518e+000  0.000000e+000
      vertex  1.452987e+000  2.851110e+000  5.000000e+000
      vertex  1.452987e+000  2.851110e+000  0.000000e+000
    endloop
  endfacet
  facet normal -3.535533e-001 -9.354144e-001  0.000000e+000
    outer loop
      vertex  1.452987e+000  2.851110e+000  0.000000e+000
      vertex  1.452987e+000  2.851110e+000  5.000000e+000
      vertex  7.960916e-001  3.099393e+000  5.000000e+000
    endloop
  endfacet
  facet normal -3.535533e-001 -9.354144e-001  -0.000000e+000
    outer loop
      vertex  1.452987e+000  2.851110e+000  0.000000e+000
      vertex  7.960916e-001  3.099393e+000  5.000000e+000
      vertex  7.960916e-001  3.099393e+000  0.000000e+000
    endloop
  endfacet
  facet normal -1.409996e-001 -9.900097e-001  0.000000e+000
    outer loop
      vertex  7.960916e-001  3.099393e+000  0.000000e+000
      vertex  7.960916e-001  3.099393e+000  5.000000e+000
      vertex  1.008562e-001  3.198410e+000  5.000000e+000
    endloop
  endfacet
  facet normal -1.409996e-001 -9.900097e-001  -0.000000e+000
    outer loop
      vertex  7.960916e-001  3.099393e+000  0.000000e+000
      vertex  1.008562e-001  3.198410e+000  5.000000e+000
      vertex  1.008562e-001  3.198410e+000  0.000000e+000
    endloop
  endfacet
  facet normal  7.834513e-002 -9.969264e-001  0.000000e+000
    outer loop
      vertex  1.008562e-001  3.198410e+000  0.000000e+000
      vertex  1.008562e-001  3.198410e+000  5.000000e+000
      vertex -5.992363e-001  3.143392e+000  5.000000e+000
    endloop
  endfacet
  facet normal  7.834513e-002 -9.969264e-001  0.000000e+000
    outer loop
      vertex  1.008562e-001  3.198410e+000  0.000000e+000
      vertex -5.992363e-001  3.143392e+000  5.000000e+000
      vertex -5.992363e-001  3.143392e+000  0.000000e+000
    endloop
  endfacet
  facet normal  2.939163e-001 -9.558312e-001  0.000000e+000
    outer loop
      vertex -5.992363e-001  3.143392e+000  0.000000e+000
      vertex -5.992363e-001  3.143392e+000  5.000000e+000
      vertex -1.270470e+000  2.936989e+000  5.000000e+000
    endloop
  endfacet
  facet normal  2.939163e-001 -9.558312e-001  0.000000e+000
    outer loop
      vertex -5.992363e-001  3.143392e+000  0.000000e+000
      vertex -1.270470e+000  2.936989e+000  5.000000e+000
      vertex -1.270470e+000  2.936989e+000  0.000000e+000
    endloop
  endfacet
  facet normal  4.953324e-001 -8.687035e-001  0.000000e+000
    outer loop
      vertex -1.270470e+000  2.936989e+000  0.000000e+000
      vertex -1.270470e+000  2.936989e+000  5.000000e+000
      vertex -1.880518e+000  2.589142e+000  5.000000e+000
    endloop
  endfacet
  facet normal  4.953324e-001 -8.687035e-001  0.000000e+000
    outer loop
      vertex -1.270470e+000  2.936989e+000  0.000000e+000
      vertex -1.880518e+000  2.589142e+000  5.000000e+000
      vertex -1.880518e+000  2.589142e+000  0.000000e+000
    endloop
  endfacet
  facet normal  6.728940e-001 -7.397389e-001  0.000000e+000
    outer loop
      vertex -1.880518e+000  2.589142e+000  0.000000e+000
      vertex -1.880518e+000  2.589142e+000  5.000000e+000
      vertex -2.400000e+000  2.116601e+000  5.000000e+000
    endloop
  endfacet
  facet normal  6.728940e-001 -7.397389e-001  0.000000e+000
    outer loop
      vertex -1.880518e+000  2.589142e+000  0.000000e+000
      vertex -2.400000e+000  2.116601e+000  5.000000e+000
      vertex -2.400000e+000  2.116601e+000  0.000000e+000
    endloop
  endfacet
  facet normal -9.939618e-001 -1.097267e-001  0.000000e+000
    outer loop
      vertex  3.122944e+000  6.980107e-001  5.000000e+000
      vertex  3.200000e+000 -7.837480e-016  0.000000e+000
      vertex  3.200000e+000 -7.837480e-016  5.000000e+000
    endloop
  endfacet
  facet normal -9.939618e-001  1.097267e-001  0.000000e+000
    outer loop
      vertex  3.200000e+000 -7.837480e-016  5.000000e+000
      vertex  3.200000e+000 -7.837480e-016  0.000000e+000
      vertex  3.122944e+000 -6.980107e-001  0.000000e+000
    endloop
  endfacet
  facet normal -9.939618e-001  1.097267e-001  0.000000e+000
    outer loop
      vertex  3.200000e+000 -7.837480e-016  5.000000e+000
      vertex  3.122944e+000 -6.980107e-001  0.000000e+000
      vertex  3.122944e+000 -6.980107e-001  5.000000e+000
    endloop
  endfacet
  facet normal -9.460928e-001  3.238957e-001  0.000000e+000
    outer loop
      vertex  3.122944e+000 -6.980107e-001  5.000000e+000
      vertex  3.122944e+000 -6.980107e-001  0.000000e+000
      vertex  2.895488e+000 -1.362405e+000  0.000000e+000
    endloop
  endfacet
  facet normal -9.460928e-001  3.238957e-001  0.000000e+000
    outer loop
      vertex  3.122944e+000 -6.980107e-001  5.000000e+000
      vertex  2.895488e+000 -1.362405e+000  0.000000e+000
      vertex  2.895488e+000 -1.362405e+000  5.000000e+000
    endloop
  endfacet
  facet normal -8.526601e-001  5.224661e-001  0.000000e+000
    outer loop
      vertex  2.895488e+000 -1.362405e+000  5.000000e+000
      vertex  2.895488e+000 -1.362405e+000  0.000000e+000
      vertex  2.528586e+000 -1.961187e+000  0.000000e+000
    endloop
  endfacet
  facet normal -8.526601e-001  5.224661e-001  0.000000e+000
    outer loop
      vertex  2.895488e+000 -1.362405e+000  5.000000e+000
      vertex  2.528586e+000 -1.961187e+000  0.000000e+000
      vertex  2.528586e+000 -1.961187e+000  5.000000e+000
    endloop
  endfacet
  facet normal -7.181634e-001  6.958746e-001  0.000000e+000
    outer loop
      vertex  2.528586e+000 -1.961187e+000  5.000000e+000
      vertex  2.528586e+000 -1.961187e+000  0.000000e+000
      vertex  2.039907e+000 -2.465518e+000  0.000000e+000
    endloop
  endfacet
  facet normal -7.181634e-001  6.958746e-001  0.000000e+000
    outer loop
      vertex  2.528586e+000 -1.961187e+000  5.000000e+000
      vertex  2.039907e+000 -2.465518e+000  0.000000e+000
      vertex  2.039907e+000 -2.465518e+000  5.000000e+000
    endloop
  endfacet
  facet normal -5.490803e-001  8.357695e-001  0.000000e+000
    outer loop
      vertex  2.039907e+000 -2.465518e+000  5.000000e+000
      vertex  2.039907e+000 -2.465518e+000  0.000000e+000
      vertex  1.452987e+000 -2.851110e+000  0.000000e+000
    endloop
  endfacet
  facet normal -5.490803e-001  8.357695e-001  0.000000e+000
    outer loop
      vertex  2.039907e+000 -2.465518e+000  5.000000e+000
      vertex  1.452987e+000 -2.851110e+000  0.000000e+000
      vertex  1.452987e+000 -2.851110e+000  5.000000e+000
    endloop
  endfacet
  facet normal -3.535533e-001  9.354144e-001  0.000000e+000
    outer loop
      vertex  1.452987e+000 -2.851110e+000  5.000000e+000
      vertex  1.452987e+000 -2.851110e+000  0.000000e+000
      vertex  7.960916e-001 -3.099393e+000  0.000000e+000
    endloop
  endfacet
  facet normal -3.535533e-001  9.354144e-001  0.000000e+000
    outer loop
      vertex  1.452987e+000 -2.851110e+000  5.000000e+000
      vertex  7.960916e-001 -3.099393e+000  0.000000e+000
      vertex  7.960916e-001 -3.099393e+000  5.000000e+000
    endloop
  endfacet
  facet normal -1.409996e-001  9.900097e-001  0.000000e+000
    outer loop
      vertex  7.960916e-001 -3.099393e+000  5.000000e+000
      vertex  7.960916e-001 -3.099393e+000  0.000000e+000
      vertex  1.008562e-001 -3.198410e+000  0.000000e+000
    endloop
  endfacet
  facet normal -1.409996e-001  9.900097e-001  0.000000e+000
    outer loop
      vertex  7.960916e-001 -3.099393e+000  5.000000e+000
      vertex  1.008562e-001 -3.198410e+000  0.000000e+000
      vertex  1.008562e-001 -3.198410e+000  5.000000e+000
    endloop
  endfacet
  facet normal  7.834513e-002  9.969264e-001  0.000000e+000
    outer loop
      vertex  1.008562e-001 -3.198410e+000  5.000000e+000
      vertex  1.008562e-001 -3.198410e+000  0.000000e+000
      vertex -5.992363e-001 -3.143392e+000  0.000000e+000
    endloop
  endfacet
  facet normal  7.834513e-002  9.969264e-001  -0.000000e+000
    outer loop
      vertex  1.008562e-001 -3.198410e+000  5.000000e+000
      vertex -5.992363e-001 -3.143392e+000  0.000000e+000
      vertex -5.992363e-001 -3.143392e+000  5.000000e+000
    endloop
  endfacet
  facet normal  2.939163e-001  9.558312e-001  0.000000e+000
    outer loop
      vertex -5.992363e-001 -3.143392e+000  5.000000e+000
      vertex -5.992363e-001 -3.143392e+000  0.000000e+000
      vertex -1.270470e+000 -2.936989e+000  0.000000e+000
    endloop
  endfacet
  facet normal  2.939163e-001  9.558312e-001  -0.000000e+000
    outer loop
      vertex -5.992363e-001 -3.143392e+000  5.000000e+000
      vertex -1.270470e+000 -2.936989e+000  0.000000e+000
      vertex -1.270470e+000 -2.936989e+000  5.000000e+000
    endloop
  endfacet
  facet normal  4.953324e-001  8.687035e-001  0.000000e+000
    outer loop
      vertex -1.270470e+000 -2.936989e+000  5.000000e+000
      vertex -1.270470e+000 -2.936989e+000  0.000000e+000
      vertex -1.880518e+000 -2.589142e+000  0.000000e+000
    endloop
  endfacet
  facet normal  4.953324e-001  8.687035e-001  -0.000000e+000
    outer loop
      vertex -1.270470e+000 -2.936989e+000  5.000000e+000
      vertex -1.880518e+000 -2.589142e+000  0.000000e+000
      vertex -1.880518e+000 -2.589142e+000  5.000000e+000
    endloop
  endfacet
  facet normal  6.728940e-001  7.397389e-001  0.000000e+000
    outer loop
      vertex -1.880518e+000 -2.589142e+000  5.000000e+000
      vertex -1.880518e+000 -2.589142e+000  0.000000e+000
      vertex -2.400000e+000 -2.116601e+000  0.000000e+000
    endloop
  endfacet
  facet normal  6.728940e-001  7.397389e-001  -0.000000e+000
    outer loop
      vertex -1.880518e+000 -2.589142e+000  5.000000e+000
      vertex -2.400000e+000 -2.116601e+000  0.000000e+000
      vertex -2.400000e+000 -2.116601e+000  5.000000e+000
    endloop
  endfacet
  facet normal  1.000000e+000  0.000000e+000  0.000000e+000
    outer loop
      vertex -2.400000e+000 -2.116601e+000  0.000000e+000
      vertex -2.400000e+000  0.000000e+000  5.000000e+000
      vertex -2.400000e+000 -2.116601e+000  5.000000e+000
    endloop
  endfacet
  facet normal  1.000000e+000  0.000000e+000  0.000000e+000
    outer loop
      vertex -2.400000e+000  0.000000e+000  5.000000e+000
      vertex -2.400000e+000 -2.116601e+000  0.000000e+000
      vertex -2.400000e+000  2.116601e+000  5.000000e+000
    endloop
  endfacet
  facet normal  1.000000e+000  0.000000e+000  0.000000e+000
    outer loop
      vertex -2.400000e+000  2.116601e+000  5.000000e+000
      vertex -2.400000e+000 -2.116601e+000  0.000000e+000
      vertex -2.400000e+000  0.000000e+000  0.000000e+000
    endloop
  endfacet
  facet normal  1.000000e+000  0.000000e+000  0.000000e+000
    outer loop
      vertex -2.400000e+000  2.116601e+000  5.000000e+000
      vertex -2.400000e+000  0.000000e+000  0.000000e+000
      vertex -2.400000e+000  2.116601e+000  0.000000e+000
    endloop
  endfacet
  facet normal  9.987165e-001 -5.064944e-002  0.000000e+000
    outer loop
      vertex  1.500000e+001  0.000000e+000  0.000000e+000
      vertex  1.500000e+001  0.000000e+000  5.000000e+000
      vertex  1.492304e+001 -1.517525e+000  0.000000e+000
    endloop
  endfacet
  facet normal  9.987165e-001 -5.064944e-002  0.000000e+000
    outer loop
      vertex  1.492304e+001 -1.517525e+000  0.000000e+000
      vertex  1.500000e+001  0.000000e+000  5.000000e+000
      vertex  1.492304e+001 -1.517525e+000  5.000000e+000
    endloop
  endfacet
  facet normal  9.884685e-001 -1.514274e-001  0.000000e+000
    outer loop
      vertex  1.492304e+001 -1.517525e+000  0.000000e+000
      vertex  1.492304e+001 -1.517525e+000  5.000000e+000
      vertex  1.469295e+001 -3.019478e+000  0.000000e+000
    endloop
  endfacet
  facet normal  9.884685e-001 -1.514274e-001  0.000000e+000
    outer loop
      vertex  1.469295e+001 -3.019478e+000  0.000000e+000
      vertex  1.492304e+001 -1.517525e+000  5.000000e+000
      vertex  1.469295e+001 -3.019478e+000  5.000000e+000
    endloop
  endfacet
  facet normal  9.680772e-001 -2.506526e-001  0.000000e+000
    outer loop
      vertex  1.469295e+001 -3.019478e+000  0.000000e+000
      vertex  1.469295e+001 -3.019478e+000  5.000000e+000
      vertex  1.431209e+001 -4.490447e+000  0.000000e+000
    endloop
  endfacet
  facet normal  9.680772e-001 -2.506526e-001  0.000000e+000
    outer loop
      vertex  1.431209e+001 -4.490447e+000  0.000000e+000
      vertex  1.469295e+001 -3.019478e+000  5.000000e+000
      vertex  1.431209e+001 -4.490447e+000  5.000000e+000
    endloop
  endfacet
  facet normal  9.377522e-001 -3.473051e-001  0.000000e+000
    outer loop
      vertex  1.431209e+001 -4.490447e+000  0.000000e+000
      vertex  1.431209e+001 -4.490447e+000  5.000000e+000
      vertex  1.378437e+001 -5.915338e+000  0.000000e+000
    endloop
  endfacet
  facet normal  9.377522e-001 -3.473051e-001  0.000000e+000
    outer loop
      vertex  1.378437e+001 -5.915338e+000  0.000000e+000
      vertex  1.431209e+001 -4.490447e+000  5.000000e+000
      vertex  1.378437e+001 -5.915338e+000  5.000000e+000
    endloop
  endfacet
  facet normal  8.978044e-001 -4.403945e-001  0.000000e+000
    outer loop
      vertex  1.378437e+001 -5.915338e+000  0.000000e+000
      vertex  1.378437e+001 -5.915338e+000  5.000000e+000
      vertex  1.311520e+001 -7.279530e+000  0.000000e+000
    endloop
  endfacet
  facet normal  8.978044e-001 -4.403945e-001  0.000000e+000
    outer loop
      vertex  1.311520e+001 -7.279530e+000  0.000000e+000
      vertex  1.378437e+001 -5.915338e+000  5.000000e+000
      vertex  1.311520e+001 -7.279530e+000  5.000000e+000
    endloop
  endfacet
  facet normal  8.486444e-001 -5.289639e-001  0.000000e+000
    outer loop
      vertex  1.311520e+001 -7.279530e+000  0.000000e+000
      vertex  1.311520e+001 -7.279530e+000  5.000000e+000
      vertex  1.231145e+001 -8.569023e+000  0.000000e+000
    endloop
  endfacet
  facet normal  8.486444e-001 -5.289639e-001  0.000000e+000
    outer loop
      vertex  1.231145e+001 -8.569023e+000  0.000000e+000
      vertex  1.311520e+001 -7.279530e+000  5.000000e+000
      vertex  1.231145e+001 -8.569023e+000  5.000000e+000
    endloop
  endfacet
  facet normal  7.907755e-001 -6.121063e-001  0.000000e+000
    outer loop
      vertex  1.231145e+001 -8.569023e+000  0.000000e+000
      vertex  1.231145e+001 -8.569023e+000  5.000000e+000
      vertex  1.138137e+001 -9.770587e+000  0.000000e+000
    endloop
  endfacet
  facet normal  7.907755e-001 -6.121063e-001  0.000000e+000
    outer loop
      vertex  1.138137e+001 -9.770587e+000  0.000000e+000
      vertex  1.231145e+001 -8.569023e+000  5.000000e+000
      vertex  1.138137e+001 -9.770587e+000  5.000000e+000
    endloop
  endfacet
  facet normal  7.247931e-001 -6.889665e-001  0.000000e+000
    outer loop
      vertex  1.138137e+001 -9.770587e+000  0.000000e+000
      vertex  1.138137e+001 -9.770587e+000  5.000000e+000
      vertex  1.033450e+001 -1.087189e+001  0.000000e+000
    endloop
  endfacet
  facet normal  7.247931e-001 -6.889665e-001  0.000000e+000
    outer loop
      vertex  1.033450e+001 -1.087189e+001  0.000000e+000
      vertex  1.138137e+001 -9.770587e+000  5.000000e+000
      vertex  1.033450e+001 -1.087189e+001  5.000000e+000
    endloop
  endfacet
  facet normal  6.513725e-001 -7.587582e-001  0.000000e+000
    outer loop
      vertex  1.033450e+001 -1.087189e+001  0.000000e+000
      vertex  1.033450e+001 -1.087189e+001  5.000000e+000
      vertex  9.181590e+000 -1.186164e+001  0.000000e+000
    endloop
  endfacet
  facet normal  6.513725e-001 -7.587582e-001  0.000000e+000
    outer loop
      vertex  9.181590e+000 -1.186164e+001  0.000000e+000
      vertex  1.033450e+001 -1.087189e+001  5.000000e+000
      vertex  9.181590e+000 -1.186164e+001  5.000000e+000
    endloop
  endfacet
  facet normal  5.712681e-001 -8.207635e-001  0.000000e+000
    outer loop
      vertex  9.181590e+000 -1.186164e+001  0.000000e+000
      vertex  9.181590e+000 -1.186164e+001  5.000000e+000
      vertex  7.934460e+000 -1.272966e+001  0.000000e+000
    endloop
  endfacet
  facet normal  5.712681e-001 -8.207635e-001  0.000000e+000
    outer loop
      vertex  7.934460e+000 -1.272966e+001  0.000000e+000
      vertex  9.181590e+000 -1.186164e+001  5.000000e+000
      vertex  7.934460e+000 -1.272966e+001  5.000000e+000
    endloop
  endfacet
  facet normal  4.853018e-001 -8.743467e-001  0.000000e+000
    outer loop
      vertex  7.934460e+000 -1.272966e+001  0.000000e+000
      vertex  7.934460e+000 -1.272966e+001  5.000000e+000
      vertex  6.605912e+000 -1.346707e+001  0.000000e+000
    endloop
  endfacet
  facet normal  4.853018e-001 -8.743467e-001  0.000000e+000
    outer loop
      vertex  6.605912e+000 -1.346707e+001  0.000000e+000
      vertex  7.934460e+000 -1.272966e+001  5.000000e+000
      vertex  6.605912e+000 -1.346707e+001  5.000000e+000
    endloop
  endfacet
  facet normal  3.943563e-001 -9.189576e-001  0.000000e+000
    outer loop
      vertex  6.605912e+000 -1.346707e+001  0.000000e+000
      vertex  6.605912e+000 -1.346707e+001  5.000000e+000
      vertex  5.209579e+000 -1.406628e+001  0.000000e+000
    endloop
  endfacet
  facet normal  3.943563e-001 -9.189576e-001  0.000000e+000
    outer loop
      vertex  5.209579e+000 -1.406628e+001  0.000000e+000
      vertex  6.605912e+000 -1.346707e+001  5.000000e+000
      vertex  5.209579e+000 -1.406628e+001  5.000000e+000
    endloop
  endfacet
  facet normal  2.993627e-001 -9.541394e-001  0.000000e+000
    outer loop
      vertex  5.209579e+000 -1.406628e+001  0.000000e+000
      vertex  5.209579e+000 -1.406628e+001  5.000000e+000
      vertex  3.759788e+000 -1.452116e+001  0.000000e+000
    endloop
  endfacet
  facet normal  2.993627e-001 -9.541394e-001  0.000000e+000
    outer loop
      vertex  3.759788e+000 -1.452116e+001  0.000000e+000
      vertex  5.209579e+000 -1.406628e+001  5.000000e+000
      vertex  3.759788e+000 -1.452116e+001  5.000000e+000
    endloop
  endfacet
  facet normal  2.012986e-001 -9.795300e-001  0.000000e+000
    outer loop
      vertex  3.759788e+000 -1.452116e+001  0.000000e+000
      vertex  3.759788e+000 -1.452116e+001  5.000000e+000
      vertex  2.271417e+000 -1.482702e+001  0.000000e+000
    endloop
  endfacet
  facet normal  2.012986e-001 -9.795300e-001  0.000000e+000
    outer loop
      vertex  2.271417e+000 -1.482702e+001  0.000000e+000
      vertex  3.759788e+000 -1.452116e+001  5.000000e+000
      vertex  2.271417e+000 -1.482702e+001  5.000000e+000
    endloop
  endfacet
  facet normal  1.011683e-001 -9.948694e-001  0.000000e+000
    outer loop
      vertex  2.271417e+000 -1.482702e+001  0.000000e+000
      vertex  2.271417e+000 -1.482702e+001  5.000000e+000
      vertex  7.597376e-001 -1.498075e+001  0.000000e+000
    endloop
  endfacet
  facet normal  1.011683e-001 -9.948694e-001  0.000000e+000
    outer loop
      vertex  7.597376e-001 -1.498075e+001  0.000000e+000
      vertex  2.271417e+000 -1.482702e+001  5.000000e+000
      vertex  7.597376e-001 -1.498075e+001  5.000000e+000
    endloop
  endfacet
  facet normal  0.000000e+000 -1.000000e+000  -0.000000e+000
    outer loop
      vertex  7.597376e-001 -1.498075e+001  0.000000e+000
      vertex  7.597376e-001 -1.498075e+001  5.000000e+000
      vertex -7.597376e-001 -1.498075e+001  0.000000e+000
    endloop
  endfacet
  facet normal  0.000000e+000 -1.000000e+000  0.000000e+000
    outer loop
      vertex -7.597376e-001 -1.498075e+001  0.000000e+000
      vertex  7.597376e-001 -1.498075e+001  5.000000e+000
      vertex -7.597376e-001 -1.498075e+001  5.000000e+000
    endloop
  endfacet
  facet normal -1.011683e-001 -9.948694e-001  -0.000000e+000
    outer loop
      vertex -7.597376e-001 -1.498075e+001  0.000000e+000
      vertex -7.597376e-001 -1.498075e+001  5.000000e+000
      vertex -2.271417e+000 -1.482702e+001  0.000000e+000
    endloop
  endfacet
  facet normal -1.011683e-001 -9.948694e-001  0.000000e+000
    outer loop
      vertex -2.271417e+000 -1.482702e+001  0.000000e+000
      vertex -7.597376e-001 -1.498075e+001  5.000000e+000
      vertex -2.271417e+000 -1.482702e+001  5.000000e+000
    endloop
  endfacet
  facet normal -2.012986e-001 -9.795300e-001  -0.000000e+000
    outer loop
      vertex -2.271417e+000 -1.482702e+001  0.000000e+000
      vertex -2.271417e+000 -1.482702e+001  5.000000e+000
      vertex -3.759788e+000 -1.452116e+001  0.000000e+000
    endloop
  endfacet
  facet normal -2.012986e-001 -9.795300e-001  0.000000e+000
    outer loop
      vertex -3.759788e+000 -1.452116e+001  0.000000e+000
      vertex -2.271417e+000 -1.482702e+001  5.000000e+000
      vertex -3.759788e+000 -1.452116e+001  5.000000e+000
    endloop
  endfacet
  facet normal -2.993627e-001 -9.541394e-001  -0.000000e+000
    outer loop
      vertex -3.759788e+000 -1.452116e+001  0.000000e+000
      vertex -3.759788e+000 -1.452116e+001  5.000000e+000
      vertex -5.209579e+000 -1.406628e+001  0.000000e+000
    endloop
  endfacet
  facet normal -2.993627e-001 -9.541394e-001  0.000000e+000
    outer loop
      vertex -5.209579e+000 -1.406628e+001  0.000000e+000
      vertex -3.759788e+000 -1.452116e+001  5.000000e+000
      vertex -5.209579e+000 -1.406628e+001  5.000000e+000
    endloop
  endfacet
  facet normal -3.943563e-001 -9.189576e-001  -0.000000e+000
    outer loop
      vertex -5.209579e+000 -1.406628e+001  0.000000e+000
      vertex -5.209579e+000 -1.406628e+001  5.000000e+000
      vertex -6.605912e+000 -1.346707e+001  0.000000e+000
    endloop
  endfacet
  facet normal -3.943563e-001 -9.189576e-001  0.000000e+000
    outer loop
      vertex -6.605912e+000 -1.346707e+001  0.000000e+000
      vertex -5.209579e+000 -1.406628e+001  5.000000e+000
      vertex -6.605912e+000 -1.346707e+001  5.000000e+000
    endloop
  endfacet
  facet normal -4.853018e-001 -8.743467e-001  -0.000000e+000
    outer loop
      vertex -6.605912e+000 -1.346707e+001  0.000000e+000
      vertex -6.605912e+000 -1.346707e+001  5.000000e+000
      vertex -7.934460e+000 -1.272966e+001  0.000000e+000
    endloop
  endfacet
  facet normal -4.853018e-001 -8.743467e-001  0.000000e+000
    outer loop
      vertex -7.934460e+000 -1.272966e+001  0.000000e+000
      vertex -6.605912e+000 -1.346707e+001  5.000000e+000
      vertex -7.934460e+000 -1.272966e+001  5.000000e+000
    endloop
  endfacet
  facet normal -5.712681e-001 -8.207635e-001  -0.000000e+000
    outer loop
      vertex -7.934460e+000 -1.272966e+001  0.000000e+000
      vertex -7.934460e+000 -1.272966e+001  5.000000e+000
      vertex -9.181590e+000 -1.186164e+001  0.000000e+000
    endloop
  endfacet
  facet normal -5.712681e-001 -8.207635e-001  0.000000e+000
    outer loop
      vertex -9.181590e+000 -1.186164e+001  0.000000e+000
      vertex -7.934460e+000 -1.272966e+001  5.000000e+000
      vertex -9.181590e+000 -1.186164e+001  5.000000e+000
    endloop
  endfacet
  facet normal -6.513725e-001 -7.587582e-001  -0.000000e+000
    outer loop
      vertex -9.181590e+000 -1.186164e+001  0.000000e+000
      vertex -9.181590e+000 -1.186164e+001  5.000000e+000
      vertex -1.033450e+001 -1.087189e+001  0.000000e+000
    endloop
  endfacet
  facet normal -6.513725e-001 -7.587582e-001  0.000000e+000
    outer loop
      vertex -1.033450e+001 -1.087189e+001  0.000000e+000
      vertex -9.181590e+000 -1.186164e+001  5.000000e+000
      vertex -1.033450e+001 -1.087189e+001  5.000000e+000
    endloop
  endfacet
  facet normal -7.247931e-001 -6.889665e-001  -0.000000e+000
    outer loop
      vertex -1.033450e+001 -1.087189e+001  0.000000e+000
      vertex -1.033450e+001 -1.087189e+001  5.000000e+000
      vertex -1.138137e+001 -9.770587e+000  0.000000e+000
    endloop
  endfacet
  facet normal -7.247931e-001 -6.889665e-001  0.000000e+000
    outer loop
      vertex -1.138137e+001 -9.770587e+000  0.000000e+000
      vertex -1.033450e+001 -1.087189e+001  5.000000e+000
      vertex -1.138137e+001 -9.770587e+000  5.000000e+000
    endloop
  endfacet
  facet normal -7.907755e-001 -6.121063e-001  -0.000000e+000
    outer loop
      vertex -1.138137e+001 -9.770587e+000  0.000000e+000
      vertex -1.138137e+001 -9.770587e+000  5.000000e+000
      vertex -1.231145e+001 -8.569023e+000  0.000000e+000
    endloop
  endfacet
  facet normal -7.907755e-001 -6.121063e-001  0.000000e+000
    outer loop
      vertex -1.231145e+001 -8.569023e+000  0.000000e+000
      vertex -1.138137e+001 -9.770587e+000  5.000000e+000
      vertex -1.231145e+001 -8.569023e+000  5.000000e+000
    endloop
  endfacet
  facet normal -8.486444e-001 -5.289639e-001  -0.000000e+000
    outer loop
      vertex -1.231145e+001 -8.569023e+000  0.000000e+000
      vertex -1.231145e+001 -8.569023e+000  5.000000e+000
      vertex -1.311520e+001 -7.279530e+000  0.000000e+000
    endloop
  endfacet
  facet normal -8.486444e-001 -5.289639e-001  0.000000e+000
    outer loop
      vertex -1.311520e+001 -7.279530e+000  0.000000e+000
      vertex -1.231145e+001 -8.569023e+000  5.000000e+000
      vertex -1.311520e+001 -7.279530e+000  5.000000e+000
    endloop
  endfacet
  facet normal -8.978044e-001 -4.403945e-001  -0.000000e+000
    outer loop
      vertex -1.311520e+001 -7.279530e+000  0.000000e+000
      vertex -1.311520e+001 -7.279530e+000  5.000000e+000
      vertex -1.378437e+001 -5.915338e+000  0.000000e+000
    endloop
  endfacet
  facet normal -8.978044e-001 -4.403945e-001  0.000000e+000
    outer loop
      vertex -1.378437e+001 -5.915338e+000  0.000000e+000
      vertex -1.311520e+001 -7.279530e+000  5.000000e+000
      vertex -1.378437e+001 -5.915338e+000  5.000000e+000
    endloop
  endfacet
  facet normal -9.377522e-001 -3.473051e-001  -0.000000e+000
    outer loop
      vertex -1.378437e+001 -5.915338e+000  0.000000e+000
      vertex -1.378437e+001 -5.915338e+000  5.000000e+000
      vertex -1.431209e+001 -4.490447e+000  0.000000e+000
    endloop
  endfacet
  facet normal -9.377522e-001 -3.473051e-001  0.000000e+000
    outer loop
      vertex -1.431209e+001 -4.490447e+000  0.000000e+000
      vertex -1.378437e+001 -5.915338e+000  5.000000e+000
      vertex -1.431209e+001 -4.490447e+000  5.000000e+000
    endloop
  endfacet
  facet normal -9.680772e-001 -2.506526e-001  -0.000000e+000
    outer loop
      vertex -1.431209e+001 -4.490447e+000  0.000000e+000
      vertex -1.431209e+001 -4.490447e+000  5.000000e+000
      vertex -1.469295e+001 -3.019478e+000  0.000000e+000
    endloop
  endfacet
  facet normal -9.680772e-001 -2.506526e-001  0.000000e+000
    outer loop
      vertex -1.469295e+001 -3.019478e+000  0.000000e+000
      vertex -1.431209e+001 -4.490447e+000  5.000000e+000
      vertex -1.469295e+001 -3.019478e+000  5.000000e+000
    endloop
  endfacet
  facet normal -9.884685e-001 -1.514274e-001  -0.000000e+000
    outer loop
      vertex -1.469295e+001 -3.019478e+000  0.000000e+000
      vertex -1.469295e+001 -3.019478e+000  5.000000e+000
      vertex -1.492304e+001 -1.517525e+000  0.000000e+000
    endloop
  endfacet
  facet normal -9.884685e-001 -1.514274e-001  0.000000e+000
    outer loop
      vertex -1.492304e+001 -1.517525e+000  0.000000e+000
      vertex -1.469295e+001 -3.019478e+000  5.000000e+000
      vertex -1.492304e+001 -1.517525e+000  5.000000e+000
    endloop
  endfacet
  facet normal -9.987165e-001 -5.064944e-002  -0.000000e+000
    outer loop
      vertex -1.492304e+001 -1.517525e+000  0.000000e+000
      vertex -1.492304e+001 -1.517525e+000  5.000000e+000
      vertex -1.500000e+001  8.498248e-015  0.000000e+000
    endloop
  endfacet
  facet normal -9.987165e-001 -5.064944e-002  0.000000e+000
    outer loop
      vertex -1.500000e+001  8.498248e-015  0.000000e+000
      vertex -1.492304e+001 -1.517525e+000  5.000000e+000
      vertex -1.500000e+001  8.498248e-015  5.000000e+000
    endloop
  endfacet
  facet normal -9.987165e-001  5.064944e-002  0.000000e+000
    outer loop
      vertex -1.500000e+001  8.498248e-015  0.000000e+000
      vertex -1.500000e+001  8.498248e-015  5.000000e+000
      vertex -1.492304e+001  1.517525e+000  0.000000e+000
    endloop
  endfacet
  facet normal -9.987165e-001  5.064944e-002  0.000000e+000
    outer loop
      vertex -1.492304e+001  1.517525e+000  0.000000e+000
      vertex -1.500000e+001  8.498248e-015  5.000000e+000
      vertex -1.492304e+001  1.517525e+000  5.000000e+000
    endloop
  endfacet
  facet normal -9.884685e-001  1.514274e-001  0.000000e+000
    outer loop
      vertex -1.492304e+001  1.517525e+000  0.000000e+000
      vertex -1.492304e+001  1.517525e+000  5.000000e+000
      vertex -1.469295e+001  3.019478e+000  0.000000e+000
    endloop
  endfacet
  facet normal -9.884685e-001  1.514274e-001  0.000000e+000
    outer loop
      vertex -1.469295e+001  3.019478e+000  0.000000e+000
      vertex -1.492304e+001  1.517525e+000  5.000000e+000
      vertex -1.469295e+001  3.019478e+000  5.000000e+000
    endloop
  endfacet
  facet normal -9.680772e-001  2.506526e-001  0.000000e+000
    outer loop
      vertex -1.469295e+001  3.019478e+000  0.000000e+000
      vertex -1.469295e+001  3.019478e+000  5.000000e+000
      vertex -1.431209e+001  4.490447e+000  0.000000e+000
    endloop
  endfacet
  facet normal -9.680772e-001  2.506526e-001  0.000000e+000
    outer loop
      vertex -1.431209e+001  4.490447e+000  0.000000e+000
      vertex -1.469295e+001  3.019478e+000  5.000000e+000
      vertex -1.431209e+001  4.490447e+000  5.000000e+000
    endloop
  endfacet
  facet normal -9.377522e-001  3.473051e-001  0.000000e+000
    outer loop
      vertex -1.431209e+001  4.490447e+000  0.000000e+000
      vertex -1.431209e+001  4.490447e+000  5.000000e+000
      vertex -1.378437e+001  5.915338e+000  0.000000e+000
    endloop
  endfacet
  facet normal -9.377522e-001  3.473051e-001  0.000000e+000
    outer loop
      vertex -1.378437e+001  5.915338e+000  0.000000e+000
      vertex -1.431209e+001  4.490447e+000  5.000000e+000
      vertex -1.378437e+001  5.915338e+000  5.000000e+000
    endloop
  endfacet
  facet normal -8.978044e-001  4.403945e-001  0.000000e+000
    outer loop
      vertex -1.378437e+001  5.915338e+000  0.000000e+000
      vertex -1.378437e+001  5.915338e+000  5.000000e+000
      vertex -1.311520e+001  7.279530e+000  0.000000e+000
    endloop
  endfacet
  facet normal -8.978044e-001  4.403945e-001  0.000000e+000
    outer loop
      vertex -1.311520e+001  7.279530e+000  0.000000e+000
      vertex -1.378437e+001  5.915338e+000  5.000000e+000
      vertex -1.311520e+001  7.279530e+000  5.000000e+000
    endloop
  endfacet
  facet normal -8.486444e-001  5.289639e-001  0.000000e+000
    outer loop
      vertex -1.311520e+001  7.279530e+000  0.000000e+000
      vertex -1.311520e+001  7.279530e+000  5.000000e+000
      vertex -1.231145e+001  8.569023e+000  0.000000e+000
    endloop
  endfacet
  facet normal -8.486444e-001  5.289639e-001  0.000000e+000
    outer loop
      vertex -1.231145e+001  8.569023e+000  0.000000e+000
      vertex -1.311520e+001  7.279530e+000  5.000000e+000
      vertex -1.231145e+001  8.569023e+000  5.000000e+000
    endloop
  endfacet
  facet normal -7.907755e-001  6.121063e-001  0.000000e+000
    outer loop
      vertex -1.231145e+001  8.569023e+000  0.000000e+000
      vertex -1.231145e+001  8.569023e+000  5.000000e+000
      vertex -1.138137e+001  9.770587e+000  0.000000e+000
    endloop
  endfacet
  facet normal -7.907755e-001  6.121063e-001  0.000000e+000
    outer loop
      vertex -1.138137e+001  9.770587e+000  0.000000e+000
      vertex -1.231145e+001  8.569023e+000  5.000000e+000
      vertex -1.138137e+001  9.770587e+000  5.000000e+000
    endloop
  endfacet
  facet normal -7.247931e-001  6.889665e-001  0.000000e+000
    outer loop
      vertex -1.138137e+001  9.770587e+000  0.000000e+000
      vertex -1.138137e+001  9.770587e+000  5.000000e+000
      vertex -1.033450e+001  1.087189e+001  0.000000e+000
    endloop
  endfacet
  facet normal -7.247931e-001  6.889665e-001  0.000000e+000
    outer loop
      vertex -1.033450e+001  1.087189e+001  0.000000e+000
      vertex -1.138137e+001  9.770587e+000  5.000000e+000
      vertex -1.033450e+001  1.087189e+001  5.000000e+000
    endloop
  endfacet
  facet normal -6.513725e-001  7.587582e-001  0.000000e+000
    outer loop
      vertex -1.033450e+001  1.087189e+001  0.000000e+000
      vertex -1.033450e+001  1.087189e+001  5.000000e+000
      vertex -9.181590e+000  1.186164e+001  0.000000e+000
    endloop
  endfacet
  facet normal -6.513725e-001  7.587582e-001  0.000000e+000
    outer loop
      vertex -9.181590e+000  1.186164e+001  0.000000e+000
      vertex -1.033450e+001  1.087189e+001  5.000000e+000
      vertex -9.181590e+000  1.186164e+001  5.000000e+000
    endloop
  endfacet
  facet normal -5.712681e-001  8.207635e-001  0.000000e+000
    outer loop
      vertex -9.181590e+000  1.186164e+001  0.000000e+000
      vertex -9.181590e+000  1.186164e+001  5.000000e+000
      vertex -7.934460e+000  1.272966e+001  0.000000e+000
    endloop
  endfacet
  facet normal -5.712681e-001  8.207635e-001  0.000000e+000
    outer loop
      vertex -7.934460e+000  1.272966e+001  0.000000e+000
      vertex -9.181590e+000  1.186164e+001  5.000000e+000
      vertex -7.934460e+000  1.272966e+001  5.000000e+000
    endloop
  endfacet
  facet normal -4.853018e-001  8.743467e-001  0.000000e+000
    outer loop
      vertex -7.934460e+000  1.272966e+001  0.000000e+000
      vertex -7.934460e+000  1.272966e+001  5.000000e+000
      vertex -6.605912e+000  1.346707e+001  0.000000e+000
    endloop
  endfacet
  facet normal -4.853018e-001  8.743467e-001  0.000000e+000
    outer loop
      vertex -6.605912e+000  1.346707e+001  0.000000e+000
      vertex -7.934460e+000  1.272966e+001  5.000000e+000
      vertex -6.605912e+000  1.346707e+001  5.000000e+000
    endloop
  endfacet
  facet normal -3.943563e-001  9.189576e-001  0.000000e+000
    outer loop
      vertex -6.605912e+000  1.346707e+001  0.000000e+000
      vertex -6.605912e+000  1.346707e+001  5.000000e+000
      vertex -5.209579e+000  1.406628e+001  0.000000e+000
    endloop
  endfacet
  facet normal -3.943563e-001  9.189576e-001  0.000000e+000
    outer loop
      vertex -5.209579e+000  1.406628e+001  0.000000e+000
      vertex -6.605912e+000  1.346707e+001  5.000000e+000
      vertex -5.209579e+000  1.406628e+001  5.000000e+000
    endloop
  endfacet
  facet normal -2.993627e-001  9.541394e-001  0.000000e+000
    outer loop
      vertex -5.209579e+000  1.406628e+001  0.000000e+000
      vertex -5.209579e+000  1.406628e+001  5.000000e+000
      vertex -3.759788e+000  1.452116e+001  0.000000e+000
    endloop
  endfacet
  facet normal -2.993627e-001  9.541394e-001  0.000000e+000
    outer loop
      vertex -3.759788e+000  1.452116e+001  0.000000e+000
      vertex -5.209579e+000  1.406628e+001  5.000000e+000
      vertex -3.759788e+000  1.452116e+001  5.000000e+000
    endloop
  endfacet
  facet normal -2.012986e-001  9.795300e-001  0.000000e+000
    outer loop
      vertex -3.759788e+000  1.452116e+001  0.000000e+000
      vertex -3.759788e+000  1.452116e+001  5.000000e+000
      vertex -2.271417e+000  1.482702e+001  0.000000e+000
    endloop
  endfacet
  facet normal -2.012986e-001  9.795300e-001  0.000000e+000
    outer loop
      vertex -2.271417e+000  1.482702e+001  0.000000e+000
      vertex -3.759788e+000  1.452116e+001  5.000000e+000
      vertex -2.271417e+000  1.482702e+001  5.000000e+000
    endloop
  endfacet
  facet normal -1.011683e-001  9.948694e-001  0.000000e+000
    outer loop
      vertex -2.271417e+000  1.482702e+001  0.000000e+000
      vertex -2.271417e+000  1.482702e+001  5.000000e+000
      vertex -7.597376e-001  1.498075e+001  0.000000e+000
    endloop
  endfacet
  facet normal -1.011683e-001  9.948694e-001  0.000000e+000
    outer loop
      vertex -7.597376e-001  1.498075e+001  0.000000e+000
      vertex -2.271417e+000  1.482702e+001  5.000000e+000
      vertex -7.597376e-001  1.498075e+001  5.000000e+000
    endloop
  endfacet
  facet normal  0.000000e+000  1.000000e+000  0.000000e+000
    outer loop
      vertex -7.597376e-001  1.498075e+001  0.000000e+000
      vertex -7.597376e-001  1.498075e+001  5.000000e+000
      vertex  7.597376e-001  1.498075e+001  0.000000e+000
    endloop
  endfacet
  facet normal  0.000000e+000  1.000000e+000  -0.000000e+000
    outer loop
      vertex  7.597376e-001  1.498075e+001  0.000000e+000
      vertex -7.597376e-001  1.498075e+001  5.000000e+000
      vertex  7.597376e-001  1.498075e+001  5.000000e+000
    endloop
  endfacet
  facet normal  1.011683e-001  9.948694e-001  0.000000e+000
    outer loop
      vertex  7.597376e-001  1.498075e+001  0.000000e+000
      vertex  7.597376e-001  1.498075e+001  5.000000e+000
      vertex  2.271417e+000  1.482702e+001  0.000000e+000
    endloop
  endfacet
  facet normal  1.011683e-001  9.948694e-001  -0.000000e+000
    outer loop
      vertex  2.271417e+000  1.482702e+001  0.000000e+000
      vertex  7.597376e-001  1.498075e+001  5.000000e+000
      vertex  2.271417e+000  1.482702e+001  5.000000e+000
    endloop
  endfacet
  facet normal  2.012986e-001  9.795300e-001  0.000000e+000
    outer loop
      vertex  2.271417e+000  1.482702e+001  0.000000e+000
      vertex  2.271417e+000  1.482702e+001  5.000000e+000
      vertex  3.759788e+000  1.452116e+001  0.000000e+000
    endloop
  endfacet
  facet normal  2.012986e-001  9.795300e-001  -0.000000e+000
    outer loop
      vertex  3.759788e+000  1.452116e+001  0.000000e+000
      vertex  2.271417e+000  1.482702e+001  5.000000e+000
      vertex  3.759788e+000  1.452116e+001  5.000000e+000
    endloop
  endfacet
  facet normal  2.993627e-001  9.541394e-001  0.000000e+000
    outer loop
      vertex  3.759788e+000  1.452116e+001  0.000000e+000
      vertex  3.759788e+000  1.452116e+001  5.000000e+000
      vertex  5.209579e+000  1.406628e+001  0.000000e+000
    endloop
  endfacet
  facet normal  2.993627e-001  9.541394e-001  -0.000000e+000
    outer loop
      vertex  5.209579e+000  1.406628e+001  0.000000e+000
      vertex  3.759788e+000  1.452116e+001  5.000000e+000
      vertex  5.209579e+000  1.406628e+001  5.000000e+000
    endloop
  endfacet
  facet normal  3.943563e-001  9.189576e-001  0.000000e+000
    outer loop
      vertex  5.209579e+000  1.406628e+001  0.000000e+000
      vertex  5.209579e+000  1.406628e+001  5.000000e+000
      vertex  6.605912e+000  1.346707e+001  0.000000e+000
    endloop
  endfacet
  facet normal  3.943563e-001  9.189576e-001  -0.000000e+000
    outer loop
      vertex  6.605912e+000  1.346707e+001  0.000000e+000
      vertex  5.209579e+000  1.406628e+001  5.000000e+000
      vertex  6.605912e+000  1.346707e+001  5.000000e+000
    endloop
  endfacet
  facet normal  4.853018e-001  8.743467e-001  0.000000e+000
    outer loop
      vertex  6.605912e+000  1.346707e+001  0.000000e+000
      vertex  6.605912e+000  1.346707e+001  5.000000e+000
      vertex  7.934460e+000  1.272966e+001  0.000000e+000
    endloop
  endfacet
  facet normal  4.853018e-001  8.743467e-001  -0.000000e+000
    outer loop
      vertex  7.934460e+000  1.272966e+001  0.000000e+000
      vertex  6.605912e+000  1.346707e+001  5.000000e+000
      vertex  7.934460e+000  1.272966e+001  5.000000e+000
    endloop
  endfacet
  facet normal  5.712681e-001  8.207635e-001  0.000000e+000
    outer loop
      vertex  7.934460e+000  1.272966e+001  0.000000e+000
      vertex  7.934460e+000  1.272966e+001  5.000000e+000
      vertex  9.181590e+000  1.186164e+001  0.000000e+000
    endloop
  endfacet
  facet normal  5.712681e-001  8.207635e-001  -0.000000e+000
    outer loop
      vertex  9.181590e+000  1.186164e+001  0.000000e+000
      vertex  7.934460e+000  1.272966e+001  5.000000e+000
      vertex  9.181590e+000  1.186164e+001  5.000000e+000
    endloop
  endfacet
  facet normal  6.513725e-001  7.587582e-001  0.000000e+000
    outer loop
      vertex  9.181590e+000  1.186164e+001  0.000000e+000
      vertex  9.181590e+000  1.186164e+001  5.000000e+000
      vertex  1.033450e+001  1.087189e+001  0.000000e+000
    endloop
  endfacet
  facet normal  6.513725e-001  7.587582e-001  -0.000000e+000
    outer loop
      vertex  1.033450e+001  1.087189e+001  0.000000e+000
      vertex  9.181590e+000  1.186164e+001  5.000000e+000
      vertex  1.033450e+001  1.087189e+001  5.000000e+000
    endloop
  endfacet
  facet normal  7.247931e-001  6.889665e-001  0.000000e+000
    outer loop
      vertex  1.033450e+001  1.087189e+001  0.000000e+000
      vertex  1.033450e+001  1.087189e+001  5.000000e+000
      vertex  1.138137e+001  9.770587e+000  0.000000e+000
    endloop
  endfacet
  facet normal  7.247931e-001  6.889665e-001  -0.000000e+000
    outer loop
      vertex  1.138137e+001  9.770587e+000  0.000000e+000
      vertex  1.033450e+001  1.087189e+001  5.000000e+000
      vertex  1.138137e+001  9.770587e+000  5.000000e+000
    endloop
  endfacet
  facet normal  7.907755e-001  6.121063e-001  0.000000e+000
    outer loop
      vertex  1.138137e+001  9.770587e+000  0.000000e+000
      vertex  1.138137e+001  9.770587e+000  5.000000e+000
      vertex  1.231145e+001  8.569023e+000  0.000000e+000
    endloop
  endfacet
  facet normal  7.907755e-001  6.121063e-001  -0.000000e+000
    outer loop
      vertex  1.231145e+001  8.569023e+000  0.000000e+000
      vertex  1.138137e+001  9.770587e+000  5.000000e+000
      vertex  1.231145e+001  8.569023e+000  5.000000e+000
    endloop
  endfacet
  facet normal  8.486444e-001  5.289639e-001  0.000000e+000
    outer loop
      vertex  1.231145e+001  8.569023e+000  0.000000e+000
      vertex  1.231145e+001  8.569023e+000  5.000000e+000
      vertex  1.311520e+001  7.279530e+000  0.000000e+000
    endloop
  endfacet
  facet normal  8.486444e-001  5.289639e-001  -0.000000e+000
    outer loop
      vertex  1.311520e+001  7.279530e+000  0.000000e+000
      vertex  1.231145e+001  8.569023e+000  5.000000e+000
      vertex  1.311520e+001  7.279530e+000  5.000000e+000
    endloop
  endfacet
  facet normal  8.978044e-001  4.403945e-001  0.000000e+000
    outer loop
      vertex  1.311520e+001  7.279530e+000  0.000000e+000
      vertex  1.311520e+001  7.279530e+000  5.000000e+000
      vertex  1.378437e+001  5.915338e+000  0.000000e+000
    endloop
  endfacet
  facet normal  8.978044e-001  4.403945e-001  -0.000000e+000
    outer loop
      vertex  1.378437e+001  5.915338e+000  0.000000e+000
      vertex  1.311520e+001  7.279530e+000  5.000000e+000
      vertex  1.378437e+001  5.915338e+000  5.000000e+000
    endloop
  endfacet
  facet normal  9.377522e-001  3.473051e-001  0.000000e+000
    outer loop
      vertex  1.378437e+001  5.915338e+000  0.000000e+000
      vertex  1.378437e+001  5.915338e+000  5.000000e+000
      vertex  1.431209e+001  4.490447e+000  0.000000e+000
    endloop
  endfacet
  facet normal  9.377522e-001  3.473051e-001  -0.000000e+000
    outer loop
      vertex  1.431209e+001  4.490447e+000  0.000000e+000
      vertex  1.378437e+001  5.915338e+000  5.000000e+000
      vertex  1.431209e+001  4.490447e+000  5.000000e+000
    endloop
  endfacet
  facet normal  9.680772e-001  2.506526e-001  0.000000e+000
    outer loop
      vertex  1.431209e+001  4.490447e+000  0.000000e+000
      vertex  1.431209e+001  4.490447e+000  5.000000e+000
      vertex  1.469295e+001  3.019478e+000  0.000000e+000
    endloop
  endfacet
  facet normal  9.680772e-001  2.506526e-001  -0.000000e+000
    outer loop
      vertex  1.469295e+001  3.019478e+000  0.000000e+000
      vertex  1.431209e+001  4.490447e+000  5.000000e+000
      vertex  1.469295e+001  3.019478e+000  5.000000e+000
    endloop
  endfacet
  facet normal  9.884685e-001  1.514274e-001  0.000000e+000
    outer loop
      vertex  1.469295e+001  3.019478e+000  0.000000e+000
      vertex  1.469295e+001  3.019478e+000  5.000000e+000
      vertex  1.492304e+001  1.517525e+000  0.000000e+000
    endloop
  endfacet
  facet normal  9.884685e-001  1.514274e-001  -0.000000e+000
    outer loop
      vertex  1.492304e+001  1.517525e+000  0.000000e+000
      vertex  1.469295e+001  3.019478e+000  5.000000e+000
      vertex  1.492304e+001  1.517525e+000  5.000000e+000
    endloop
  endfacet
  facet normal  9.987165e-001  5.064944e-002  0.000000e+000
    outer loop
      vertex  1.492304e+001  1.517525e+000  0.000000e+000
      vertex  1.492304e+001  1.517525e+000  5.000000e+000
      vertex  1.500000e+001  0.000000e+000  0.000000e+000
    endloop
  endfacet
  facet normal  9.987165e-001  5.064944e-002  -0.000000e+000
    outer loop
      vertex  1.500000e+001  0.000000e+000  0.000000e+000
      vertex  1.492304e+001  1.517525e+000  5.000000e+000
      vertex  1.500000e+001  0.000000e+000  5.000000e+000
    endloop
  endfacet
endsolid CATIA STL
